<svg xmlns="http://www.w3.org/2000/svg" viewBox="0 0 100.81 48.44"><defs><style>.cls-1{fill:#fce8f1;}.cls-2{fill:#fbf0f0;}.cls-3{fill:#faf3f3;}.cls-4{fill:#faf5f5;}.cls-5{fill:#fbeaf2;}.cls-6{fill:#fbf0f5;}.cls-7{fill:#fbebf2;}.cls-8{fill:#fbe9f2;}.cls-9{fill:#fbe9e8;}.cls-10{fill:#fbebeb;}.cls-11{fill:#fbebee;}.cls-12{fill:#fcdfed;}.cls-13{fill:#fce2ee;}.cls-14{fill:#fce1e8;}.cls-15{fill:#fce2e1;}.cls-16{fill:#fce2ea;}.cls-17{fill:#fce4ef;}.cls-18{fill:#fbe8e8;}.cls-19{fill:#fbedec;}.cls-20{fill:#fbecec;}.cls-21{fill:#fbf1f1;}.cls-22{fill:#fce0ed;}.cls-23{fill:#fbe5e4;}.cls-24{fill:#faf4f4;}.cls-25{fill:#eee273;}.cls-26{fill:#ede474;}.cls-27{fill:#eadd6a;}.cls-28{fill:#eee47c;}.cls-29{fill:#ebe16e;}.cls-30{fill:#ede483;}.cls-31{fill:#efe472;}.cls-32{fill:#c7ad3c;}.cls-33{fill:#eae172;}.cls-34{fill:#ece074;}.cls-35{fill:#d2c565;}.cls-36{fill:#b7993b;}.cls-37{fill:#e8dd73;}.cls-38{fill:#e9e280;}.cls-39{fill:#e7de73;}.cls-40{fill:#d9ce63;}.cls-41{fill:#ddd183;}.cls-42{fill:#e8e28a;}.cls-43{fill:#e8df78;}.cls-44{fill:#ebdf77;}.cls-45{fill:#c2a94b;}.cls-46{fill:#d5c76b;}.cls-47{fill:#d2bc51;}.cls-48{fill:#e9e07d;}.cls-49{fill:#e7df84;}.cls-50{fill:#e5dc74;}.cls-51{fill:#e2da84;}.cls-52{fill:#bea740;}.cls-53{fill:#e7d977;}.cls-54{fill:#e7dd7e;}.cls-55{fill:#e4dd8a;}.cls-56{fill:#d9cc57;}.cls-57{fill:#cbc262;}.cls-58{fill:#cdba4b;}.cls-59{fill:#caba4e;}.cls-60{fill:#e3dd8c;}.cls-61{fill:#f1e97f;}.cls-62{fill:#e4d879;}.cls-63{fill:#b09638;}.cls-64{fill:#ded78c;}.cls-65{fill:#e4dc77;}.cls-66{fill:#e5db7c;}.cls-67{fill:#eee069;}.cls-68{fill:#e2db7c;}.cls-69{fill:#dacb5e;}.cls-70{fill:#d1c35b;}.cls-71{fill:#d7cc6a;}.cls-72{fill:#c1ac46;}.cls-73{fill:#ece07e;}.cls-74{fill:#eddb6b;}.cls-75{fill:#d2c85c;}.cls-76{fill:#d6cb72;}.cls-77{fill:#ddcf5b;}.cls-78{fill:#d8c95e;}.cls-79{fill:#d7d177;}</style></defs><title>3Recurso 6corner-up</title><g id="Capa_2" data-name="Capa 2"><g id="Layer_1" data-name="Layer 1"><path class="cls-1" d="M6.74,0H33.62c.8.61,1.26,1.54,2,2.17a.66.66,0,0,1,.22.86c-.49.8.08,1,.63,1.14a5.14,5.14,0,0,1,1.43.59A1.53,1.53,0,0,0,39.51,5a1,1,0,0,1,1.27.34,1.05,1.05,0,0,1,0,1.24,1,1,0,0,1-1.18.58c-.9-.28-1.25.12-1.37.94,0,.24,0,.55-.22.67a2.29,2.29,0,0,0-.88,2.41,4.14,4.14,0,0,0,1.17,2.29,5.8,5.8,0,0,1,.84,2.31c0,.15-.12.28-.25.38-.36.08-.53-.2-.74-.4a11.19,11.19,0,0,1-3.5-7.52A4.67,4.67,0,0,0,33.63,5.7a2.8,2.8,0,0,0-4.15-.25c-1.11.94-1.76,2.27-2.75,3.31a4.55,4.55,0,0,1-1.12,1.07.73.73,0,0,1-.69,0c-.89-1.1-1.2-1.18-2.42-.54a8.77,8.77,0,0,0-1.81.91c-.59.49-1.16.67-1.78,0-.29-.3-.66-.2-1-.06a1.61,1.61,0,0,1-1.17.13c-1.15-.46-1.81.22-2.44,1a2.16,2.16,0,0,1-1.55,1c-1.09.06-1.63-.22-1.78-1.29A1.42,1.42,0,0,0,9.52,9.59a2.49,2.49,0,0,1-.7-.18C8,9.09,7.85,8.68,8.37,8A9.58,9.58,0,0,1,10.6,5.28,3.41,3.41,0,0,1,9,4.58c-1.08-.77-2.37-.47-3.57-.32a8.41,8.41,0,0,1-2,.3A.92.92,0,0,0,2.6,5C1.62,6.06,1.47,6.08,0,5.3V2.66a15.56,15.56,0,0,1,3.28-1.3C4.5,1,5.59.44,6.74,0Z"/><path class="cls-2" d="M0,41.29V26.41c2.17,1.18,4.48,2.05,6.68,3.17.24.12.43.43.72.37,1.4-.3,1.91.61,2.32,1.67a1.38,1.38,0,0,0,1.88.7,1.31,1.31,0,0,1,1.53.3c.74.81,1.48.45,2.09-.1a2.73,2.73,0,0,1,1.88-.84,5.56,5.56,0,0,0,2-.73,1.83,1.83,0,0,1,2.27.45,17.55,17.55,0,0,0,1.52,1.34,1.17,1.17,0,0,1,.33.63,1,1,0,0,1-.32.81,1.22,1.22,0,0,0-.69,1.44,2.12,2.12,0,0,1-.57,1.74c-1.08,1.37-2.58,2.4-3.26,4.08S16,43.31,14.53,43.88c-.33.14-.72.18-1,.46a2.81,2.81,0,0,1-3.58.74c-1.12-.61-2.63-.85-3.21-2.29a1.13,1.13,0,0,0-.61-.55,4.84,4.84,0,0,1-2-2.16C3.48,38.82,2.81,38.78,2,40,1.53,40.75,1.11,41.5,0,41.29Z"/><path class="cls-3" d="M55.46.74A82.78,82.78,0,0,0,55,10.18a17.51,17.51,0,0,1-.48,3.75c-1.18-.12-.39-1-.63-1.56-.49-.09-.71.27-.95.58-1.38,1.74-2.48,3.69-3.71,5.54a.82.82,0,0,0-.13.79,1.68,1.68,0,0,1-.79,2.06A5.47,5.47,0,0,0,46.82,23a5.39,5.39,0,0,1-3.21,2.53,10.94,10.94,0,0,0-2,1.06c-.58.3-1.13.32-1.42-.34-.66-1.5-2-1.56-3.31-1.52a6.27,6.27,0,0,1-1.06.13,1.58,1.58,0,0,0-2,1.38c-.27,1-1.34,1.68-2.22,2.33a4.19,4.19,0,0,1-.83.46,3.1,3.1,0,0,0-2,3.75.63.63,0,0,1-.19.55l-1.2.24c-.2-.14-.51-.32-.41-.53.48-1-.08-2.13.47-3.1.81-.76,1.07-1.52.12-2.41a2.65,2.65,0,0,1-.5-1.33,3,3,0,0,0-1.21-1.84,3.38,3.38,0,0,1-1.19-2.87c0-.63.59-.9,1.24-.79a5.75,5.75,0,0,1,2.4,1c.32.23.69.57.49,1s-.63.11-1,0c-.15,0-.29-.12-.46,0a1.5,1.5,0,0,0,1.7,0c.63-.27.6-.7.49-1.27-.31-1.58.21-2.17,1.84-1.94.72.1,1.26-.49,2-.3.3.08,0-.19,0-.29-.11-.59.25-.71.69-.68s1.88,1.34,1.77,1.88c-.14.69.23.83.7,1a3.6,3.6,0,0,0,1.41.26,2.35,2.35,0,0,1,1.71.34.76.76,0,0,0,.57.12c1.54-.15,1.54-.15,2.22,1.31.44.93.78,1,1.43.18s1.47-1.3.68-2.55c-.5-.77.29-1.87,1.23-2.15a1.86,1.86,0,0,1-.28-2.23c.78-1.13-.16-1.19-.68-1.57.18-2.39.57-4.58,3.11-5.8,2-1,3.05-2.87,4.18-4.64A16.33,16.33,0,0,1,54.77,1.1C55,.92,55.11.64,55.46.74Z"/><path class="cls-4" d="M28.58,33.37a5.44,5.44,0,0,1-.08-2.44,2.09,2.09,0,0,1,1-1.48c.95-.72,2.1-1.06,3-2.12a5.8,5.8,0,0,0,1.44-2.44c.16-.75.73-.21,1.09-.23,1.53-.09,3.08-.62,4.57.3.43.27.77.42.82,1s.49.79,1.1.42A11.29,11.29,0,0,1,44.23,25a4.25,4.25,0,0,0,2.4-2.22,4.74,4.74,0,0,1,1.45-1.66c.63-.47,1.33-1,.56-2a.51.51,0,0,1,.09-.75c1.11-1.06,1.54-2.57,2.47-3.7a13.75,13.75,0,0,1,2.11-2.64c.28-.21.52-.33.85-.11s.13.52.05.74c-.16.49-.33.93.29,1.21a45.42,45.42,0,0,0-1,5.77,2.11,2.11,0,0,1-.23.91A26.81,26.81,0,0,0,51,26a3.35,3.35,0,0,1-2.34,2c-1,.25-1.89.87-3,.58a3.38,3.38,0,0,0-1.81.5A14.82,14.82,0,0,0,40.25,31c-1.14.95-2.66.82-3.87,1.53-.37.22-.79.36-1.15.6a2.6,2.6,0,0,1-3.34,0C30.74,32.43,29.68,33.15,28.58,33.37Z"/><path class="cls-1" d="M0,20.41v-3.6a3.58,3.58,0,0,1,3.42-.32A8.87,8.87,0,0,0,6,16.91c.69,0,1.34-.07,1.85.56.29.36.71.19,1-.06s.78-.33,1.1-.51a2.9,2.9,0,0,1,2.33-.1c-.34.09-.76-.25-1.22-.47-.27-.12-.5-.3-.48-.61s.39-.44.75-.49c-1.24,0-2.42.5-3.63.12a1,1,0,0,0-1,.35,2.65,2.65,0,0,1-3.08.6c-1.18-.46-2.53-.36-3.59-1.16v-.49c.87-.65,1.69,0,2.51.17A6.25,6.25,0,0,0,6.94,14a1.51,1.51,0,0,1,1.25-.23,31,31,0,0,0,3.33.23.87.87,0,0,0,.58-.07c1.32-.81,2.89-.86,4.26-1.43a14.55,14.55,0,0,1,4.2-.74,1.34,1.34,0,0,1,1.34.63,1.25,1.25,0,0,1-.33,1.2.46.46,0,0,1-.47.18c-1-.58-1.89,0-2.8.12a13.37,13.37,0,0,1-3.89.39c.69.17,1.44,0,2.06.44.07.05.2.08.22,0,.63-1.15,1.75-.35,2.59-.65a1.1,1.1,0,0,1,1.45.49,1.66,1.66,0,0,1-.12,1,2.29,2.29,0,0,1-.59.85c-.5.34-1.12.38-1.64.68-1.19.69-1.36,1.6-.43,2.61a.63.63,0,0,1,.17.43A3.21,3.21,0,0,1,16.9,22s-.11,0-.12,0c-.42,1.07-1.43,1.28-2.34,1.7a1,1,0,0,1-1.29-.06,1.89,1.89,0,0,0-1.9-.42.85.85,0,0,1-.7,0C9,22.28,7,22.59,5.39,21.7c-.88-.49-1.87.27-2.8-.07-.15-.05-.29.12-.29.3s.07.42.31.43c.47,0,1,.14,1.39-.2.8-.67.94,0,.88.51a4.85,4.85,0,0,0,.41,1.83,12.2,12.2,0,0,1,3.76-.35,1.71,1.71,0,0,0,1.27-.34c.35-.29.84-.65,1.29-.25s.29.77-.24,1c.53.66-.07,1.67.85,2.29a7,7,0,0,0,3,1.52,1.49,1.49,0,0,1-.11,1.42c-.29.46-.51,1-1.18,1.05-.63-.33-1.15-1-1.82-1.11a3.62,3.62,0,0,1-2.56-1.94,3,3,0,0,0-3.74-1.24C4.74,27,2.57,25.84,2,24.78c-.1-.17-.16-.41-.32-.5A4.89,4.89,0,0,1,0,22.81V21.37C.49,21.05.27,20.73,0,20.41Z"/><path class="cls-5" d="M21.86,12.49c-1.55-.94-3.13-.32-4.65,0a12.86,12.86,0,0,1-2.34.67,1.76,1.76,0,0,0-1,.21c-1.75,1.36-3.71.85-5.63.64-.41,0-.8-.18-1.11.17-.49.57-1.16.56-1.81.77a6.57,6.57,0,0,1-4.42-.3,3.25,3.25,0,0,0-.83,0V5.3A2.83,2.83,0,0,1,1,5.43c.71.31,1.1.11,1.34-.59.2-.54.52-.91,1.19-.59a1.25,1.25,0,0,0,1-.1A11,11,0,0,1,8.4,3.86c.28,0,.61,0,.73.28.37.91,1,.85,1.81.55a.9.9,0,0,1-.37,1.16c-1,.46-1.21,1.6-2,2.27-.58.52-.46.88.31,1,.43.08.87.14,1.29.26s1.13.25,1,1.17c-.07.42-.07,1.26.64,1.38s1.5.35,2-.57c.24-.44.74-.73,1-1.14.73-1,1.54-.07,2.31-.13s1.48-1.17,2.14.12c.24.47.58.26.87,0,.82-.8,2-1,2.92-1.55A1.35,1.35,0,0,1,25,9.86,6.68,6.68,0,0,1,21.86,12.49Z"/><path class="cls-6" d="M55.46.74c-2.18,2-3.34,4.72-5.23,6.92A8.38,8.38,0,0,1,48.15,9.4c-1.4.83-2.68,1.65-2.68,3.57a7,7,0,0,1-.57,1.92,3.75,3.75,0,0,1-3.12,2.89A.91.91,0,0,1,41,17a3.4,3.4,0,0,0-1-2c-.48-.42-.07-1,.16-1.6-.3-.24-.83.13-1-.33s.2-.65.3-1a10.56,10.56,0,0,0,.47-2.34c.07-.83.38-1.08,1.09-1.51a2.52,2.52,0,0,1,3,.06c-1.76-2.3.7-3,1.72-4.28-1.72.95-3.56.32-5.29.63-.73.13-.94-.19-1-.91A9.28,9.28,0,0,1,40.1,0H54.29C54.8,0,55.5-.2,55.46.74Z"/><path class="cls-7" d="M40.1,0a3.58,3.58,0,0,1-.43,2.23c-.32.45.26,1.29,0,2-.06.16.19.3.32.23.75-.38,1.59.21,2.33-.26a1,1,0,0,1,1,0A1.18,1.18,0,0,0,45,3.84c.32-.37.7-.63,1.05-.07a.71.71,0,0,1-.44,1.06,3,3,0,0,0-1.49,1.1c-.82.84-.78,1.31.15,2.09.29.24.45.51.22.81s-.42,0-.67-.16c-.76-.4-1.56-1.35-2.45-.14a.73.73,0,0,1-.86.25c-.32-.11-.5.1-.39.37.4,1-.64,1.88-.32,2.89,0,.09-.05.23-.12.33s-.68.33-.4.71.46-.11.69-.22.44.1.59.28.11.35-.11.57c-.53.49-1,1.06.11,1.47.48.18.41.6.47,1s0,1.15.71,1.35c.06.37-.22.41-.47.49-1.56-.14-2.1-.57-2.41-1.93A4,4,0,0,0,38,13.55c-1.09-1.24-1.69-2.85-.88-4.25a16.71,16.71,0,0,0,1.21-2.48c.18-.47.62-.17.94-.08.49.14,1,.45,1.33-.25.19-.37.33-.71,0-1.09s-.82-.32-1.24,0a.54.54,0,0,1-.45.1c-1.21-.48-2.42-1-3.6-1.5-.32-.14-.22-.53,0-.69.7-.46.42-.74-.08-1.14A5.3,5.3,0,0,1,33.62,0Z"/><path class="cls-8" d="M0,22.81c.32-.07.52-.65.92-.32s-.1.42-.23.62c-.24.36.06.4.29.42.77.07,1.08.63,1.3,1.24a1.59,1.59,0,0,0,1.61,1.17c.9,0,1.86.93,2.67-.21.89.41,1.81.76,2.67,1.23.65.36,1.37.77,1.1,1.78a.38.38,0,0,0,.49.49c1.52-.49,2.22.69,3.09,1.5a3.34,3.34,0,0,1-4.32,1,2,2,0,0,1-.57-.87c-.07-.26-.22-.59-.55-.56-1.92.16-3.22-1.32-4.88-1.82a9.1,9.1,0,0,1-3.59-2Z"/><path class="cls-9" d="M14.9,29.77a4.15,4.15,0,0,0,.24-1.44c-.09-.2,0-.28.2-.36.34-.18.75-.21,1-.63a.92.92,0,0,1,1.15-.41c.82.25.91-.09.93-.82s-.15-1.5.67-1.76a2.37,2.37,0,0,1,2.32.64c.78.65,1.28,1.63,2.3,2,2.48,1.41,2.84,2.82,1.55,5.9-.25.32-.77.42-.73,1-.13.17,0,.48-.33.53-.54-.25-.39-.72-.36-1.14.16-1.88-.19-2.4-1.94-2.9a2.1,2.1,0,0,1-.78-.29,2.15,2.15,0,0,0-2.95,0c-.82.61-1.77.12-2.64.38A.57.57,0,0,1,14.9,29.77Z"/><path class="cls-10" d="M16.82,21.85,18,20.17c.65-.35.92.34,1.3.56,1.55.91,3,2,4.59,2.83,2,1.06,2.71,3,4.06,4.52.66.74-.17,1.3-.35,1.93s-.47,1,0,1.58c.25.28.05.56-.15.73-.49.42-.31.85-.09,1.29-.52,0-1.12.18-1.44-.48-.29-1.08.17-2.15,0-3.28a3.25,3.25,0,0,0-1.08-2.09,10.7,10.7,0,0,0-1.34-1.17c-1.76-1.47-3.74-2.62-5.62-3.93-.35-.24-.81,0-1.11-.33A.41.41,0,0,1,16.82,21.85Z"/><path class="cls-11" d="M0,41.29c.94-.23,1.39-1,1.92-1.7.9-1.21,1.76-1.15,2.4.16a5,5,0,0,0,2.13,2.36c.38.21,1.12.32.7,1.09,0,0,0,.2.05.19,1.37-.15,1.92,1.31,3.16,1.54a3.07,3.07,0,0,0,3.17-1,4.06,4.06,0,0,1,2.16-.84c1.23-.19,1.81-1.06,2.54-1.81a.38.38,0,0,1,.46-.07c0,1.09-1,1.62-1.42,2.47a2.49,2.49,0,0,1-1.43,1,4.62,4.62,0,0,1-5.93,1.49.56.56,0,0,0-.56,0c-2.85-1.44-4.64-3.9-6.24-6.64C3,40.68,2,41.14,1.28,41.83c-.28.29-.63.66-1,.52S.1,41.65,0,41.29Z"/><path class="cls-12" d="M0,15.14c1.55.08,3,.77,4.5,1a1.76,1.76,0,0,0,1.6-.42,2.06,2.06,0,0,1,2.3-.57c1,.33,2.22-.33,3.37,0-.28.35-1-.07-1,.52s.64.54,1,.69,1,0,1.47.29a1.57,1.57,0,0,1-1.58.25c-.42-.13-1-.85-1,.31,0,0-.21.18-.25.16-.92-.64-1.39.27-2.05.56-.2.09-.54.34-.62.06-.3-1.14-1.13-.75-1.89-.81a9,9,0,0,1-2.84-.59A5.42,5.42,0,0,0,0,16.81Z"/><path class="cls-13" d="M6.74,0A4.87,4.87,0,0,1,3.88,1.47a1.69,1.69,0,0,0-.9.26A5.47,5.47,0,0,1,0,2.66C0,0,0,0,2.6,0Z"/><path class="cls-14" d="M17.3,43.69c.06-1,1.05-1.55,1.44-2.4-.07-.85.58-1.12,1.17-1.31a2.14,2.14,0,0,0,1.59-1.89,1.89,1.89,0,0,1,1.56-1.73c.57-.14,1.34-.27,1.12-1.21-.1-.29-.17-.57.08-.82a.51.51,0,0,1,.24-.48c.57.5.75,1.26,1.27,1.82a1.28,1.28,0,0,1-.19,1.5,2.92,2.92,0,0,1-1.8.24c-.39,0-.79-.18-.81.29-.06,1.07-1.13,1.58-1.3,2.6-.1.56-1,.53-1.27.51-1.09-.11-1.31.69-1.71,1.32S18,43.41,17.3,43.69Z"/><path class="cls-15" d="M23.54,26.41A3.85,3.85,0,0,1,26,28.76c.27,1.35.75,2.93,0,4.37l-.71-.24c-.56-.07-.23-.3-.12-.54a4.64,4.64,0,0,0,.38-3.28c-.31-1-1.3-1.3-1.95-1.94A.5.5,0,0,1,23.54,26.41Z"/><path class="cls-16" d="M9.38,46.09a.47.47,0,0,1,.63-.15,4.61,4.61,0,0,0,5.65-1.33s.14,0,.21,0c-.57,1.68-3.1,2.78-5,2.14C10.38,46.61,9.89,46.32,9.38,46.09Z"/><path class="cls-17" d="M0,20.41c.27.23.8.29.72.75-.05.27-.45.2-.72.21Z"/><path class="cls-18" d="M21.14,13.69l.24-.24a.72.72,0,0,1,1,.11c.11,1.59,1.5.43,2,.91a.49.49,0,0,1-.25-.11.65.65,0,0,1-.21-.41A1.65,1.65,0,0,1,25,12.71c.15.76.58.82,1.13.42a2.41,2.41,0,0,1,1.71-.66c.6,0,.72-.53.92-1,.83-1.8,2.26-2.07,3.83-.83.65.52,1.05,1.29,1.73,1.68.16,0,.26-.13.23-.19a22.9,22.9,0,0,0-2.33-3.66c-.42-.48-.76-.39-1.28.07-1.55,1.37-2.86,3-4.54,4.24a.93.93,0,0,1-1.46-.17c.19-1,.44-2,.57-3a15.33,15.33,0,0,0,2.61-3.07c1.33-1.93,2.62-2.53,4.5-2A3.55,3.55,0,0,1,35,8a12.08,12.08,0,0,0,3.46,7.62c-.41.82-.51.66-1.35.29-1.8-.81-3.24-2.21-5.11-2.87-.58-.2-1-.22-1.16.51a1.41,1.41,0,0,1-1.42,1.08,1.86,1.86,0,0,0-1.66,1c-.39.71-.94.84-1.71.4s-1.87-1-2.72.2c-.31.44-.85.26-1.21,0a4.79,4.79,0,0,0-1.66-.59,1.7,1.7,0,0,1,.24-1C20.53,14.19,20.81,13.93,21.14,13.69Z"/><path class="cls-19" d="M20.42,15.61a1.12,1.12,0,0,1,1.43.09c.55.46,1.13,1,1.59-.22.24-.63,1.86-.57,2.59.14s1.18.48,1.53-.3a1.36,1.36,0,0,1,1.55-.93,1.33,1.33,0,0,0,1.55-1.27c.08-.61.14-.78.94-.53a9.41,9.41,0,0,1,3.84,2.3c.3.29.6.12.89.14.44,0,.76,0,1,.59.26.72.75.58,1.13,0l.48.48c.59.87,1.17,1.74,2.4,1.68.16.21.42.21.63.32a.8.8,0,0,1,.49.88.83.83,0,0,1-.85.7c-2.43.09-4.67-.28-6.16-2.52a1.79,1.79,0,0,0-1.74-.84c-.46.05-.8,0-.88.67s-.69.89-1.28.65a6.87,6.87,0,0,1-1.45-.5c-.79-.58-.93-.08-1.1.52-.45,1.54-.63,1.63-2,.82-.69-.39-1.53-.46-2.12-1.07-.28-.28-.59,0-.88.11-.84.33-1.65.43-2.24-.46a.75.75,0,0,0-.82-.35.85.85,0,0,1-.94-.37Z"/><path class="cls-10" d="M25,12.73l-1,1.21c-.62.32-1.1-.27-1.68-.25a1.7,1.7,0,0,0-1-.24l.48-1L25,9.86l.48-.24c.51,1.14,0,2.12-.48,3.11Z"/><path class="cls-20" d="M24.26,34.33c0,.26,0,.55.24.72a1.35,1.35,0,0,1-1.93.5c-.81-.62,0-1,.25-1.46l.24-.72c.2-.3,0-.37-.24-.48a3.33,3.33,0,0,1-1.57-1.24c-.93-1.29-1.93-.39-2.85-.09-.62.21-1.14.66-1.88.42-.34-.11-.63.19-.76.47-.42.88-1.31.77-2,1-.4.14-.43-.15-.56-.4a1,1,0,0,0-1.56-.4c-.85.56-1.44-.29-2.14-.5-.15,0,0-.36.15-.49a5.15,5.15,0,0,0,4.32-1c.48-.17.61-.67,1-1,.44.43.87.87,1.44.16,0,0,.08-.06.1-.05,1.17.74,1.84-.48,2.77-.71a2,2,0,0,1,1.67.34,3.26,3.26,0,0,0,1.23.56c1.68.41,2.27,1.45,2,3.27C24,33.69,23.92,34.05,24.26,34.33Z"/><path class="cls-20" d="M22.82,34.09c.36.45-.86.83-.07,1.26a1.4,1.4,0,0,0,1.75-.3c.46,1.22-.58,1.49-1.26,1.6a1.44,1.44,0,0,0-1.44,1.51,2,2,0,0,1-1.75,2.06,1.83,1.83,0,0,0-1.31,1.07h-.48c.39-1.92,2.19-2.72,3.24-4.12.39-.53.7-1.22.49-1.62C21.42,34.46,22.22,34.38,22.82,34.09Z"/><path class="cls-20" d="M22.82,32.89c.17,0,.47-.18.49-.14.18.29,0,.46-.25.62Z"/><path class="cls-21" d="M19.94,16.33c.34,0,.65.35,1,.06s.68-.07.92.33a1.27,1.27,0,0,0,2.1.39c.34-.26.75-.44.92-.15.59,1,1.84.79,2.6,1.49s1.1.35,1.08-.57a3.28,3.28,0,0,1,.56-1.43c.09-.18.45-.32.46-.23.12,1.18,1.38.38,1.81,1.07.23.38.63.21.95,0s.31-.51.1-.8-.2-.44.12-.56a2.76,2.76,0,0,1,3.26,1.41,3.79,3.79,0,0,0,1.53,1.28c1.17.77,2.55.61,3.86.78.38,0,.76.08.93-.33s-.12-.72-.55-.85c-.23-.07-.28-.25-.31-.46a.47.47,0,0,0,.48-.24,5.15,5.15,0,0,0,3.12-2.64,6.06,6.06,0,0,1,1,.25c.46.19.83.54.19.92-1,.58,0,1.5-.45,2.15,0,0,.13.18.22.23.26.14.85-.35.77.33-.05.36-.55.2-.85.19-.49,0-.85.26-.83.67s-.66,1.16.12,1.59c.5.27.48.51.15.91-.5.61-.92,1.3-1.46,1.88s-1.25.57-1.49-.31c-.12-.43-.38-.77-.51-1.19-.21-.67-.58-.84-1.14-.38s-.84.4-1.22-.09a.71.71,0,0,0-.83-.3,3.44,3.44,0,0,1-2.51-.39c-.39-.2-1.52-.17-.46-1.07.21-.18,0-.59-.16-.6-.56-.06-.64-.55-.93-.85s-.54-.48-.83-.22c-.46.4.2.33.28.52a.57.57,0,0,1,0,.66c-.17.18-.37.1-.53,0s-.06-.09-.08-.09a18.72,18.72,0,0,0-3.28.37c-.51.14-.47.91-.23,1.47s.43,1.28-.24,1.43c-.83.18-1.73,1.15-2.62.08-.18-.22-.42-.44-.21-.73s.44,0,.65,0c.38.12.74.28,1.11.42-.26-.76-2.37-2-3.09-1.8-.28.08-.64.34-.58.55.26.92.24,2.18,1,2.6a2.39,2.39,0,0,1,1.18,1.26,9.62,9.62,0,0,0,1.39,3c.55.61-.19,1.29-.84,1.7.58-1.43-.24-2.41-1.08-3.4-.67-.8-.92-2-2.06-2.36s-2-1.35-2.95-2c-.64-.44-1.44-.49-2.05-1.14A3.87,3.87,0,0,0,18,20.17a1.42,1.42,0,0,0-.2-.28c-.31-.3-1.14-.21-.93-.85S17,17.27,18,16.91C18.66,16.68,19.31,16.52,19.94,16.33Z"/><path class="cls-17" d="M16.82,21.85v.48a45.75,45.75,0,0,1-1.44,5.76l-.24.24a1.6,1.6,0,0,1-1.76-.24c-.55-.42-1.11-.84-1.63-1.3a1.09,1.09,0,0,1-.44-1.35c.26-.58-.18-.74-.64-1,.33-.25.88.14,1-.43,0-.18,0-.37-.17-.39-.52-.1-.85.33-1.23.56-.15.09-.1.72-.43.47-1.09-.83-2.23.25-3.31-.19-.84-.35-.89.73-1.57.92.11-1.2-.65-2.19-.36-3.35-.47,1.24-1.55.55-2.22.64-1.21.18.51-1.21-.68-1.42,1.53.46,3.1-.58,4.31.28,1.41,1,3.29.13,4.56,1.38a.54.54,0,0,0,.67,0c.84-.58,1.56-.07,2.09.39s.73.47,1.07-.07A.51.51,0,0,1,15,23c.94.3,1.16-.14,1.18-1C16.16,21.27,16.55,21.61,16.82,21.85Z"/><path class="cls-22" d="M21.14,13.69c0,.42-.34.63-.48,1-.72-.93-1.64.25-2.25-.12-1.24-.76-1.24.32-1.62,1-.74-1.52-2.17-.54-3.25-1.08a1,1,0,0,1,1.11-.53c1.93.17,3.75-.47,5.6-.81C20.83,13,21.08,13.13,21.14,13.69Z"/><path class="cls-17" d="M15.45,21.18c-.44.71-.67,1.14-1.23,1.09a.3.3,0,0,1-.21-.46C14.24,21.27,14.73,21.35,15.45,21.18Z"/><path class="cls-1" d="M42.19,6.29A.67.67,0,0,1,41.4,6a.24.24,0,0,1,.2-.34C42,5.69,42.11,5.94,42.19,6.29Z"/><path class="cls-23" d="M15.38,28.09a14.57,14.57,0,0,1,1.44-5.76,2.26,2.26,0,0,1,1.67.41c1.55,1,3.05,2.12,4.6,3.14a2.34,2.34,0,0,1,.45.53v.72c-1.15,0-1.3-1.27-2.13-1.68a3,3,0,0,1-.6-.54c-.57-.57-1.24-.3-1.88-.33,0,.6-.5,1.22-.2,1.77s0,.63-.22.89-.52.2-.9,0-1.12-.45-1.16.64C16.42,28.76,15.68,27.57,15.38,28.09Z"/><path class="cls-15" d="M25,12.73c.63.1,1.29.28,1.48-.64,0-.07.08-.19.13-.19,1.86-.17,1.95-2.57,3.67-2.94.16,0,.29-.26.39-.43.68-1.07.94-1.08,1.83-.18s1.33,2.57,2.45,3.56c.3.27,0,.62-.24.8a.65.65,0,0,1-1-.32c-.31-.81-1.06-1.16-1.6-1.7a1.87,1.87,0,0,0-3,.68c-.33.84-.48,1.83-1.83,1.39-.57-.19-.66.68-1.1.77a2.27,2.27,0,0,0-1.29.57c.05-.53.09-.95.12-1.37Z"/><path class="cls-24" d="M22.34,13.69c.67-.69,1.1.28,1.68.25.14.46.61.41,1,.61-.81.31-1.69-.2-2.38.47-.25.23-.51,0-.42-.39A7.11,7.11,0,0,0,22.34,13.69Z"/><path class="cls-25" d="M44.63,28.59a1,1,0,0,1,.12-1.72,1.11,1.11,0,0,1,1.51,0c.42.34.7.75.34,1.33s-.87,1.15-1.7.61c.07-.28.29-.44.5-.69A2.24,2.24,0,0,1,44.63,28.59Z"/><path class="cls-26" d="M51.73,12.37c-.09.47-.3.83-.84.85a.79.79,0,0,1-.92-.85.77.77,0,0,1,.8-.85C51.37,11.49,51.62,11.85,51.73,12.37Z"/><path class="cls-27" d="M9.41,47.6a.77.77,0,0,1-.81.84.82.82,0,0,1-.88-.9c0-.54.36-.77.87-.76A.75.75,0,0,1,9.41,47.6Z"/><path class="cls-28" d="M53.19,19.73c-.53-.14-.83-.45-.77-.94a.82.82,0,0,1,.89-.77c.54,0,1,.34.87.88S53.61,19.59,53.19,19.73Z"/><path class="cls-29" d="M23.69,40.11c-.19.8-.58,1.27-1.31,1.33-.33,0-.63-.35-.46-.51.42-.43.48-1.22,1.21-1.31A.48.48,0,0,1,23.69,40.11Z"/><path class="cls-30" d="M61.36,7.37A.75.75,0,0,1,62.55,7a.72.72,0,0,1,.39.91.88.88,0,0,1-.94.61c-.55-.06-.73-.42-.67-.93.15-.15.27,0,.4,0Z"/><path class="cls-31" d="M73.31,6.67c.29.66,0,1.1-.64,1.2s-1.06-.23-1-1C72.18,6.49,72.69,6.21,73.31,6.67Z"/><path class="cls-32" d="M10.81,43.53a.65.65,0,0,1-.76.6.59.59,0,0,1-.62-.7c0-.43.27-1,.71-.9S10.7,43.13,10.81,43.53Z"/><path class="cls-33" d="M22.07,45.41a.64.64,0,0,1-.67.68.64.64,0,0,1-.75-.7.61.61,0,0,1,.63-.7A.78.78,0,0,1,22.07,45.41Z"/><path class="cls-34" d="M35.53,31.53a.63.63,0,0,1-.68.66c-.41,0-.71-.19-.72-.6a.69.69,0,0,1,.73-.75A.71.71,0,0,1,35.53,31.53Z"/><path class="cls-35" d="M73.33,3.29a.72.72,0,0,1-.08,1.19.65.65,0,0,1-1-.07c-.39-.39-.46-.81.08-1.16A1.13,1.13,0,0,0,73.33,3.29Z"/><path class="cls-36" d="M98.16,18.49c.2.27.54.52.23.92a.82.82,0,0,1-.85.31c-.41-.07-.64-.3-.54-.75A.89.89,0,0,1,98.16,18.49Z"/><path class="cls-37" d="M34.23,45.11a.57.57,0,0,1-.56-.62.56.56,0,0,1,.62-.56.5.5,0,0,1,.55.6A.58.58,0,0,1,34.23,45.11Z"/><path class="cls-38" d="M62.74,16.08c.56,0,.56.5.66.84s-.21.42-.45.32-.83-.18-.81-.71C62.16,16.2,62.43,16.09,62.74,16.08Z"/><path class="cls-39" d="M28.84,46.09c-.38,0-.66-.18-.63-.56a.58.58,0,0,1,.65-.56c.39.05.45.38.5.71C29.43,46.18,29.06,46,28.84,46.09Z"/><path class="cls-40" d="M63.59,10c-.34-.08-.6-.27-.55-.65a.54.54,0,0,1,.68-.49.51.51,0,0,1,.48.57A.53.53,0,0,1,63.59,10Z"/><path class="cls-41" d="M46.77,17.62a.54.54,0,0,1-.49.58.54.54,0,1,1-.09-1.08A.6.6,0,0,1,46.77,17.62Z"/><path class="cls-42" d="M80,4.27c0,.34-.14.58-.45.61a.59.59,0,0,1-.69-.49.5.5,0,0,1,.46-.58A.54.54,0,0,1,80,4.27Z"/><path class="cls-43" d="M39.81,30a.69.69,0,0,1-.61.61c-.31,0-.5-.18-.52-.49a.51.51,0,0,1,.55-.6A.57.57,0,0,1,39.81,30Z"/><path class="cls-44" d="M18.71,44.64c-.17.59-.56.77-1,.43s-.34-.78.13-1.09A2.08,2.08,0,0,1,18.71,44.64Z"/><path class="cls-45" d="M40.64,26.41c.54-.89,1.07-.95,1.6,0-.17.75-.63.48-1.06.3A1.06,1.06,0,0,1,40.64,26.41Z"/><path class="cls-46" d="M87.56,15.42c-.32-.51,0-.82.4-1s.79-.1.88.44c-.14.23-.38.32-.57.49a.87.87,0,0,1-.27.14A.67.67,0,0,1,87.56,15.42Z"/><path class="cls-47" d="M41.3,26.41c.31.17.62.54.94,0-.14,1.14-.41,1.28-1.4.71C41.27,27.06,40.92,26.5,41.3,26.41Z"/><path class="cls-48" d="M47.86,24.26c-.31,0-.54-.12-.55-.47s.12-.38.37-.3.73-.13.71.38C48.39,24.12,48.14,24.27,47.86,24.26Z"/><path class="cls-49" d="M100.58,15.85c.38.33.24.62-.09.86a.47.47,0,0,1-.64-.06c-.25-.26-.35-.53,0-.79Z"/><path class="cls-50" d="M46.21,6.22a.41.41,0,0,1-.37-.49c0-.27.15-.44.44-.42s.51.23.45.54A.47.47,0,0,1,46.21,6.22Z"/><path class="cls-51" d="M40.86,37.72c0-.26.2-.44.47-.41a.44.44,0,0,1,.42.47c0,.3-.21.4-.47.39A.39.39,0,0,1,40.86,37.72Z"/><path class="cls-52" d="M27.81,35.46a.38.38,0,0,1-.43-.42.42.42,0,0,1,.42-.46c.33,0,.52.16.5.49S28.06,35.44,27.81,35.46Z"/><path class="cls-53" d="M89.18,3.39a.48.48,0,0,1-.5-.42c0-.35.27-.32.49-.31s.54,0,.51.31A.48.48,0,0,1,89.18,3.39Z"/><path class="cls-54" d="M33.07,41.59a.44.44,0,1,1,0,.87.34.34,0,0,1-.4-.34A.47.47,0,0,1,33.07,41.59Z"/><path class="cls-55" d="M46.81,36.09c.27,0,.45.2.41.48a.43.43,0,0,1-.51.38.36.36,0,0,1-.35-.4A.46.46,0,0,1,46.81,36.09Z"/><path class="cls-56" d="M44.63,28.59c.16-.66.74-.57,1.23-.67-.36.27-.43.83-1,.92Z"/><path class="cls-57" d="M73.31,6.67a3.45,3.45,0,0,0-1.62.24C72.11,6,72.63,5.8,73.31,6.67Z"/><path class="cls-58" d="M89,15.35a1,1,0,0,1,.19,1,.87.87,0,0,1-.74,0,.54.54,0,0,1-.23-.19c-.06-.23-.3-.42-.15-.7h0A.68.68,0,0,1,89,15.35Z"/><path class="cls-59" d="M88.82,16.78a.43.43,0,0,1-.22.06.22.22,0,0,1-.33,0,.77.77,0,0,1-.68-1c.37-.23.57,0,.75.27h0C88.49,16.32,88.91,16.37,88.82,16.78Z"/><path class="cls-60" d="M90,11.3c0,.24-.16.4-.37.41a.39.39,0,0,1-.44-.43.38.38,0,0,1,.36-.39A.4.4,0,0,1,90,11.3Z"/><path class="cls-61" d="M73.33,3.29c-.36.85-.66.47-1,0A.59.59,0,0,1,73.33,3.29Z"/><path class="cls-62" d="M28.12,37.45a.34.34,0,0,1,.3.32.34.34,0,0,1-.35.38.36.36,0,0,1-.41-.32C27.64,37.6,27.77,37.47,28.12,37.45Z"/><path class="cls-63" d="M41.3,26.41c-.26.17.31.88-.46.72a.57.57,0,0,1-.2-.72Z"/><path class="cls-64" d="M88,6.72c0,.2-.14.39-.38.35s-.3-.25-.28-.46.12-.32.3-.29A.39.39,0,0,1,88,6.72Z"/><path class="cls-65" d="M28.06,47.61a.33.33,0,0,1-.34.37.31.31,0,0,1-.34-.36.3.3,0,0,1,.27-.31A.34.34,0,0,1,28.06,47.61Z"/><path class="cls-66" d="M13.27,42.78c.22,0,.35,0,.4.21a.33.33,0,0,1-.63.22A.31.31,0,0,1,13.27,42.78Z"/><path class="cls-67" d="M36,42.24a.52.52,0,0,1-.81.14c-.25-.18,0-.41.13-.6C35.67,41.77,36.06,41.68,36,42.24Z"/><path class="cls-68" d="M25.12,39.58c-.16,0-.31-.08-.33-.28a.32.32,0,0,1,.33-.39.31.31,0,0,1,.33.39C25.43,39.5,25.29,39.55,25.12,39.58Z"/><path class="cls-69" d="M61.36,7.37c.45,0,.64.38,1,.53-.55.48-.73-.11-1-.27Z"/><path class="cls-70" d="M18.71,44.64A1.16,1.16,0,0,1,17.8,44C18.37,43.84,18.72,44,18.71,44.64Z"/><path class="cls-71" d="M69.71,6.62a.3.3,0,0,1-.23.36c-.24.08-.36-.08-.42-.28s.07-.3.23-.35S69.64,6.42,69.71,6.62Z"/><path class="cls-72" d="M98.16,18.49,97,19C97.13,18.21,97.5,18,98.16,18.49Z"/><path class="cls-73" d="M89,15.35l-.93,0c0-.5.39-.48.74-.48Z"/><path class="cls-74" d="M88.82,16.78c-.18-.22-.51-.33-.49-.69a1.28,1.28,0,0,1,.89.22A.52.52,0,0,1,88.82,16.78Z"/><path class="cls-75" d="M47.7,12.64a.25.25,0,0,1-.26.3c-.16,0-.32,0-.33-.24a.28.28,0,0,1,.26-.31A.29.29,0,0,1,47.7,12.64Z"/><path class="cls-74" d="M88.34,16.1l-.75-.27,0-.41.54-.05C88.26,15.59,88.6,15.74,88.34,16.1Z"/><path class="cls-76" d="M36,42.24l-.68-.46c.17-.33.41-.29.65-.1S36.27,42,36,42.24Z"/><path class="cls-77" d="M100.58,15.85c-.24.3-.48.32-.73,0C100.09,15.55,100.33,15.54,100.58,15.85Z"/><path class="cls-78" d="M88.27,16.85h.33c-.13.23,0,.76-.43.62S88.25,17.07,88.27,16.85Z"/><path class="cls-79" d="M90.62,2.72c.11.09.24.15.27.24s0,.26-.07.29-.3,0-.31-.18A1.25,1.25,0,0,1,90.62,2.72Z"/></g></g></svg>