<svg xmlns="http://www.w3.org/2000/svg" viewBox="0 0 101.25 61.88">
  <defs>
    <style>
      .cls-1{fill:#fce8f1}.cls-5{fill:#fbe9f2}.cls-12{fill:#fbeceb}.cls-13{fill:#fce0ed}.cls-19{fill:#fbf2f1}
    </style>
  </defs>
  <g id="Capa_2" data-name="Capa 2">
    <g id="Layer_1" data-name="Layer 1">
      <path d="M101.2 60.2c0 1.7 0 1.7-1.6 1.7H65c-.8-1.2-.6-2 .7-3.4-.3-.4-.7-.3-1-.2-.7 0-1.5.3-1.4-1 0-.3-.6-.4-1-.6s-1-.5-1-1 .4-1 .8-1.2a14.7 14.7 0 0 0 2.5-2.1 1.3 1.3 0 0 0 0-1.8c-1-1-1.3-2.3-2-3.5a1.7 1.7 0 0 1 .4-1.4c.3-.3.8-.5 1.1-.2 1 1.1 2.5 1.3 3.7 2.2.3.3.8.5.7 1.1-.5.4-.9-.2-1.3 0-1 .5-1.3 1-.7 2 .2.2.5.5.7 1 .7 1.2.5 2-1.1 2.6a6.8 6.8 0 0 1 3.5 1.5c.7.5 1.2.4 1.3-.5.1-1.8 1.3-2.6 2.6-3.4a13.7 13.7 0 0 0 2.7-2.1 5.5 5.5 0 0 1 2.7-1.7c.4 0 .6.2.6.6-.3.4-.8.5-1.1.9-1.5 1.4-1 3.3-1 5 0 .5.4.4.7.2a32.6 32.6 0 0 1 4.2-2 .9.9 0 0 1 1.1 0 1.3 1.3 0 0 0 1.8.3.8.8 0 0 1 .7 0c1.3.6 2.1-.2 3-1a1.7 1.7 0 0 1 1.6-.7c1 .3 1.3.7 1 1.6-.2.6 0 .8.5 1l.9.4c.7.3 1 .8.5 1.6-.3.7-.6 1.3-1.4 1.7s-.6.5 0 1.2a4.4 4.4 0 0 0 3 1.4 4.9 4.9 0 0 0 2.3 0c1-.2 2 .3 3-.7.2-.5.7 0 1 .5Z" class="cls-1"/>
      <path d="M46.8 40.5a4.2 4.2 0 0 1 2-2.2 1.6 1.6 0 0 0 .8-.7 43 43 0 0 1 3-4 5.5 5.5 0 0 1 4.6-2.3 15.9 15.9 0 0 0 8.6-2.5h.6c.3.5.2.6-.5 1.2-.2.1-.5.2-.4.5s.4.2.6.3h.6c1.5.2 1.5.3.9 1.7a12 12 0 0 0-.8 2.6c-.1.3 0 .6.5.6a3.3 3.3 0 0 0 3.4-1.4 29.6 29.6 0 0 1 3.6-3.4l2.2-1.8c.2-.2.5-.6 1-.3a5.5 5.5 0 0 1-.9 3.3 1.6 1.6 0 0 0-.2 1.6 1.7 1.7 0 0 1-.7 2.5c-1.2.8-1.4 2.3-2.4 3.2a.7.7 0 0 0 0 .7c.4 1-.2 1.1-1 1.2-1.1.1-2-.8-3.1-.4a.2.2 0 0 1-.2-.1c-.8-2.1-3.2-1.7-4.4-3.1a12.8 12.8 0 0 0-1.8-2.2c-.8-.9-2-.6-3-.2s-2.2.6-3 1.6c-.5.6-1.5.7-1.6 1.6 0 .4-.7.6-1.1.6a2.6 2.6 0 0 0-2 1.2 6.3 6.3 0 0 1-1.5 1.6.7.7 0 0 0-.2 1.1 1.2 1.2 0 0 1 .2.7c0 .6-1.3-.2-1 .7s-.3.8-.7 1.1a.5.5 0 0 0-.2.4c-.1 1.7-1.5 2.1-2.7 2.3a1.4 1.4 0 0 0-1.3 1l-.1.5c-.2 1-1.3.7-1.6 1.2s.3 1.4-.3 2a1.3 1.3 0 0 1-1.6.2c-.5-.6.3-1 .2-1.7-.1-.8.4-1.7 0-2.6a.5.5 0 0 1 .2-.6c1.2-.6 1.3-2 2.1-3 .1-.1 0 0 0 0 1.5-.8 1.7-2.6 2.8-3.6a1.7 1.7 0 0 0 .4-1Z" style="fill:#faf4f6"/>
      <path d="M101.2 15.8v18c-1-.1-1.6-1-2.2-1.6-1.6-1.6-2.9-3.5-4.5-5.1A10.1 10.1 0 0 0 93 26a7.2 7.2 0 0 0-7.2-2 2.4 2.4 0 0 1-1.3.1.5.5 0 0 1-.2-.2 5.4 5.4 0 0 1 2-3c1.4-1 1.8-2.6 2.8-3.8a9.4 9.4 0 0 1 2-2.3c.3-.1.4-.4.7-.4 1.5 0 2.4-1 3.5-1.8a2.5 2.5 0 0 1 3.6.4l.1.2a2.7 2.7 0 0 1 2.1 2.6Z" style="fill:#fbf0f0"/>
      <path d="M64.8 37.6a1.3 1.3 0 0 1 1 .6c.4.3.8.7 1.2.6 1.2-.4 1.5.4 1.9 1.3.1.4.4.7 1 .4a1 1 0 0 1 1.1.2c.7.6 1.5.2 2.4.3a1.8 1.8 0 0 1 .4-2.7c.2-.2.6-.4.5-.7 0-1 .7-1.2 1.2-1.5a1.5 1.5 0 0 0 .6-2.4 1.2 1.2 0 0 1 .1-1.3 11.1 11.1 0 0 0 1.3-3.6c-.2-.8.7-1 1-1.5h.2a1.4 1.4 0 0 1 .1 1.4c-.4 1.2-.5 2.6-1 3.8-.1.3-.2.6 0 .8s.5-.2.6-.4a.5.5 0 0 1 .7 0 .7.7 0 0 1 .2 1c-.3.4-.7.9-.3 1.5s.6 1.5 1.5 1.8a3.9 3.9 0 0 1 1.2 1 27.6 27.6 0 0 0 3.9 3 8.7 8.7 0 0 0 .8 1c1.1 1 1.2 2.2 0 3a9.4 9.4 0 0 1-3.4 1.5 1.5 1.5 0 0 1-1.8-.7 1 1 0 0 0-1.6 0c-.2.4-.2 1-.8.9a1.5 1.5 0 0 1-1.2-1c-.2-.8-.5-1.2-1.3-1s-1.4.1-1.7 1c-.2.8-.7 1.1-1.4.5-.6-.5-1.4-.3-2-.9-.2-.2-.4.2-.6.4a2.6 2.6 0 0 1-1 .9A2.6 2.6 0 0 1 66 45c-.3-1.1-.9-1.4-2-1-.2 0-.5.1-.6-.2a5 5 0 0 1-.1-2.4c.2-.9 0-1.8.5-2.6.3-.5.5-1 1-1.2Z" style="fill:#fbf0f5"/>
      <path d="M85.4 41.2c-.6 0-1.1 0-1.4-.7-.1-.6-1-.7-1.4-1-1-.7-1.6-2-2.9-2.4-.9-.4-1.1-1.6-1.4-2.5-.2-.5.3-.6.6-.8a.5.5 0 0 0 .2-.6c0-.1-.2-.3-.4-.3-.3 0-.2.3-.3.5s-.3.7-.6.4-.9-.6-.6-1.3a20 20 0 0 0 1.5-5.2c.4.3 1.1 0 1.4.7a6.6 6.6 0 0 0-.5 4.3 5.2 5.2 0 0 0 2.5 3.3 6.3 6.3 0 0 1 .7.4c1.1 2 3.1 2.8 4.8 4.3-.3-1.7 0-2 1.5-1.6.2 0 .4.2.5 0 .9-.8 1.5-.6 2 .3a.4.4 0 0 0 .4.2c1.4-.3 2.4.9 3.6 1a2.9 2.9 0 0 1 1.6.6c1.2 1 2.7 1 4 1.6v5.2c-1.8-.5-3.8-.6-5.5-1.6a.7.7 0 0 0-.9 0c-.7.5-1.6.2-2.4.6-.3.2-.6-.3-1.2-.3 1.3.5 1.4.8.9 1.7a15 15 0 0 1 4.6.5c-.3 1-1 1.5-1.8 1.2-1.2-.4-2.4-.1-3.5-.6-.4-.2-.8 0-1.1.3s-.7.6-1.2.4c-.2-.2-.4-.4-.4-.7 0-.2.2-.4-.1-.4a2.6 2.6 0 0 1-1.5-.5c-.3-.4-.6-.3-.8.1a.9.9 0 0 1-1.4.3l-.3-.2c-1.3.5-2.3-.6-3.5-.7-.6-.2-1.1.4-1.7.1a1.8 1.8 0 0 0-1.7.2 4 4 0 0 1-1.6.2.4.4 0 0 1-.2-.2 3.2 3.2 0 0 1-.2-1.5c.2-.7.6-.9 1.2-.5l1.4.6a.9.9 0 0 0 1.3-.1 1.2 1.2 0 0 1 1.9-.1c.6.6 1.6.2 2.2.8.2.2.4-.2.5-.4s2.8-1 3-1c.5 0 .6.5.4 1.2a4.3 4.3 0 0 0-2.2-5.8Z" class="cls-1"/>
      <path d="M89.2 49.6c.5.2.7-.3 1-.5.6-.4 1-.6 1.6-.1.2.1.5.3.7.2 1.3-.8 3 1.5 4.1-.5 1.3-1.5 3.2-1.4 4.6.2V52c-.6.3-1 1-1.8.8l-.2.1c-.1 1.5-1.8 1.3-2.5 2a5.3 5.3 0 0 1-2 1.6c-.4.2-.4.7-.5 1.2a4.5 4.5 0 0 1-.2 1.6c2 0 3.6-1.6 5.6-1.9.5 0 1-.5 1.6 0v2.8c-.7-.6-1.3-.6-1.7.3-.2.3-.5.6-.8.3-.6-.6-1.3-.2-1.9 0-1.5.3-2.9-.4-4.3-.7a.4.4 0 0 1-.3-.4c0-.8-.4-.7-1-.7s-.6-.2-.3-.6.5-1.1 1.3-1.1c.3 0 .4-.3.6-.5.7-1.7.7-1.8-1.3-2.6-.7-.3-1-.5-.4-1.2a.7.7 0 0 0 0-1c-.4-.2-1-.5-1.5-.2l-.9.9c-.8.7-1.6 1.6-2.9.7a.5.5 0 0 0-.4 0A1.4 1.4 0 0 1 83 53a.5.5 0 0 0-.4-.1c-.6.8-1.8.6-2.6 1.2s-1.5.7-2.2 1.3a.7.7 0 0 1-.9-.2c-.2-.2-.1-.5 0-.8a8.7 8.7 0 0 0 .2-2.1 3.5 3.5 0 0 1 2.3-3.6c.5.3 1-.2 1.4-.1a1.8 1.8 0 0 1 1 .5 1.2 1.2 0 0 1 .2.3c.1.3.2.8.7.7 1.4-.4 2.9.1 4.3-.7.6-.4 1.5 0 2.2.2Z" class="cls-5"/>
      <path d="M59.7 61.9H46.5a7 7 0 0 0-2.4-2.1c-.9-.4-.7-1.4-.8-2.1 2.4-1.7 4.8-3.5 7.7-4 1-.1 2.1 0 3.2 0a2.4 2.4 0 0 0 1-.1c2-.4 4-.9 5.5-2.5a.9.9 0 0 1 .6-.3c.7.3.9.8.8 1.4a1.3 1.3 0 0 1-1.1 1.3 2 2 0 0 0-1.6 1.5c-.1.6-.5.7-1 .5a1.6 1.6 0 0 0-2 .4 1.4 1.4 0 0 1-1.6.3 1.7 1.7 0 0 0-2.4.9 1.8 1.8 0 0 1-1.1.8 4 4 0 0 0 2-.3 2.8 2.8 0 0 1 2.2 0c1 .4 2.2.2 3.2.8 1.2.8 1.4 1.2.5 2.5-.2.3 0 .2.1.3s.6.3.4.7Z" style="fill:#fbeef4"/>
      <path d="M43.4 57.8a1 1 0 0 1 .4.8c0 .7.2 1 .8 1.2a2.7 2.7 0 0 1 2 2h-13c-.8 0-1 0-.6-1a57.2 57.2 0 0 1 7.6-12.7c1.2-1.4 2.6-2.8 3.7-4.3l2.5-3.3c.5.7 0 1-.4 1.4-.5.6-1.3 1-.9 2 .1.4-.2.5-.5.6-1.1.5-2 1.2-1.9 2.6 0 .5-.5.5-.8.7a1.3 1.3 0 0 0-.7 1.6A4.4 4.4 0 0 1 41 53c.6 1.3.6 1.3-.7 2.1-.6.4-1.5 3.4-1.2 4s.7.3 1 .2a21.3 21.3 0 0 0 1.9-1c.4-.3.8-.7 1.4-.5Z" style="fill:#fbf2f5"/>
      <path d="M101.2 35v6c-.2.2-.5.2-.7.3s-.5.7-1 .4a1 1 0 0 1-.2-1 5.4 5.4 0 0 0-.2-2.4.9.9 0 0 1-1 .4 40 40 0 0 1-4.5-.8c-.5-.2-.8-.4-.6-.8.4-1.1-.3-1.7-.8-2.4-1.2-1.7-2.7-1.7-4.4-1.4a2 2 0 0 0-1.7 1.8c-.1.8-.6 1-1.3 1-.4 0-.6 0-.7-.5-.3-1.5-.7-1.7-2.1-1.3a1.5 1.5 0 0 1-.6.1c-.9-.4-1.8-1-1.9-1.9a6 6 0 0 1 .8-3.7l.5-.8c.1-.3.6-.7.5-1.2a4.5 4.5 0 0 0-.3-1.2c-.2-1 0-1.3 1.1-1.3a.7.7 0 0 1 .3.2 15.3 15.3 0 0 1-.2 3.3 1.5 1.5 0 0 0 .5 1.4 3.2 3.2 0 0 1 .7.8 3 3 0 0 0 3.7 1 7.2 7.2 0 0 1 6-.2c1.3.5 2.1.9 2.6 2.2.3 1 1.6 1.5 2.2 2.5.3.4 1-.1 1.5-.3s1.1-.7 1.8-.2Z" class="cls-1"/>
      <path d="M81.3 34.3a5.4 5.4 0 0 1 1.2-.5c1.5-.2 2 .3 1.9 2.1.7-.1 1.4 0 1.5-1.1s1.1-1.7 2.2-2a5.1 5.1 0 0 1 5.4 3c.3.6-.6 1.3-.1 1.7s1.2-.1 1.7.4a1 1 0 0 0 1.4.2 2.2 2.2 0 0 1 .3 0c.7-.4 1 .5 1.7.4s.2-1.3 1.1-1c-.3 1.4.4 2.7 0 4.1a1 1 0 0 1 1.6-.6v1.4a7.4 7.4 0 0 1-4.4-1.4 2.4 2.4 0 0 0-1.6-.5c-.5 0-1 0-1.2-.6-.1-.4-.5-.4-.8-.3-1 .4-1.8.2-2.2-1-.2-.4-.5-.2-.7 0-.5.8-1 .9-1.6.3-.3-.3-.6-.2-.8 0s-.3.5 0 .8a.7.7 0 0 1 0 1c-1.3-.6-2.2-1.8-3.4-2.5a3.2 3.2 0 0 1-1.7-2c-.6-.6-1.5-1-1.5-2Z" style="fill:#fce4ef"/>
      <path d="M59.7 61.9c-.2-.7-1-.6-1.3-1.1.3-.5 1 .2 1.2-.4.1-.4 0-1-.2-1.2a4.8 4.8 0 0 0-2.4-1.1h-.5c-1.6-1-3.2-.2-4.8 0-.4.1-1 0-1-.3 0-.6.5-.2.8-.3a1.1 1.1 0 0 0 .7-.6c.8-1.3 1.3-1.4 2.7-1 .4.2.9.4 1.4-.3a1.9 1.9 0 0 1 2.8-.1c-.2-1.5.9-1.9 1.6-2.3 1.2-.7 1.4-1.2.7-2.4.5-1.1.3-2.6 1.4-3.6 1 1 1.1 2.6 2.2 3.5a1.4 1.4 0 0 1-.5 2.2c-1 .5-1.8 1.6-2.8 2.2-.4.3-.3.8.2 1l1.3.7c.5.2 1.2.4.2 1.1.8.3 1.6-.2 2.3.1.2.1.6 0 .6.3s-.2.5-.3.6c-1.3.7-1.3 1.8-1 3Z" class="cls-5"/>
      <path d="M101.2 35c-1-.1-1.6.9-2.5.9-.4 0-1.5.8-1.2-.7l-.1-.3c-1 .2-1-.8-1.3-1-.9-.4-1-1-1.1-1.8-.2-.5-.2-1-1-.6s-1.2-.7-1.9-.7c-1-.1-2-.6-3 .1-.2.2-.4.3-.7 0s-.6 0-.8.2c-1.1.8-3.1 1-3.9-.1s-2.4-1.7-1.7-3.7a9.9 9.9 0 0 0 .2-2.9 2.3 2.3 0 0 1 2.2-.4 2.5 2.5 0 0 1-.7 3 .6.6 0 0 0 0 1l.2.4c1.3 1.5 1.3 1.5 3 .6a3.6 3.6 0 0 1 2.1-.7.6.6 0 0 0 .6-.2c.9-1.3 2.5-1.5 3.7-2.3a10 10 0 0 1 3 2.9 33 33 0 0 0 4.9 5Z" style="fill:#fbebf2"/>
      <path d="M78.4 27.3c.1.8-.6 1-1 1.4L71.2 34c-.5 2.2-2.3 1.8-3.8 2-.9.2-1.2-.3-1-.9.6-1 .3-2.4 1.4-3.3.5-.4 0-.6-.4-.7a13 13 0 0 0-1.6 0c-.5 0-.7-.2-.8-.6s0-.7.5-.7c.8 0 .9-.5 1-1 1.3-.5 3-.5 4.1-1.5a2.5 2.5 0 0 1 3.1.2 2.7 2.7 0 0 0 2.4.4l2.3-.6Z" style="fill:#faf5f8"/>
      <path d="M101.2 57.3c-1.1.3-2.6.3-3.3 1-1.3 1.2-3 .7-4.4 1.6a8.2 8.2 0 0 0 .4-2c0-1 .3-2 1.7-2h.3c.2-1.7 1.9-1.4 2.8-2.1.1-.1.3-.2.2-.3-.5-1.1-.4-1.4.8-.7.3.1.5-.2.6-.4.3-.4.5-.5 1-.3Z" style="fill:#fbedf3"/>
      <path d="m84.4 24-2.1.5c-.1-.6.3-.8.7-1a2 2 0 0 0 1.4-1.4c.5-1.1 1-2.3 2.3-2.8.1 0-.3-.1-.3-.3a3.6 3.6 0 0 0 2.4-2.4 5.6 5.6 0 0 1 1.9-2 10.4 10.4 0 0 0 1.6-1.6c.7-1.2 2-1.5 3-2a4 4 0 0 1 4 .3 3 3 0 0 1 1.9 3.3v1.3c-.3 0-.8-.3-.6-.5.6-1.2-.5-1-1-1.4s-1-.4-1.1-1-1.9-.7-2.5-.3L94.5 14a5.3 5.3 0 0 1-2.3 1c-1.2.2-2 1.4-2.8 2.5-1 1.4-1.7 3.2-3.4 4.3-.8.4-1 1.5-1.6 2.3Z" class="cls-12"/>
      <path d="m101.2 49-1.8-1c-1-.4-1.9.2-2.7.7-1.8.2-3.4-.5-5.4-.4.6-.5 1.4-.6.7-1.4-.5-.5-1.2 0-1.5-.6.2-.4.5-.2.7-.2.6 0 1.3.9 1.8-.2 1 .5 1.7-.1 2.4-.5a.4.4 0 0 1 .4 0c.5 1.8 2.1.8 3.2 1.3a7 7 0 0 0 2.2 1Z" class="cls-13"/>
      <path d="M86.3 19h1l-.5.5a2.9 2.9 0 0 0-2 2.3c-.3 1-.7 1.8-2 2-.2 0-.4.4-.6.7-1-.1-1.3.2-1 1.2.2.3.6.8 0 1.2a4 4 0 0 1-.8-1.7c-.5-1.1.6-2.3 2-2 .8.1.9-.3 1.2-.8 1-1.3 1.3-2.8 2.8-3.5Z" style="fill:#fce2e1"/>
      <path d="M81.3 34.3a11.7 11.7 0 0 1 1.5 1.9 3.1 3.1 0 0 1-2.1-1.3C79 33 78.9 31 79.5 28.8c0-.3.1-.8.6-.8h.7a.3.3 0 0 1 .1.5 5.6 5.6 0 0 0-1.1 3.5 1.4 1.4 0 0 0 .8 1.5 2 2 0 0 1 .7.8Z" class="cls-13"/>
      <path d="M99.3 11.2a.4.4 0 0 1-.7.1c-1.2-1-2.3-.6-3.5 0a26.2 26.2 0 0 0-2.8 1.6c1.4-2.6 5-3.5 7-1.7Z" style="fill:#fce5e4"/>
      <path d="M62.8 47.2a8.7 8.7 0 0 0-.7 2.5 1.8 1.8 0 0 1-.7 1.1 9 9 0 0 1-6.2 3 .9.9 0 0 0-.8.1h-3.6c-.3-.5 0-1 .5-1 1 0 2-.7 3.2-.5.1 0 0 0 0 0 1.3 0 1.2-1.6 2.5-1.8 1.4-.2.8-1.5 1-2.4.1-1.2 0-2.5.8-3.6.5-.7.2-1.7.2-2.5 0-1 .2-1.5 1.3-1.5a3.3 3.3 0 0 0 2-.8.5.5 0 0 1 .7 0 .4.4 0 0 1 .1.6c-.2.3-.4.6.3.5l.2.4v2.6a2 2 0 0 1-.5 2 4.2 4.2 0 0 0-.3 1.3Z" style="fill:#faeeee"/>
      <path d="M63 45.8c.4-.6.1-1.3.6-2 1.5-1 2-.6 2.7 1.1a6 6 0 0 0 1.7 2c.3.3 2.2-.7 2.5-1.3.3-.8.7-1.2 1.3-.2a.5.5 0 0 0 .7.3c.2-.1.5-.2.6 0 1.3 1.7 1.3.1 1.5-.5s.5-1 1-.7c.5.1.8-.2 1.2-.1.6 0 1 .1 1 .9-.2.5.3.7.6 1s.3.5.7.4 0-.4 0-.7c0-.6.5-.7 1-.7s1-.5 1.4.2c.7 1.1 1.7 1.4 2.6.5a2.7 2.7 0 0 1 1.5-.7c1-.1 1-1 1.3-1.7.2-.4-.3-.8-.8-1a1.2 1.2 0 0 1-.7-1.3 2.3 2.3 0 0 1 2.5 2 1.4 1.4 0 0 0 .2 1 2.6 2.6 0 0 1-.2 3c0 .1-.1.4-.5.2s-.3-.3-.1-.5.4-.6 0-.8a.8.8 0 0 0-1.1.2c-.5.9-1 .7-1.6.3-.3.6 0 2-1.4.7-.6-.6-1.8-.5-2.5-1a.6.6 0 0 0-.6.1c-1.1 1.3-2.2.6-3.2-.1-.4-.3-.7-.5-.9.2a1.1 1.1 0 0 0-.3.7c0 1-.6 1.3-1.5 1-1-.4-1.6 0-2 1-.9 1.4-1 1.4-2.4.6a7.7 7.7 0 0 0-1.2-.5c-.2 0-.3-.2-.2-.4-.4-1.4-1.8-1.4-2.7-2-.5-.3-1.2-.3-1.5-1-.2-.6-.7-.4-1.1-.2Z" class="cls-5"/>
      <path d="M76 48.2a3.1 3.1 0 0 1 1.7-.2 1 1 0 0 1 1-.2c.1 0 .3.2.2.4-.8 1-2.2 1.3-3 2.5-.4.7-1.4 1-2.1 1.4-1.3.8-2.6 1.5-2.7 3.4 0 1.2-.7 1.4-1.7.7s-2-1.8-3.5-1.4l-.4-.2c0-.4.3-.6.5-.8.5-.2 1.5.3 1.2-1a3.5 3.5 0 0 0-.8-1.5c-1.2-1.4-.9-2.5.7-2.8.9.7 2 1 2.4 2.4.3.9 1.9 1 2.5.3 1-1.2 2-2.4 3.6-2.6l.4-.4Z" style="fill:#fce1ee"/>
      <path d="M76 48.2c0 .4.2.9-.7.8-1.2 0-2 .9-2.6 1.8a2 2 0 0 1-2.6 1l-.6-.4c-.3-1.4-1.6-2-2.4-3 .5-.1.8.3 1.2.5l.3.2a4 4 0 0 1 1.7 1.1c.5.5 1 .6 1.4-.1.2-.4.6-.6.7-1a1.2 1.2 0 0 1 1.8-.8c.7.4 1.2-.5 1.8-.1Z" class="cls-1"/>
      <path d="m79 48.2-.3-.2c0-.6.4-.3.7-.2a1.4 1.4 0 0 0 1-.4c.4-.3.6 0 .7.4v.1a1 1 0 0 1-.3.8c-.5.2-1 .6-1.4 0a.8.8 0 0 0-.5-.5Z" style="fill:#faf3f7"/>
      <path d="M63.5 41.2c-.2-.3-.6-.1-1-.3 0-.4.5-.5.4-1h-.2a3.4 3.4 0 0 1-2.8 1c-.8 0-.7.4-.7.8s.4.8 0 1c-.7.7 1 1.6-.4 2.2-.8.4-.2 1.6-.5 2.4s.2 1.7-.1 2.5c-.2.6-.2 1.4-1.2 1.1a.9.9 0 0 0-1 .8 1 1 0 0 1-1.5 1c-1.2-.4-2.1.8-3.3.5-.4 0-.3.4-.4.8-2.8.6-5 2.4-7.4 3.8a17.8 17.8 0 0 0-2.4 1.4c-.7.5-1.4.8-2 .4s-.3-1.4-.2-2 .7-1.2.6-2a.6.6 0 0 1 .4-.5A1.6 1.6 0 0 0 41 53c1.7 0 1.7 0 1.4-1.7 0-.6 0-1 .7-1 .9.2 1.1-.4 1.3-1 .1-1 .6-1.6 1.6-1.3.7.1 1-.6 1.7-.8.8-.2.8-.9.5-1.5 0-.2.2-.4.3-.5 1-.6 1-.6.4-1.4.4-.4 1 0 1.5-.1-.8-1.2-.8-1.4.5-2.3.6-.4.8-1.2 1.4-1.8a2.5 2.5 0 0 1 1.7-.8c.7 0 1.5-.3 1.1-1.3-.2-.5.3-.3.5-.4.6-.2 1.4-.2 1.6-1.1a.6.6 0 0 1 .4-.4c1.6-.2 3.1-1.3 4.8-.8h.5c.3 1.2 1.7 1.6 1.8 2.8a10.3 10.3 0 0 0-1.2 3.6ZM53.5 37.6l-.4.2-.2-.1.3-.2.3.1Z" class="cls-19"/>
      <path d="M93.3 25.9a2.1 2.1 0 0 1-1.5 1.1 2.8 2.8 0 0 0-1.9 1.3c-.1.3-.3.5-.5.4-1.4-.2-2.4.7-3.5 1.3-.3.1-.6.3-.8 0a52 52 0 0 1-2.3-2.4c0-.1 0-.4.2-.5 1.5-.6 1.2-2 1.4-3.2 1.4 0 2.7-.6 4-.5a6.7 6.7 0 0 1 4.9 2.5Z" style="fill:#fbeff5"/>
      <path d="M98 13.4c0 .2-.2.4-.3.3a.3.3 0 0 1-.2-.2.3.3 0 0 1 .3-.3l.2.3Z" class="cls-12"/>
      <path d="M81 47.7a.9.9 0 0 1 1 0c.9.5 1.7 1 2.6.3h.1c1.2 1.5 1.4 0 2-.7.6 1.2 1.7 1.2 3 1.2a1 1 0 0 1-1 .7c-2 0-3.8.5-5.8.5-.4 0-.9 0-1.1-.5s-1.2-.6-.7-1.5Z" class="cls-13"/>
      <path d="M76 48.2a3 3 0 0 1-2.5.3c-.3-.1-.6 0-.6.3 0 .9-1 1.2-1.3 2s-1.1.2-1.4-.2a7.5 7.5 0 0 0-1.6-1.5 2.5 2.5 0 0 1 1.8.7c.6.5 1 .3 1.2-.3 1-1.9 1-1.9 2.9-1.5.6.2.9-.1 1-.6s0-.8.5-.9ZM81.8 49.1a13.8 13.8 0 0 0 4.8-.1 4.4 4.4 0 0 1 2.1.1l.5.5a8 8 0 0 0-4 .6c-1 .3-1.9-.2-3 .2-.5.3-.3-.8-.4-1.3Z" class="cls-1"/>
      <path d="M79.4 47.7c-.3 0-.6 0-.7.2h-1c.5-.8 1-.5 1.7-.2Z" class="cls-5"/>
      <path d="M81 47.7c-.1.7.8.8.8 1.4l-1-.4c0-.4 0-.7.3-1Z" class="cls-1"/>
      <path d="M54.4 54c.2-.2.3-.9.8-.2-.2.2-.5.1-.8.2Z" class="cls-19"/>
      <path d="M93.7 38.4a.7.7 0 0 1-.6.6.3.3 0 0 1-.4-.3c0-.3.1-.6.4-.7s.5.2.6.4ZM58.4 56.7c-.2.4-.5.4-.8.4s-.5-.1-.4-.3a.7.7 0 0 1 .6-.6c.3 0 .5.3.6.5Z" class="cls-1"/>
      <path d="M91.5 52c-.8 0-1.2-.4-1.2-1a1 1 0 0 1 1.2-1 .9.9 0 0 1 .9 1c0 .7-.4 1-.9 1Z" style="fill:#dfcc50"/>
      <path d="M95.7 44.5c-.5 0-1-.3-1-1s.3-.9 1-.9 1.1.2 1.2 1-.6.7-1.2 1Z" style="fill:#eadd63"/>
      <path d="M77 16.9c.5 0 .8.3.8 1a1 1 0 1 1-1.8 0 1 1 0 0 1 1-1Z" style="fill:#e1d15c"/>
      <path d="M91.5 25.7c-.5 0-.9-.3-.9-.9a.8.8 0 0 1 .8-.9c.5 0 1 .2 1 .8a.8.8 0 0 1-.9 1Z" style="fill:#e3d457"/>
      <path d="M31.3 50.9c-.5-.1-.9-.4-.9-1a.8.8 0 0 1 1-.8.8.8 0 0 1 .7.9.8.8 0 0 1-.8.9Z" style="fill:#dbc755"/>
      <path d="M57.4 23a.8.8 0 0 1-.8.8.7.7 0 0 1-1-.7.8.8 0 0 1 1-1c.4 0 .7.3.8.9Z" style="fill:#af8b22"/>
      <path d="M91.4 45.8a.9.9 0 0 1 .8-1 .9.9 0 0 1 1 .7 4.4 4.4 0 0 1-.5.8c-.8.8-1 0-1.3-.5Z" style="fill:#e3d154"/>
      <path d="M80.8 26.6a.7.7 0 0 1-.7.7.6.6 0 0 1-.7-.6.7.7 0 0 1 .6-.8.7.7 0 0 1 .8.7Z" style="fill:#b19326"/>
      <path d="M41.7 44.8c0 .4 0 .9-.4 1a.8.8 0 0 1-1-.3.7.7 0 0 1 .2-1.1c.6-.4.9.2 1.2.4Z" style="fill:#bca235"/>
      <path d="M47 41.2c-.4-.5-.2-.9.3-1.1a.7.7 0 0 1 1 .2c.3.4.3.9-.3 1.1a3.2 3.2 0 0 0-1-.2Z" style="fill:#dccb5b"/>
      <path d="M45.6 57a.7.7 0 0 1-.5-1 .8.8 0 0 1 .8-.6c.5 0 .8.2.9.7a12.9 12.9 0 0 1-1.2.9Z" style="fill:#d9c751"/>
      <path d="M63.4 11.8a.7.7 0 0 1 .7.7.6.6 0 0 1-.7.6.6.6 0 0 1-.6-.6.7.7 0 0 1 .6-.8Z" style="fill:#e2d063"/>
      <path d="M90.4 47.3c.9.6.4 1.1-.2 1.7-.7 0-1-.6-1-1.2.3-.5.8-.5 1.2-.5Z" style="fill:#d3bb46"/>
      <path d="M51.6 31.9a.6.6 0 0 1 .6.6.6.6 0 0 1-.6.6.6.6 0 0 1-.7-.7c0-.4.3-.5.7-.5Z" style="fill:#e0d268"/>
      <path d="M85.2 25.4a.8.8 0 0 1 0-1.5c.7-.4 1 0 1.4.5a4.3 4.3 0 0 1-1.4 1Z" style="fill:#dbc851"/>
      <path d="m89.2 47.7 1 1.3a.8.8 0 0 1-1.2-.3 1 1 0 0 1 .2-1.5.3.3 0 0 1 0 .5Z" style="fill:#dac655"/>
      <path d="M7.2 50c.4 0 .6.3.6.6a.6.6 0 0 1-.7.6.5.5 0 0 1-.5-.6.6.6 0 0 1 .6-.6Z" style="fill:#e5d970"/>
      <path d="M43 60c-.5 0-.8-.2-.8-.6a.6.6 0 0 1 1.2 0 .6.6 0 0 1-.5.6Z" style="fill:#d7c458"/>
      <path d="M81.4 10.1a.6.6 0 0 1-.6-.6.5.5 0 0 1 .5-.5.5.5 0 0 1 .6.6c0 .3-.3.5-.5.5Z" style="fill:#e2d775"/>
      <path d="M.6 46c-.4 0-.6-.2-.6-.6a.5.5 0 0 1 .5-.5c.4 0 .7.2.6.6a.6.6 0 0 1-.5.5Z" style="fill:#dcd174"/>
      <path d="M85.2 25.4c.2-.7.8-.8 1.4-1 .3.4 0 .7-.3 1a1.3 1.3 0 0 0-.7.2.4.4 0 0 1-.4-.2Z" style="fill:#cbb33f"/>
      <path d="M81 11.6c.3 0 .6.2.6.5a.5.5 0 0 1-.6.6.5.5 0 0 1-.5-.6.5.5 0 0 1 .5-.5Z" style="fill:#e6da6f"/>
      <path d="M68.8 25.4c-.2.2-.5.6-.8.2a.6.6 0 0 1 0-.7.5.5 0 0 1 .9 0 .4.4 0 0 1 0 .5Z" style="fill:#d8c85c"/>
      <path d="M91.4 45.8c.4-.2.6 1.2 1.2.2.2.3.5-.1.7 0-.1.7-.6.8-1.1.8a.8.8 0 0 1-.8-1Z" style="fill:#dcc856"/>
      <path d="M64.8 17c0-.4-.6-.7 0-1.2a.4.4 0 0 1 .5.1c.4.5-.2.8-.5 1.2Z" style="fill:#cfbc65"/>
      <path d="M74.5 26.8c0 .7-.6.6-1 .4s-.5-.5-.1-.9c.5-.2.8.2 1.1.5Z" style="fill:#b69a3b"/>
      <path d="M45.6 57c.2-.5.4-1 1.1-1 .1 1-.3 1.2-1.1 1Z" style="fill:#cab136"/>
      <path d="M1.4 55.8c0 .3-.2.5-.5.4a.5.5 0 0 1-.4-.6.5.5 0 0 1 .5-.4c.3 0 .4.3.4.6Z" style="fill:#c2ad4b"/>
      <path d="M90.2 53c0 .4-.1.6-.4.6s-.6-.2-.5-.5a.5.5 0 0 1 .4-.5c.3 0 .5.2.5.5Z" style="fill:#dbcd62"/>
      <path d="M89.5 20.6c-1.1 0-1.2-.2-.8-1.3.5.3 1 .6.8 1.3Z" style="fill:#c5ae45"/>
      <path d="M74.3 24.5c.2.2.6.3.3.7a.7.7 0 0 1-.6.4.6.6 0 0 1-.6-.7c.3 0 .5-.5.9-.4Z" style="fill:#c3af4a"/>
      <path d="M98.7.7c.1-.5.4-1 1-.5.4.3.4.7-.1 1a6 6 0 0 1-1-.5Z" style="fill:#d2c56a"/>
      <path d="M49.8 43.2c0 .3-.1.4-.4.5s-.5-.1-.5-.4a.5.5 0 0 1 .4-.5c.3 0 .5.1.5.4Z" style="fill:#d8c76a"/>
      <path d="M96.7 38a.4.4 0 0 1-.5.4c-.2 0-.5-.2-.5-.5a.5.5 0 0 1 .6-.5.4.4 0 0 1 .4.5Z" style="fill:#cfba55"/>
      <path d="M44.5 58.7c0 .3 0 .5-.3.5a.4.4 0 0 1-.6-.3.5.5 0 0 1 .5-.5c.2 0 .4.1.4.3Z" style="fill:#d8c562"/>
      <path d="M68.8 25.4v-.5c.3-.1.7-.4 1 0a.5.5 0 0 1 0 .4c-.3.5-.7.2-1 .1Z" style="fill:#d3c163"/>
      <path d="M77.7 25.9c-.4 0-.5-.1-.6-.4a.5.5 0 0 1 .5-.5.5.5 0 0 1 .4.4.4.4 0 0 1-.3.5Z" style="fill:#c7b14f"/>
      <path d="M2 50.5c0 .4-.1.5-.4.5a.4.4 0 0 1-.4-.4.4.4 0 0 1 .4-.4c.3 0 .4.2.5.3Z" style="fill:#d6c868"/>
      <path d="M89.5 20.6c0-.6-.8-.7-.8-1.3.7-.2 1 .2 1.2.8a.5.5 0 0 1-.4.5Z" style="fill:#dac051"/>
      <path d="M63.8 28.8c-.3.1-.6.3-.8 0a.4.4 0 0 1 0-.6c.4-.3.6 0 .8.3a.3.3 0 0 1 0 .3Z" style="fill:#dad088"/>
      <path d="M89.2 47.7v-.5a.8.8 0 0 1 1.2 0 1.4 1.4 0 0 1-1.2.5Z" style="fill:#c2ab36"/>
      <path d="M78.6 61.1c0 .3-.1.5-.4.5a.4.4 0 0 1-.4-.3c0-.3.2-.5.4-.5a.4.4 0 0 1 .4.3Z" style="fill:#cdbb69"/>
      <path d="M75.5 17.3c0 .1-.2.3-.4.3a.4.4 0 0 1-.4-.5.3.3 0 0 1 .5-.3.4.4 0 0 1 .3.4Z" style="fill:#e2d36a"/>
      <path d="M89.3 11.2c.3 0 .4.2.4.4a.3.3 0 0 1-.4.4c-.3 0-.4-.2-.4-.5a.3.3 0 0 1 .3-.3Z" style="fill:#e3d87b"/>
      <path d="M61.5 30.8c-.2-.1-.4-.2-.5-.5a.2.2 0 0 1 .2-.3c.3 0 .6.2.6.5l-.3.3Z" style="fill:#dacc6b"/>
      <path d="M4.8 59.6c.2 0 .4.2.4.4a.3.3 0 0 1-.4.4c-.2 0-.3-.2-.3-.4s.1-.3.3-.4Z" style="fill:#d5c156"/>
      <path d="M74.3 24.5c-.2.3-.3.9-.9.4.1-.5.3-.8.9-.4Z" style="fill:#d7c25c"/>
      <path d="M41.7 44.8c-.6.3-.7-.7-1.2-.5.6-.4 1-.2 1.2.5Z" style="fill:#ceb651"/>
      <path d="M12.2 60.2c.2.3.4.7 0 .8s-.5-.2-.4-.6.1-.3.4-.2Z" style="fill:#e1d779"/>
      <path d="M90 20.1a2 2 0 0 0-1.2-.7c1-.4 1-.4 1.2.7Z" style="fill:#bb9c2f"/>
      <path d="M98.7.7c.3 0 .8-.1.8.5-.5.3-.7 0-.8-.5Z" style="fill:#e1d46c"/>
      <path d="m74.5 26.8-1.1-.5c.6-.4 1-.4 1.1.5Z" style="fill:#c4a73c"/>
      <path d="M59.1 22.3a.3.3 0 0 1-.4-.4.3.3 0 0 1 .4-.4.3.3 0 0 1 .4.3.4.4 0 0 1-.4.4Z" style="fill:#bda248"/>
      <path d="M64.7 30.9a.4.4 0 0 1-.4.4.3.3 0 0 1 0-.6c.2 0 .4 0 .4.2Z" style="fill:#d9c766"/>
      <path d="M42.8 43.6c-.4 0-.5 0-.5-.3a.5.5 0 0 1 .3-.3c.2 0 .3.1.3.3l-.1.3Z" style="fill:#bea656"/>
      <path d="m37 54.3.3.7c0 .1-.2.3-.4.3a.3.3 0 0 1-.2-.4l.2-.6Z" style="fill:#c2af57"/>
      <path d="M93.3 46c-.2 0-.5.7-.7 0 .2-.1.3-.5.7-.5v.5Z" style="fill:#c8b539"/>
      <path d="M63.8 28.8v-.3c.2-.1.4-.2.6 0s0 .3 0 .4a.4.4 0 0 1-.6-.1Z" style="fill:#d9c964"/>
      <path d="m12.2 60.2-.5.2c0-.2-.5-.5 0-.7.4-.1.5.2.5.5Z" style="fill:#d3c365"/>
      <path d="M85.6 25.6c.2-.2.3-1 .8-.2-.2.3-.5.3-.8.2Z" style="fill:#b9a03c"/>
      <path d="M45 39.3c-.2 0-.4-.1-.4-.3a.5.5 0 0 1 .3-.3.2.2 0 0 1 .3.2l-.2.4Z" style="fill:#d5c475"/>
      <path d="M47 41.2c.4-.4.7 0 1 .2-.4.1-.8.2-1-.2Z" style="fill:#c8b342"/>
    </g>
  </g>
</svg>
