<svg xmlns="http://www.w3.org/2000/svg" viewBox="0 0 6.03 18.93"><defs><style>.a{fill:#c5986e;}</style></defs><title>Recurso 9stikflower</title><path class="a" d="M.13,0A1.77,1.77,0,0,1,.39.35a46.64,46.64,0,0,1,3.32,8,23.87,23.87,0,0,1,.52,2.78A14.67,14.67,0,0,0,5.4,15.78,7.13,7.13,0,0,1,6,18.93l-.11-.17a.74.74,0,0,1,0-.14,11,11,0,0,0-1.63-4.39c-.55-.9-1.07-1.82-1.58-2.74A12.82,12.82,0,0,1,1.52,7.76Q.92,4.93.33,2.09C.22,1.58.11,1.08,0,.57A2.9,2.9,0,0,1,0,.06Zm.7,2.13c0,.07,0,.14.05.22.6,2,1.19,3.93,1.79,5.9.39,1.28.79,2.55,1.18,3.83.06.18.15.34.22.51A24,24,0,0,0,.83,2.13Zm.09,1.3c0,.12,0,.24.06.36.13.66.28,1.32.41,2,.23,1.12.44,2.25.68,3.37a13.29,13.29,0,0,0,1.78,3.93c.06.1.13.18.2.28C2.84,10.08,2.08,6.7.92,3.43Z"/></svg>