<svg xmlns="http://www.w3.org/2000/svg" viewBox="0 0 47.68 57.34"><defs><style>.a{fill:#c5986e;}</style></defs><title>Recurso 9upflwr</title><path class="a" d="M17,.18A1.28,1.28,0,0,1,17,.52c.08,1.84.15,3.68.22,5.53,0,.39.05.78.07,1.18.12,2.12.28,4.25.32,6.38.05,2.44,0,4.88-.09,7.32-.14,2.75-.33,5.5-.66,8.24-.35,3-.78,5.93-1.19,8.89-.38,2.76-.76,5.52-1.19,8.27A26.44,26.44,0,0,1,12.79,53a13.12,13.12,0,0,1-1.53,2.77A3.67,3.67,0,0,1,9,57.29a4.17,4.17,0,0,1-1.17,0,7.21,7.21,0,0,1-4.52-2.44A13.53,13.53,0,0,1,1,51.31s0-.09.07-.17l.28.44c.52.85,1,1.73,1.57,2.53a7.15,7.15,0,0,0,4.68,3,3.16,3.16,0,0,0,3.2-1.17,12.75,12.75,0,0,0,1.32-2.07,18.86,18.86,0,0,0,1.79-5.61c.44-2.69.82-5.38,1.23-8.08q.48-3.19.93-6.4c.41-2.9.76-5.8.95-8.73.12-1.9.26-3.8.34-5.7.06-1.13,0-2.27,0-3.4s0-2.21,0-3.31c0-.9,0-1.8-.11-2.7C17.05,7.25,17,4.6,16.88,2c0-.44-.05-.88-.08-1.32,0-.14,0-.29,0-.44Z"/><path class="a" d="M2.29,23.92a68.24,68.24,0,0,0,4-5.77c1.23-1.95,2.46-3.91,3.63-5.9s2.32-4,3.41-6.07S15.43,2.07,16.47,0c.21.09.19.23.15.4a49.47,49.47,0,0,1-2.47,7.08,120.68,120.68,0,0,1-6.27,12.7c-1.27,2.21-2.66,4.34-4.12,6.42-.17.25-.38.49-.57.73a1.6,1.6,0,0,1-1.83.42c-.17,0-.33-.09-.5-.12A.7.7,0,0,1,.23,27,14,14,0,0,1,0,25.61,12.75,12.75,0,0,1,.13,23c.25-1.84.46-3.68.72-5.52.21-1.43.45-2.86.71-4.28.18-1,.4-2.06.61-3.08.1-.47.22-.93.33-1.39h.08c0,.1.07.19.09.29a12.9,12.9,0,0,1,.23,2.91c0,.85,0,1.7-.06,2.55,0,.33,0,.66,0,1,0,.66-.11,1.33-.17,2-.13,1.4-.27,2.8-.38,4.21,0,.64,0,1.28,0,1.92A2.38,2.38,0,0,0,2.29,23.92ZM16.15,1.44h-.06c-.34.79-.67,1.59-1,2.38A94.8,94.8,0,0,1,8.85,16.23a92.82,92.82,0,0,1-6.24,9.15.56.56,0,0,0-.12.54c.09.32.17.65.26,1a4.11,4.11,0,0,0,.18.38,3.75,3.75,0,0,0,.78-.94,87.68,87.68,0,0,0,7.09-12,99.55,99.55,0,0,0,4.77-11C15.78,2.66,16,2.05,16.15,1.44ZM2.39,25.22l.09,0A97.24,97.24,0,0,0,9.24,15.18C11.07,12.07,14.55,5,14.6,4.3a145.82,145.82,0,0,1-12.32,20C2.32,24.59,2.35,24.9,2.39,25.22Zm.37,2.2a9.92,9.92,0,0,1-.36-1A15.07,15.07,0,0,1,2,22.31c0-.94.14-1.88.21-2.81.12-1.54.27-3.08.36-4.62.07-1.27.08-2.54.1-3.81a10.92,10.92,0,0,0-.08-1.13H2.53c0,.26,0,.52,0,.77-.1,1.26-.18,2.51-.33,3.77-.3,2.49-.63,5-1,7.47a12.76,12.76,0,0,0-.1,1.51c0,.75,0,1.51.07,2.26a7,7,0,0,0,.27,1.81A1.06,1.06,0,0,0,2.76,27.42Zm-.5-16.61A1.33,1.33,0,0,1,2.2,11c-.22,1.13-.46,2.25-.66,3.39S1.19,16.63,1,17.78C1,18.18.9,18.59.86,19,.65,20.91.25,22.81.21,24.74a11.46,11.46,0,0,0,.16,2c.07.58.28.72.92.73-.06-.32-.14-.65-.18-1a21.6,21.6,0,0,1,0-5.39c.34-2.82.72-5.64,1.07-8.46.07-.49.08-1,.11-1.48A1.52,1.52,0,0,0,2.26,10.81Z"/><path class="a" d="M17.45,1c.14.41.29.81.42,1.21a46.68,46.68,0,0,0,6,12.74,25.38,25.38,0,0,0,2.73,3.38.94.94,0,0,0,.84.31,8.89,8.89,0,0,0,4.28-1.5A62,62,0,0,0,37.5,12.9a34.35,34.35,0,0,1,6.86-4.52c.61-.3,1.24-.55,1.86-.83.37-.17.73-.37,1.09-.55l.37-.15c-.07.21-.07.36-.15.44a13,13,0,0,1-1.26,1.4c-.79.67-1.63,1.29-2.47,1.92-1.7,1.26-3.21,2.74-4.8,4.14a65.16,65.16,0,0,1-6.9,5.38,8.76,8.76,0,0,1-1,.52,1.92,1.92,0,0,1-1.06.17l-3.52-.43a5.38,5.38,0,0,0-.8,0,3.51,3.51,0,0,1-3.31-1.72,19.85,19.85,0,0,1-1.87-3.92,84.1,84.1,0,0,1-2.76-9.47C17.55,4,17.4,2.71,17.2,1.44,17.16,1.21,17.2,1.16,17.45,1Zm.27,1.63h-.08a1.09,1.09,0,0,0,0,.18c.18.83.32,1.67.53,2.49A39.08,39.08,0,0,0,22.72,15.8a24.5,24.5,0,0,0,3.14,4,1,1,0,0,0,.75.32c.5,0,1,.12,1.5.18.17,0,.35,0,.56.06-.59-.47-1.15-.88-1.66-1.34a20.71,20.71,0,0,1-2.85-3.28A46.26,46.26,0,0,1,18,3.55ZM28.5,19.92a2.64,2.64,0,0,0,.35-.07l.31-.1A18.51,18.51,0,0,0,34.32,17a61.55,61.55,0,0,0,5-4.27,25.59,25.59,0,0,1,5.54-4.16l.51-.3a1,1,0,0,0-.49.11,33.62,33.62,0,0,0-6.5,4.11q-2.72,2.13-5.5,4.17a10.43,10.43,0,0,1-5.62,2.26Zm.28.12a2.41,2.41,0,0,0,2.72.17l.48-.3a63.39,63.39,0,0,0,7.14-5.61,61.52,61.52,0,0,1,5.16-4.38c.66-.48,1.3-1,1.94-1.51a7.94,7.94,0,0,0,.59-.57l-.07-.09c-.27.16-.54.34-.83.49A29.89,29.89,0,0,0,39.35,13c-1.5,1.39-3.08,2.71-4.67,4a16.58,16.58,0,0,1-5,2.74ZM19.32,9.82a2.61,2.61,0,0,0,.06.27c.42,1.35.82,2.71,1.27,4.05a18.77,18.77,0,0,0,2.09,4.44,4.67,4.67,0,0,0,.81.91,3,3,0,0,0,2.25.59C22.83,17.09,21,13.51,19.32,9.82Z"/></svg>