<svg xmlns="http://www.w3.org/2000/svg" viewBox="0 0 60.58 70.82"><defs><style>.a{fill:#c5986e;}</style></defs><title>Recurso 4flower-sct3-2</title><path class="a" d="M28.26,35.94c-.09,1.17-.26,2.34-.38,3.51a22.24,22.24,0,0,0,.44,7.67c.24,1,.51,1.88.76,2.82a31.44,31.44,0,0,1,.92,8,56.34,56.34,0,0,0,.68,8.31,16.91,16.91,0,0,0,.42,2l0,.06.23-.15s0-.08,0-.12a30.1,30.1,0,0,1-.76-4.81c-.12-1.46-.2-2.92-.27-4.38s-.09-3.1-.2-4.65a34,34,0,0,0-1.21-6,32,32,0,0,1-.73-3.5,21.44,21.44,0,0,1,0-5.31,27.64,27.64,0,0,0,.34-5.6,18.23,18.23,0,0,0-.61-3.53c0-.1-.09-.19-.14-.31-.05.06-.09.09-.09.11,0,.19.05.38.09.56A18,18,0,0,1,28.26,35.94Z"/><path class="a" d="M60.53,50.87l-.63.07a9.64,9.64,0,0,1-1.48.28,25.72,25.72,0,0,1-3.4,0c-1.76-.15-3.52-.43-5.28-.66a10.06,10.06,0,0,0-3.24,0,11.47,11.47,0,0,0-5.68,2.7,27.47,27.47,0,0,0-3.53,4,29.91,29.91,0,0,0-3.63,6.51c-.7,1.61-1.36,3.23-2,4.85.19-1.56.37-3.13.57-4.69.24-1.84.53-3.67.77-5.51.21-1.53.38-3.07.56-4.6a25.13,25.13,0,0,1,.82-4.11,27,27,0,0,0,1.19-6.23c.06-1.43.09-2.87.17-4.3s.14-2.77.32-4.13a45.77,45.77,0,0,1,4.89-14.79c.81-1.56,1.63-3.12,2.43-4.69A16.5,16.5,0,0,0,45,9c.14-2.46.36-4.92.55-7.39,0-.4.13-.8.19-1.21a1.7,1.7,0,0,0,0-.39h-.1a1,1,0,0,0-.11.28c-.19,1.7-.41,3.4-.56,5.11-.12,1.41-.17,2.83-.24,4.24a16.26,16.26,0,0,1-2,6.87c-1.29,2.41-2.58,4.82-3.66,7.34a51.68,51.68,0,0,0-2.46,7.36,38.11,38.11,0,0,0-1,7.28c-.11,1.74-.16,3.49-.23,5.23a23.34,23.34,0,0,1-1,5.55,30,30,0,0,0-1,4.71c-.19,1.51-.34,3-.54,4.54-.22,1.7-.47,3.4-.71,5.1L32,64q-.3,2.68-.62,5.38l-.4,1v0a.43.43,0,0,0,0-.11c-.37-1.24-.7-2.49-1.14-3.7a84.46,84.46,0,0,0-4-9,19.3,19.3,0,0,0-2.39-3.63,3.51,3.51,0,0,0-3.51-1.25,7,7,0,0,1-.8.09l-3.54,0a2,2,0,0,0-1,.31,9.37,9.37,0,0,0-.87.65,64.47,64.47,0,0,0-6.1,6.27c-1.38,1.6-2.68,3.27-4.2,4.76-.74.73-1.49,1.46-2.17,2.24A11.22,11.22,0,0,0,.08,68.6c-.06.09,0,.24-.08.46l.34-.2c.34-.23.67-.47,1-.69.57-.37,1.16-.7,1.73-1.08a34.57,34.57,0,0,0,6.18-5.41,61.7,61.7,0,0,1,5.12-5,8.82,8.82,0,0,1,4-2.07.93.93,0,0,1,.86.2,24.16,24.16,0,0,1,3.17,3A46.49,46.49,0,0,1,30.16,69.6c.18.38.39.76.58,1.14a.7.7,0,0,0,.15-.15c0,.07,0,.14-.05.23a1.21,1.21,0,0,0,.45-.45h.1c0-.12.07-.25.09-.37v0h0c.22-.54.42-1.09.67-1.62a54.18,54.18,0,0,1,5.32-8.86,17.52,17.52,0,0,1,4-4.06,9.14,9.14,0,0,1,6.73-1.73,26.75,26.75,0,0,0,3.35.16A16.85,16.85,0,0,0,54,53.67a19.56,19.56,0,0,0,2.49-.49,10.4,10.4,0,0,0,3.63-1.77,3.64,3.64,0,0,0,.45-.43ZM22.18,53.24a4.68,4.68,0,0,1,.92.8,18.51,18.51,0,0,1,2.68,4.11c.63,1.27,1.21,2.56,1.81,3.85a1.86,1.86,0,0,1,.1.25c-2.17-3.42-4.47-6.72-7.82-9.28A3.07,3.07,0,0,1,22.18,53.24ZM.8,68,.72,68a6.51,6.51,0,0,1,.51-.64c.56-.6,1.12-1.2,1.72-1.77a63.36,63.36,0,0,0,4.51-5A62.79,62.79,0,0,1,13.77,54c.14-.13.29-.24.44-.36a2.4,2.4,0,0,1,2.71-.21c-.35.17-.61.28-.86.41a16.58,16.58,0,0,0-4.57,3.39c-1.4,1.5-2.79,3-4.09,4.6a29.67,29.67,0,0,1-5.84,5.63C1.3,67.62,1.05,67.84.8,68ZM13.32,57.3q-2.48,2.4-4.88,4.88a34,34,0,0,1-5.88,5,1,1,0,0,1-.48.18L2.55,67a25.55,25.55,0,0,0,4.92-4.88,59.83,59.83,0,0,1,4.38-4.9,18.27,18.27,0,0,1,4.73-3.41l.3-.15.33-.12,1.37.81A10.42,10.42,0,0,0,13.32,57.3ZM30.25,69.17c-.14-.29-.28-.59-.43-.89A46,46,0,0,0,22.08,57a20.26,20.26,0,0,0-3.27-2.86c-.57-.39-1.18-.72-1.82-1.11l.56,0c.5,0,1,0,1.51,0a1,1,0,0,1,.79.22,24.09,24.09,0,0,1,3.65,3.56,38.85,38.85,0,0,1,5.93,9.79c.33.79.58,1.6.86,2.4a1,1,0,0,1,0,.17ZM35.86,60a21,21,0,0,1,2.21-3.23,25.24,25.24,0,0,1,3-3.3,11.36,11.36,0,0,1,5.24-2.56,10.44,10.44,0,0,1,3.57,0c1.52.22,3,.44,4.58.6,1.07.11,2.16.1,3.24.14l0,.06-2,.26c-.61.07-1.22.14-1.84.16a35,35,0,0,1-4.8-.14,11.23,11.23,0,0,0-6.58,1.26,12.73,12.73,0,0,0-2.93,2.29,26.85,26.85,0,0,0-3.47,4.41l-.33.5-.08,0C35.73,60.22,35.79,60.08,35.86,60ZM58,52.4a12.35,12.35,0,0,1-3.81,1c-1,.09-2.11.2-3.16.2a22,22,0,0,1-2.92-.18A9.12,9.12,0,0,0,42,54.78,16.52,16.52,0,0,0,37.49,59a57.07,57.07,0,0,0-3.61,5.49,1.93,1.93,0,0,1-.35.46,1.92,1.92,0,0,1,.11-.31A38.26,38.26,0,0,1,39,56.36a12,12,0,0,1,4-3.21,9.7,9.7,0,0,1,3.57-1,19,19,0,0,1,3,0,29.61,29.61,0,0,0,5.57,0,21.68,21.68,0,0,0,4.42-.78A6.61,6.61,0,0,1,58,52.4Z"/></svg>