<svg xmlns="http://www.w3.org/2000/svg" viewBox="0 0 561.76 19.78"><defs><style>.a{fill:#c5986e;}</style></defs><title>Recurso 20brush</title><path class="a" d="M18.41,10.27a.87.87,0,0,0,0-1.13C18.06,8.8,10.5.6,5.36.61a5.36,5.36,0,0,0-3.3,9.58A5.43,5.43,0,0,0,0,14.42a5.36,5.36,0,0,0,5.36,5.36C10.44,19.78,17.61,11.24,18.41,10.27Z"/><path class="a" d="M17.13,10.29a.86.86,0,0,1,.61-1.46H248.05a.86.86,0,0,1,0,1.72H17.74A.85.85,0,0,1,17.13,10.29Z"/><path class="a" d="M319.27,10.3a.86.86,0,0,1-.25-.61.85.85,0,0,1,.86-.86h227a.86.86,0,1,1,0,1.72h-227A.89.89,0,0,1,319.27,10.3Z"/><path class="a" d="M561.76,9.69a.86.86,0,0,0-.5-.78L542,.08a.86.86,0,0,0-1.1,1.22l5,8.39-5,8.39a.86.86,0,0,0,.1,1l0,0a.86.86,0,0,0,1,.18l19.29-8.83A.87.87,0,0,0,561.76,9.69Z"/></svg>