<svg xmlns="http://www.w3.org/2000/svg" viewBox="0 0 31.52 42.78"><defs><style>.a{fill:#c5986e;}</style></defs><title>Recurso 9flwr-4</title><path class="a" d="M10.81,2.16A14.89,14.89,0,0,0,7.06,4.61c-.93.83-1.84,1.68-2.76,2.51a19.25,19.25,0,0,1-4,2.67.44.44,0,0,1-.34,0c.11-.15.21-.3.32-.44.94-1.22,1.86-2.47,2.84-3.67S5.24,3.23,6.33,2.05a6,6,0,0,1,3-1.66A13.77,13.77,0,0,1,11.17,0a4.46,4.46,0,0,1,3.89,1.24,25.88,25.88,0,0,1,3.62,4.66A96.67,96.67,0,0,1,29.11,29,67.87,67.87,0,0,1,30.78,36a45.71,45.71,0,0,1,.73,5.71,3.76,3.76,0,0,1-.08,1.1,1.09,1.09,0,0,1-.09-.23,45.31,45.31,0,0,0-1.56-8.33,74,74,0,0,0-6.69-16.81A63.22,63.22,0,0,0,15.92,6.74a24.79,24.79,0,0,0-4.61-4.25C11.16,2.38,11,2.28,10.81,2.16ZM8.93.74V.85l.2.11a13.64,13.64,0,0,1,2.8,1.67A27.32,27.32,0,0,1,17.29,8a73.63,73.63,0,0,1,12,23.41c.29.94.55,1.88.83,2.83a.63.63,0,0,0,0-.33c-.3-1.21-.58-2.42-.93-3.61a81.34,81.34,0,0,0-4.82-12.54,65.74,65.74,0,0,0-6.55-11,28.7,28.7,0,0,0-4.15-4.59A10.45,10.45,0,0,0,11.17.48a1,1,0,0,0-.49-.11C10.09.48,9.51.61,8.93.74Zm14.67,15,.07,0-.17-.41a84.19,84.19,0,0,0-4.94-9,24.36,24.36,0,0,0-3.72-4.81A4,4,0,0,0,12.28.25a7.41,7.41,0,0,0-.89,0c.56.36,1,.63,1.45.94a22.33,22.33,0,0,1,4.05,4,57.5,57.5,0,0,1,5.94,9.09ZM.91,9.14a1.7,1.7,0,0,0,.33-.2c.63-.54,1.29-1.06,1.87-1.65S4.39,5.86,5,5.13a17.46,17.46,0,0,1,4.16-3.6.83.83,0,0,0,.19-.15,1.38,1.38,0,0,0-1.65-.09A7.3,7.3,0,0,0,6.2,2.53,76.29,76.29,0,0,0,.92,9S.92,9.08.91,9.14ZM9.73,1.5l-.31.16A11.8,11.8,0,0,0,6.71,3.71C5.46,5,4.26,6.37,3,7.71c0,0,0,0,0,.11s.22-.14.31-.22C4.14,6.9,5,6.22,5.72,5.5a16.71,16.71,0,0,1,4.89-3.45Z"/></svg>