<svg xmlns="http://www.w3.org/2000/svg" viewBox="0 0 384.51 522.21"><defs><style>.a{fill:#e9b255;}</style></defs><title>Recurso 4watercolor</title><path class="a" d="M95.11,416.66c.29-4.92.63-10,.66-15.11,0-1.53,0-3-.07-4.55.47-3.88.94-8.18,1.64-12.9.36-2.68.75-5.48,1.15-8.41s.92-5.95,1.39-9.1c.87-5.93,2-12.23,3.15-18.85A99,99,0,0,1,112.57,325a92.43,92.43,0,0,1,9.51-12.67c3.25-3.78,6.22-7.22,8.48-10.27a43.3,43.3,0,0,0,5.15-8.41c1.18-.83,4.66-4.27,9.64-9.48,2.94-3.11,6.46-6.79,10.21-11.05a117,117,0,0,0,11.11-14.6c3.48-5.4,6.54-10.55,9.7-15.06s6.13-8.52,8.67-11.88l1.79-2.38c-.9,2-1.82,3.92-2.72,5.84l-7.78,16.63a158,158,0,0,1-7.53,14.74A63.05,63.05,0,0,1,160,278a70,70,0,0,1-17.4,13.09c-4.63,2.48-7.41,3.47-7.33,3.7a6.15,6.15,0,0,0,2.11-.48,49.89,49.89,0,0,0,5.74-2.26,65.31,65.31,0,0,0,18.49-12.77,64.1,64.1,0,0,0,9.44-11.88A151.69,151.69,0,0,0,179,252.53L187,236c1.36-2.87,2.79-5.8,4.13-8.83.67-1.51,1.33-3.05,1.93-4.62.3-.78.6-1.57.88-2.37l.41-1.2a3.23,3.23,0,0,0,.06-2,3.39,3.39,0,0,0-3.28-2.24,4.24,4.24,0,0,0-2.25.6,10.07,10.07,0,0,0-1.28,1c-1.36,1.21-2.61,2.46-3.82,3.7-2.39,2.48-4.73,4.86-7.1,7.21-4.71,4.67-9.35,9.15-13.62,13.55a171.64,171.64,0,0,0-11.57,13,93.06,93.06,0,0,0-8.38,12.39,56.37,56.37,0,0,0-7,19.68,33.87,33.87,0,0,0-.28,5.5c0,.19,0,.35,0,.52-.94,1.12-3.1,4.57-7.05,9.09-2.44,2.84-5.53,6.1-8.93,9.83a82.86,82.86,0,0,0-10,13,65.52,65.52,0,0,0-3.5,6.64c1.9-9.53,4-19.5,6.39-29.78,3.77-16.23,7.74-31.65,11.49-45.66,2.18-8,4.28-15.6,6.26-22.6,0-.05,0-.09.07-.14.28-.6.59-1.28.93-2s.62-1.66,1-2.62.59-2,.9-3.17a49.18,49.18,0,0,0,.94-5.39c.12-.39.23-.79.34-1.18,3.06-10.55,5.53-19.09,7.25-25,.16-.56.31-1.1.45-1.61l.7-1a4,4,0,0,0,.86,0,4.35,4.35,0,0,0,1.47-.46,5.32,5.32,0,0,0,1.4-1.13c.88-.94,1.44-2.16,2.39-3.26a23.7,23.7,0,0,1,8.72-6.49c3.94-1.94,8.78-3.5,14-5.87a42.49,42.49,0,0,0,7.83-4.57,47.39,47.39,0,0,0,7.14-6.51,76,76,0,0,0,11.22-17.08c3.16-6.31,5.88-13,9.31-19.74a82.92,82.92,0,0,1,5.88-9.86c2.23-3.25,4.85-6.58,6.46-10.57a14.52,14.52,0,0,0,1.11-6.37l-.11-1.7-1.84.56a42.71,42.71,0,0,0-11.41,5.49,62.24,62.24,0,0,0-9.18,7.62c-5.45,5.48-9.68,11.31-13.87,16.63-2.08,2.67-4.15,5.24-6.28,7.62s-4.34,4.59-6.54,6.7a152.25,152.25,0,0,0-12,12.17A55.3,55.3,0,0,0,153,163.3c0-3.31-.31-6.73-.64-10.3a216,216,0,0,0-4.06-25.37c-.14-.62-.28-1.23-.4-1.8l-.41-1.81-1.85,1a10.49,10.49,0,0,0-3.34,2.85,14.25,14.25,0,0,0-1.88,3.41,35.21,35.21,0,0,0-1.69,6.64,69,69,0,0,0-1.06,12.38A64.28,64.28,0,0,0,141,170.54c.93,2.73,1.77,5.15,2.3,7.32a22.54,22.54,0,0,1,.73,5.66,1,1,0,0,1,0,.17,53.34,53.34,0,0,0-2.23,5.67c-.08-.06-.13-.09-.16-.07s0,.12.09.27c-.33.91-.69,1.93-1.08,3.05-1.61,4.58-3.69,10.79-6.12,18.33a68.15,68.15,0,0,0-2.21-14.35c-1.89-7.3-5.06-14.92-8.5-22.77a200.22,200.22,0,0,1-8.76-22.33,104.69,104.69,0,0,1-3.84-19.18c-.41-4-.58-7.49-.65-10.31q.53-.39,1.26-1a26.7,26.7,0,0,0,4.87-6.07,47.84,47.84,0,0,0,4.54-10.95c1.27-4.37,2.46-9.31,3.77-14.81a130.16,130.16,0,0,0,3-18.17,70.27,70.27,0,0,0,.18-10.19A91.51,91.51,0,0,0,127,50.15C125.73,43,123.89,35.67,122.16,28s-3.61-15.51-5.49-23.6l-.15-.66L115.63,0l-2.06,3.62a129.5,129.5,0,0,0-10.26,23.65c-2.58,7.8-4.51,15.39-6.26,22.61S93.46,64,93,70.59a45.35,45.35,0,0,0,2.48,17.85c1.69,5.19,3.58,9.68,5.12,13.69l4.06,10.21c2.27,5.6,3.62,8.65,3.83,8.57s-.75-3.27-2.66-9c-1-2.86-2.17-6.35-3.55-10.4s-3.12-8.64-4.64-13.76a44.43,44.43,0,0,1-2-17.19c.56-6.32,2.52-13.12,4.3-20.32s3.8-14.7,6.38-22.38A140.35,140.35,0,0,1,113,11.19c-.42,2.83-.91,7-1.42,12.27-1,10.1-2,24.07-2.59,39.47s-.69,29.31-.49,39.36c.17,9,.54,14.95.93,16q0,.34-.09.72a83.46,83.46,0,0,0-.31,13.6,93.07,93.07,0,0,0,3.24,19.73c2,7.26,5.19,14.86,8.63,22.71s6.63,15.3,8.62,22.36a67.77,67.77,0,0,1,2.77,19.26c0,.53,0,1.05-.06,1.57-1.64,5.19-3.39,10.86-5.21,16.94a42,42,0,0,0-2.14-10,77,77,0,0,0-3.51-8.61c-1.41-3-3.08-6-4.76-9.23-6.81-12.83-15.07-28-24.5-44.76-4.72-8.37-9.73-17.13-15-26.17q-4-6.76-8.08-13.76l-4.17-7c-1.41-2.34-2.79-4.75-4.44-7.1a33.37,33.37,0,0,0-2.72-3.39c-.5-.54-1-1.06-1.58-1.56l-.42-.37-.12-.1-.2-.14a1.89,1.89,0,0,0-.44-.26,3.43,3.43,0,0,0-2.13-.24,3.74,3.74,0,0,0-1.94,1,2.93,2.93,0,0,0-.9,1.89,3.52,3.52,0,0,0,0,.46l0,.26.06.51.11,1,.45,4.09c.34,2.71.81,5.37,1.24,8s1,5.24,1.7,7.79a144.9,144.9,0,0,0,40.68,70c5.41,5.16,10.76,9.34,15.19,13.22a76.41,76.41,0,0,1,10.41,10.67,39.68,39.68,0,0,1,4.08,6.5,36.8,36.8,0,0,1,1.89,11.26c-1.2,4-2.42,8.24-3.65,12.58-.17.33-.24.51-.2.53l.06,0-.65,2.27c-3.91,14-8,29.45-11.76,45.73s-6.81,31.84-9.25,46c-1.14,7.09-2.27,13.83-3.08,20.15-.42,3.16-.88,6.2-1.22,9.14s-.64,5.74-1,8.43c-.13,1.13-.25,2.22-.36,3.3a57.26,57.26,0,0,0-1.83-7.49,66.36,66.36,0,0,0-3.74-9.11c-1.1-3.73-2.39-7.62-3.88-11.64-2-5.59-4.43-11.41-6.91-17.45a126.54,126.54,0,0,1-1.26-13.53c-.13-4.16-.07-8-.09-11.12a4.6,4.6,0,0,0,1.13-1.36,34.22,34.22,0,0,0,2-5.37c1.49-4.67,3.55-11.43,6-19.79s5.39-18.37,7.58-29.65A133.57,133.57,0,0,0,96,243.06c0-.78.09-1.55.13-2.33l0-2.35c0-1.57,0-3.15,0-4.74s-.21-3.18-.3-4.79A6,6,0,0,0,95,226a3.12,3.12,0,0,0-1.73-1.24,3.66,3.66,0,0,0-2.44.12,6.09,6.09,0,0,0-2.75,2.43,9.56,9.56,0,0,0-.72,1.33c-.1.22-.19.48-.27.68l-.21.59c-.54,1.57-1.1,3.13-1.6,4.68q-1.56,4.65-2.9,9.19c-1.8,6-3.33,11.91-4.6,17.52a261,261,0,0,0-5.06,29.91,109.1,109.1,0,0,0-.82,11.54,45.27,45.27,0,0,0,.69,8.66,26.09,26.09,0,0,0,1.48,5.23c.16.38.29.67.42.92A71,71,0,0,0,74,328.47c0,.88.08,1.75.15,2.6-.18-.48-.37-.95-.55-1.42-8.32-20.81-11.95-40.94-14.5-55.47-1.23-7.27-2.24-13.16-2.93-17.27-.1-.55-.2-1.06-.29-1.54a12.25,12.25,0,0,0,.78-1.72l.87-2.26.53-1.46c.18-.52.32-1.08.49-1.67l1.1-4c.34-1.45.62-3,1-4.75s.53-3.54.79-5.48.34-4,.46-6.16c0-.54.05-1.09.08-1.64s0-1.11,0-1.67q0-1.69-.06-3.45c0-1.18-.16-2.36-.24-3.57s-.18-2.45-.34-3.7c-.41-2.47-.66-5.07-1.31-7.66-.3-1.3-.55-2.63-.9-4s-.76-2.65-1.15-4-.9-2.68-1.37-4-.94-2.75-1.56-4.08L53.19,186,51.11,182a98.44,98.44,0,0,0-10.63-15.82l0,0-.72-.92-1.23.6a6.92,6.92,0,0,0-2.65,2.35,9.65,9.65,0,0,0-1.2,2.73,18.14,18.14,0,0,0-.48,2.6c-.08.81-.15,1.62-.22,2.42-.34,3.21-.46,6.37-.54,9.47A119.37,119.37,0,0,0,42,231.82a101.51,101.51,0,0,0,9.24,17.76,54.06,54.06,0,0,0,3.16,4.47l.28.35c0,.79.12,1.71.21,2.74.36,4.14,1,10.12,2,17.48.71,5.33,1.62,11.39,2.86,18a189.13,189.13,0,0,0-9.35-17.66c-4.77-7.91-10-14.45-13.55-19.26-1.43-1.9-2.62-3.52-3.58-4.77a20.73,20.73,0,0,0-1.5-2.85l-4.56-8a95.91,95.91,0,0,0-7.61-11.67,23.81,23.81,0,0,0-6.46-5.9,9.62,9.62,0,0,0-5.3-1.35,9.83,9.83,0,0,0-5.57,2.24,5.58,5.58,0,0,0-2,2.64,5.15,5.15,0,0,0,0,2.93,12.48,12.48,0,0,0,2.22,4.19c1.78,2.37,3.78,4.33,5.42,6.27.42.49.75.93,1.16,1.46s.82,1,1.24,1.52A25.13,25.13,0,0,0,12.94,245a22.57,22.57,0,0,0,6,3.66,20.11,20.11,0,0,0,5.84,1.43c1.75.16,3.18.25,4.3.47a7.68,7.68,0,0,1,3,1.22c.7,1.38,1.65,3.09,2.85,5.06,3.1,5.17,8,11.88,12.68,19.63s8.58,15,11.55,20.23c.83,1.47,1.58,2.77,2.25,3.88,1,4.72,2.29,9.62,3.79,14.64s3.36,10.34,5.42,15.6c3.75,9.64,7.75,18.65,11.07,27.07-2.64-4-5.29-7.75-7.83-11.29l-9.24-12.91c-5.67-7.88-10.3-14.23-13.57-18.58-.85-1.13-1.61-2.12-2.27-3a.24.24,0,0,0,0-.09,18,18,0,0,0,0-3.66,49.31,49.31,0,0,0-2.67-12.92l-.73-2-.88-2.05c-.57-1.42-1.35-2.81-2.09-4.28a59.41,59.41,0,0,0-5.91-8.76,63.14,63.14,0,0,0-8.35-8.43c-1.64-1.29-3.31-2.6-5.14-3.79-.88-.63-1.84-1.18-2.8-1.75l-1.44-.86a3.93,3.93,0,0,0-2.83-.39,4.33,4.33,0,0,0-2.48,1.56,3.23,3.23,0,0,0-.66,2.65,5.93,5.93,0,0,0,.3.91l.28.73.56,1.45c.77,1.91,1.56,3.79,2.41,5.6a107,107,0,0,0,5.4,10.19A110.15,110.15,0,0,0,33.3,302.07c3.62,4.23,6.93,7.54,9.76,9.27s4.84,2,4.88,1.86-1.66-.78-4.06-2.75-5.36-5.28-8.75-9.68a129.14,129.14,0,0,1-10.78-15.95c-1.79-3.13-3.51-6.5-5.12-10.07l-.6-1.38c3.2,3.68,7.62,8.74,12.18,14.54,9.21,11.63,15.48,21.85,16.31,21.42s-4.31-11.39-13.68-23.21a110.27,110.27,0,0,0-16.68-17.26l-.39-1-.27-.71c-.08-.23-.2-.54-.19-.56a.46.46,0,0,1,.1-.4.8.8,0,0,1,.44-.28.6.6,0,0,1,.5.09l1.38.82c.91.54,1.83,1.06,2.68,1.67,1.76,1.12,3.37,2.37,4.95,3.59a65.67,65.67,0,0,1,8.15,8,61.42,61.42,0,0,1,5.94,8.3c.77,1.39,1.58,2.7,2.19,4.05l.94,1.95c.27.66.54,1.29.8,1.92a62.15,62.15,0,0,1,3.57,12.33c.17,1.05.37,1.94.49,2.64-1.44-1.82-2.27-2.77-2.39-2.7s.71,1.58,2.39,4.25c-.08.25-.15.4-.1.44s.14,0,.28-.15l1.72,2.7c2.94,4.54,7.28,11.07,12.71,19.09l5.07,7.48a37.38,37.38,0,0,0-5.86-1.38,47.76,47.76,0,0,0-10.32-.41,50.37,50.37,0,0,0-6.17.79,11.53,11.53,0,0,0-3.57,1.24A5.72,5.72,0,0,0,40.05,344a3.67,3.67,0,0,0-.76,2.35,3.8,3.8,0,0,0,.75,2,7.77,7.77,0,0,0,1.17,1.29,12.48,12.48,0,0,0,2.7,1.86A16.78,16.78,0,0,0,50,353.24a24.62,24.62,0,0,0,10.63-1.5,35.88,35.88,0,0,0,6.41-3c1.42-.86,2.12-1.44,2-1.61s-1,.09-2.53.64-3.73,1.38-6.46,2.1a24.37,24.37,0,0,1-9.47.8,14.53,14.53,0,0,1-4.94-1.55,10,10,0,0,1-2.09-1.49,2.93,2.93,0,0,1-1.1-1.58.84.84,0,0,1,.17-.51,2.36,2.36,0,0,1,.71-.58,8.59,8.59,0,0,1,2.46-.87,55.46,55.46,0,0,1,5.78-.9,60.56,60.56,0,0,1,9.84-.2c3.23.21,5.71.58,7.27.77L71.55,348c3.22,4.7,6.66,9.72,10,15.14a97.48,97.48,0,0,1,6,11.39c1.09,3.6,2,7,2.66,10.21A102.3,102.3,0,0,1,92.3,402c0,3.22,0,5.32.13,6.11-.22,5.23-.61,10.4-.76,15.45m-54.37-250c.06-.54.16-1.06.27-1.58a46.55,46.55,0,0,0,.92,9.19,121.4,121.4,0,0,0,3.56,13.39c1.56,4.95,3.3,10.3,4.67,16.08,2.81,11.54,4.32,22.28,5.55,30,1,6.87,1.86,11.41,2.34,12.31v.11c-.58-1-1.39-2.37-2.26-4.08a129,129,0,0,1-8.22-18,125.27,125.27,0,0,1-6.8-28.45,122.26,122.26,0,0,1-.84-17.39c.11-3,.23-6.14.57-9.28C37.15,175.11,37.22,174.32,37.3,173.53Zm18.45,81.31c-.29-1.51-.53-2.65-.71-3.35.05-2.06-.13-6-.54-11.23a199.14,199.14,0,0,0-4.69-30.49,162.12,162.12,0,0,0-5-16.19c-1.71-4.88-3.19-9.26-4.17-13a90.68,90.68,0,0,1-2.21-11,3.79,3.79,0,0,1,.31-.39,99.74,99.74,0,0,1,9.51,14.24q1,2,2.06,3.94c.59,1.34,1.18,2.66,1.77,4s1.07,2.64,1.57,3.95,1,2.61,1.39,3.93.79,2.61,1.19,3.89.63,2.58.94,3.85c.68,2.51,1,5,1.44,7.45.18,1.21.27,2.42.41,3.59s.31,2.34.33,3.49l.15,3.36c0,.55.07,1.09.07,1.63s0,1.08,0,1.6c-.05,2.11,0,4.12-.23,6s-.23,3.72-.53,5.4-.44,3.25-.7,4.69-.56,2.75-.81,3.93c-.12.59-.21,1.16-.34,1.68l-.39,1.46c-.22.9-.41,1.67-.57,2.3S55.81,254.52,55.75,254.84Zm36.3-27.37h0c-.4,2-.93,6.1-2,11.71-.38,2-.8,4.19-1.35,6.54s-1.13,4.84-1.76,7.48c-1.33,5.26-2.89,11.05-4.52,17.14s-3.09,11.93-4.23,17.26c-.53,2.68-1.06,5.22-1.41,7.61-.18,1.19-.39,2.34-.53,3.45s-.24,2.18-.36,3.2a73.82,73.82,0,0,0-.42,9.82,37.42,37.42,0,0,0-.71,3.68c0,.3-.09.61-.13.92a44.38,44.38,0,0,1-.84-5.12,53.68,53.68,0,0,1-.14-8.51c.19-3.34.65-7.16,1.27-11.4,1.21-8.46,3-18.53,5.69-29.63,1.34-5.55,2.92-11.35,4.74-17.33q1.36-4.48,2.92-9.1c.5-1.54,1.06-3.08,1.6-4.63l.2-.59c.07-.18.12-.32.19-.48a7.08,7.08,0,0,1,.49-.9,3,3,0,0,1,1.11-1.11C92,227.45,92,227.45,92.05,227.47ZM77,316.55c0-.43,0-.84,0-1.24a34.09,34.09,0,0,0-.26-4.14c.3-2.24.72-5.38,1.38-9.23.18-1,.37-2.05.56-3.14s.46-2.23.7-3.4c.46-2.35,1.08-4.85,1.68-7.49,1.28-5.26,2.81-11.05,4.44-17.13s3.12-11.92,4.3-17.25c.56-2.67,1.11-5.21,1.49-7.6s.74-4.6,1-6.64c.33-2.82.5-5.25.57-7.23,0,.64.1,1.28.11,1.93,0,1.54.12,3.08.08,4.61l0,2.29c0,.76-.07,1.52-.1,2.27a139.05,139.05,0,0,1-2.06,17.46c-2,11.14-4.7,21.13-6.87,29.54s-3.92,15.22-5,19.93c-.59,2.36-.89,4.22-1.35,5.37A6.33,6.33,0,0,1,77,316.55ZM55.2,107.11a27.54,27.54,0,0,1,1.93,2.36c.15.62.33,1.33.53,2.12.41,1.61,1,3.57,1.69,5.82s1.5,4.81,2.53,7.6,2.11,5.85,3.44,9.08,2.79,6.67,4.37,10.27c3.28,7.15,7.17,14.88,11.69,22.78s9.31,15.16,13.88,21.64c2.33,3.2,4.52,6.26,6.73,9s4.25,5.35,6.19,7.65,3.76,4.33,5.36,6.12,3,3.28,4.23,4.47c.78.78,1.44,1.43,2,2,.64,1.29,1.25,2.57,1.79,3.82-.21-.34-.43-.68-.67-1a70.69,70.69,0,0,0-10.16-11.18c-4.35-4-9.57-8.31-14.79-13.48a148.19,148.19,0,0,1-29.38-41.35,144.61,144.61,0,0,1-10-28c-.65-2.5-1.09-5.08-1.65-7.65s-.87-5.23-1.2-7.89c-.15-1.34-.29-2.68-.44-4l-.19-1.82s0,0,.1-.07a.08.08,0,0,1,.07,0h.05l.08.08.37.32C54.28,106.16,54.75,106.62,55.2,107.11Zm62.38,106.7c-2-2.5-4.55-5.74-7.55-9.64-1.81-2.37-3.8-5-5.83-7.81s-4.19-5.9-6.44-9.12c-4.39-6.51-9-13.77-13.55-21.59s-8.42-15.46-11.81-22.49c-1.65-3.54-3.26-6.88-4.61-10.07s-2.66-6.16-3.78-8.89c-1.8-4.4-3.26-8.15-4.4-11,.83,1.33,1.62,2.68,2.44,4l4.17,7,8.12,13.73c5.29,9,10.35,17.73,15.14,26.06,9.57,16.65,18,31.72,25.09,44.41C115.6,210.25,116.62,212.05,117.58,213.81Zm-7-92.34c-.1-4.71.06-7.43-.27-7.42,0,0-.11.11-.18.31.2-2.83.39-7,.58-12.22.37-10.12.87-24,1.42-39.36s1.24-29.25,1.66-39.37c.28-6.93.44-12,.36-14.56a3.78,3.78,0,0,0,.17-.35c1.64,7,3.24,13.75,4.79,20.34,1.77,7.63,3.68,14.94,5,22A77.23,77.23,0,0,1,125.48,71a136.56,136.56,0,0,1-2.64,17.91c-1.15,5.47-2.2,10.47-3.29,14.77a50,50,0,0,1-3.91,10.77,30.22,30.22,0,0,1-4.24,6.15C111.1,120.93,110.83,121.22,110.59,121.47ZM144,185a16.91,16.91,0,0,1-.36,2.13l-.2.4-.17.34C143.56,186.67,143.81,185.7,144,185Zm6.4-20.49a34,34,0,0,1-.36,5.22c-.7,1.7-1.29,3.26-1.78,4.65-1.81,5.17-2.57,8.05-2.39,8.09,0,0,0,0,0,0-.23.49-.45,1-.68,1.43,0-.13,0-.25.07-.38a20.78,20.78,0,0,0-.22-6.05,77.33,77.33,0,0,0-1.88-7.59,68.47,68.47,0,0,1-2.63-19.78,71.41,71.41,0,0,1,1.21-11.94,34.48,34.48,0,0,1,1.59-6.11,10.31,10.31,0,0,1,1.92-3.18c1.9,8.63,3.26,17,4.18,24.63A110,110,0,0,1,150.37,164.51Zm67.25-63.91c-.05.38-.11.76-.19,1.15l-.58.38a27.27,27.27,0,0,0-2.68,2.18,64.23,64.23,0,0,0-8.29,9.3c-3.12,4.17-6.38,9.34-10.08,14.94-1.87,2.79-3.86,5.69-6.13,8.54s-4.81,5.7-7.62,8.5c-5.52,5.64-11.29,10.69-16.34,15.49A139.8,139.8,0,0,0,153,174.48a64.56,64.56,0,0,0-3.91,5.34,49.42,49.42,0,0,0,2.2-5.41,34,34,0,0,0,1.56-7.16c.27-.55.54-1.08.84-1.65a58.49,58.49,0,0,1,7.61-11.06,165,165,0,0,1,12.14-11.76c2.26-2.09,4.6-4.32,6.82-6.77s4.37-5,6.51-7.69c4.28-5.33,8.52-11,13.77-16.25C205.24,107.39,211,103.06,217.62,100.6Zm-74.28,89.14c.35-.52.74-1.11,1.16-1.77l.72-1.16c-.52,1.23-.72,1.92-.59,2s1.11-1.26,2.62-3.64a94.69,94.69,0,0,1,7.43-9.51,176.5,176.5,0,0,1,13-12.78c5.13-4.68,11-9.69,16.63-15.46a108.37,108.37,0,0,0,7.8-8.8c2.33-3,4.32-6,6.14-8.85,3.62-5.73,6.63-10.93,9.46-15.13a95,95,0,0,1,9.5-12c-.14.46-.29.92-.48,1.38-1.37,3.43-3.83,6.65-6.12,10a83.94,83.94,0,0,0-6,10.24c-3.47,6.87-6.13,13.62-9.16,19.82a75.05,75.05,0,0,1-10.56,16.6A42.75,42.75,0,0,1,171,171.26c-5,2.38-9.86,4.11-13.89,6.26a24,24,0,0,0-9,7.31c-.95,1.27-1.42,2.5-2.11,3.34a3.72,3.72,0,0,1-2.2,1.5A2.93,2.93,0,0,1,143.34,189.74Zm.32,93.23c-3.42,4.06-6,7.19-7.31,9,.16-1.21.38-3.26,1-6.07A62.36,62.36,0,0,1,145,267a96.44,96.44,0,0,1,8.48-11.91c3.39-4.1,7.3-8.31,11.6-12.61s9-8.74,13.73-13.42c2.38-2.33,4.8-4.77,7.17-7.22,1.2-1.21,2.4-2.41,3.66-3.54l.48-.42c.2-.18.21-.16.27-.22a.61.61,0,0,1,.32-.08.63.63,0,0,1,.57.37.6.6,0,0,1,0,.4l-.39,1.15q-.4,1.14-.84,2.28c-.27.69-.55,1.38-.83,2.06-1.58,1.68-3.59,3.92-6,6.65-2.77,3.24-6,7.17-9.3,11.7s-6.56,9.74-10,15.05a135.22,135.22,0,0,1-10.66,14.4C149.74,275.9,146.39,279.72,143.66,283ZM3.26,226.56a2.33,2.33,0,0,1,.92-1.15,6.32,6.32,0,0,1,3.56-1.5,6.71,6.71,0,0,1,3.6.93A22.8,22.8,0,0,1,17.18,230a132.79,132.79,0,0,1,8,11.09c2.2,3.25,4.05,5.87,5.48,7.59l0,0a12.73,12.73,0,0,0,.73,1.81,6.41,6.41,0,0,0-1.94-1.05,29.64,29.64,0,0,0-4.33-1A19.56,19.56,0,0,1,20,246.81a21.06,21.06,0,0,1-5.18-3.6,24.79,24.79,0,0,1-2.36-2.52c-.37-.47-.73-.94-1.08-1.44s-.77-1.09-1.19-1.6c-1.67-2.1-3.59-4.08-5.18-6.27A10.53,10.53,0,0,1,3.26,228,2.58,2.58,0,0,1,3.26,226.56Z"/><path class="a" d="M128.56,445.4c8.49-.2,16.49-.34,23.89-.44l.15,0,2.23.29c.84.1,1.78.12,2.81.18s2.15,0,3.36,0c1.7-.11,3.59-.3,5.6-.62h1.25l26.5-.21,1.71,0,1.12.37a3.09,3.09,0,0,0,.13.81A3.44,3.44,0,0,0,198,447a4.48,4.48,0,0,0,1.39,1c1.09.56,2.42.74,3.69,1.32a20,20,0,0,1,8.05,6.31c2.63,3.13,5,7.21,8.32,11.44a35.64,35.64,0,0,0,6,6,42.23,42.23,0,0,0,7.79,4.83,72.23,72.23,0,0,0,19.17,5.7c6.91,1.2,14.18,1.86,21.52,3.19a81.39,81.39,0,0,1,11,2.73c3.66,1.19,7.46,2.7,11.77,3.09a16.32,16.32,0,0,0,6.62-.73l1.7-.58-.88-1.56a35.13,35.13,0,0,0-7.5-9.09,52.2,52.2,0,0,0-9.27-6.43c-6.46-3.56-13.07-5.87-19.16-8.29-3.05-1.2-6-2.41-8.77-3.73s-5.37-2.77-7.88-4.24a136.42,136.42,0,0,0-14.35-7.83,52.52,52.52,0,0,0-11.1-3.38c3.35-.91,6.74-2.15,10.29-3.45a258.19,258.19,0,0,0,24.91-10.81l1.75-.88,1.76-.89-1.33-1.44A8.94,8.94,0,0,0,260,427a13.57,13.57,0,0,0-3.76-.81,38,38,0,0,0-7,.27,78.9,78.9,0,0,0-12.68,2.45,76.86,76.86,0,0,0-19.85,8.77c-2.6,1.61-4.9,3.07-7,4.16a27.22,27.22,0,0,1-5.59,2.26l-.17,0a56.89,56.89,0,0,0-6.11-.5c0-.09.07-.15,0-.17s-.12,0-.25.16l-3.26-.16c-4.9-.23-11.53-.44-19.56-.61a81.37,81.37,0,0,0,14.11-6c7.05-3.78,14.2-8.84,21.53-14.22a242.88,242.88,0,0,1,21-14.36,125.74,125.74,0,0,1,18.7-8.89c4-1.5,7.47-2.61,10.31-3.46.32.24.73.54,1.27.87a24,24,0,0,0,7,2.85,48.47,48.47,0,0,0,11.83,1.19c4.62,0,9.81-.29,15.6-.6A144.48,144.48,0,0,0,315,398a83,83,0,0,0,10.32-2.66,110.42,110.42,0,0,0,10.49-4.12c7-3.18,14.08-6.92,21.49-10.64l22.88-11.66.65-.33,3.66-1.87-4-.91a131.2,131.2,0,0,0-25.63-3c-8.32-.24-16.31.08-23.89.44s-14.83.57-21.61,2a54.12,54.12,0,0,0-17.6,7.27c-4.94,3-9.16,6-12.94,8.55l-9.61,6.62c-5.26,3.66-8.11,5.77-8,5.94s3.18-1.6,8.63-5l9.9-6.2c3.86-2.4,8.18-5.3,13.09-8.13a53.08,53.08,0,0,1,17-6.66c6.47-1.23,13.67-1.29,21.25-1.63s15.49-.55,23.68-.27a144.66,144.66,0,0,1,18,1.62c-2.93.4-7.25,1.11-12.63,2.09-10.37,1.88-24.63,4.82-40.29,8.54s-29.71,7.49-39.82,10.46c-9.1,2.67-15,4.66-16,5.31l-.75.12a96.87,96.87,0,0,0-13.78,3.48,111,111,0,0,0-19.36,8.49,206.92,206.92,0,0,0-21.44,14.34c-7.33,5.38-14.32,10.42-21.1,14.22a80.24,80.24,0,0,1-19,7.92c-.54.14-1.07.26-1.6.38-5.52-.08-11.54-.14-18-.15a50.1,50.1,0,0,0,9.72-4.76,92.41,92.41,0,0,0,8.09-5.66c2.77-2.13,5.55-4.53,8.5-7,11.78-9.89,25.71-21.79,41-35.22,7.64-6.71,15.62-13.8,23.85-21.21l12.5-11.34q3.16-2.89,6.37-5.83c2.13-2,4.32-3.9,6.41-6.1a38.1,38.1,0,0,0,3-3.47c.46-.61.89-1.25,1.3-1.9l.3-.5.08-.13.11-.23a2.29,2.29,0,0,0,.19-.48,3.07,3.07,0,0,0-.12-2.05,3.19,3.19,0,0,0-1.36-1.52,3,3,0,0,0-2.07-.32l-.47.13-.25.1-.51.2-1,.39-4.05,1.55c-2.68,1.07-5.28,2.25-7.88,3.38s-5.12,2.42-7.57,3.75a175,175,0,0,0-26.95,17.48,172,172,0,0,0-36.76,39.8c-4.28,6.46-7.58,12.61-10.74,17.8a87.79,87.79,0,0,1-9,12.65,48.16,48.16,0,0,1-5.88,5.61,43.79,43.79,0,0,1-11,4.87c-4.27,0-8.73,0-13.32.1,2.19,0,.35.36.33.4s-1.1.29-1.07.31c-.8,0-2.08.79-2.89.8M266,340.16c-.63.84-1.33,1.65-2,2.44l-2.05,1.09c-1.56.83-3.44,1.88-5.58,3.18s-4.61,2.73-7.24,4.47-5.55,3.59-8.58,5.72-6.26,4.45-9.62,6.92c-6.65,5-13.79,10.79-21,17.19s-13.72,12.88-19.47,18.92c-2.83,3.06-5.55,6-8,8.77s-4.66,5.44-6.65,7.88-3.73,4.71-5.26,6.69-2.79,3.73-3.79,5.18c-.66.94-1.19,1.73-1.63,2.4-1.2,1-2.38,1.88-3.55,2.73l.91-.91a82.25,82.25,0,0,0,9.55-12.56c3.32-5.16,6.75-11.21,11.07-17.5a175.23,175.23,0,0,1,63.31-55.87c2.42-1.3,5-2.42,7.45-3.65s5.12-2.27,7.75-3.31c1.33-.51,2.65-1,4-1.52l1.8-.69s0,0,.09.08a.09.09,0,0,1,0,.07v0l-.07.11-.26.43C266.83,339,266.44,339.61,266,340.16Zm-97,87.65c2.18-2.53,5-5.83,8.44-9.7,2.08-2.34,4.35-4.91,6.88-7.59s5.24-5.54,8.1-8.52c5.82-5.89,12.36-12.22,19.47-18.6s14.17-12.13,20.68-17.24c3.29-2.51,6.39-4.94,9.38-7.08s5.76-4.18,8.32-6c4.15-2.89,7.67-5.29,10.41-7.15-1.2,1.13-2.43,2.25-3.65,3.38l-6.36,5.83-12.46,11.36c-8.2,7.43-16.13,14.56-23.71,21.32-15.17,13.53-28.94,25.59-40.54,35.68C172.26,425,170.62,426.43,169,427.81Zm92-32.12c4.73-1.4,7.5-2,7.44-2.31,0,0-.13-.07-.35-.08,2.9-.6,7.15-1.59,12.44-2.85l40-9.6,40-9.38c7.05-1.66,12.23-2.94,14.76-3.71l.38.07L356,377.93c-7.39,3.76-14.45,7.57-21.3,10.74a90.76,90.76,0,0,1-20.16,6.87A151.19,151.19,0,0,1,296,398.05c-5.72.45-10.94.86-15.47,1a52.31,52.31,0,0,1-11.55-.65,28.34,28.34,0,0,1-6.92-2.24Zm-58.42,48.69a22,22,0,0,1-2.21.26l-.44-.08-.37-.06C200.86,444.47,201.87,444.43,202.61,444.38Zm21.78.27a37.53,37.53,0,0,1-5.33,1.11c-1.83-.18-3.51-.29-5-.36-5.53-.25-8.57-.16-8.58,0l0,0-1.56-.23.4,0a24.77,24.77,0,0,0,6.07-1.89c2.26-1,4.7-2.37,7.34-3.86a82,82,0,0,1,19.51-7.93,80.75,80.75,0,0,1,12.27-2.19,35.73,35.73,0,0,1,6.43-.21,9.87,9.87,0,0,1,3.55.9c-8.39,4.17-16.58,7.75-24.15,10.72C231.51,442.23,227.85,443.67,224.39,444.65Zm76,44.85a11.57,11.57,0,0,1-1.2.15c-.12-.12-.28-.26-.48-.43a22.41,22.41,0,0,0-2.65-1.89,57.23,57.23,0,0,0-10.82-5.13c-4.74-1.76-10.52-3.35-16.8-5.25-3.14-1-6.41-2-9.68-3.33a107.86,107.86,0,0,1-9.88-4.73c-6.64-3.58-12.72-7.54-18.44-10.91a124.12,124.12,0,0,0-15.71-8.16,57,57,0,0,0-6.06-2.15,54.7,54.7,0,0,0,5.83.54,37.17,37.17,0,0,0,7.5-.54l1.81.33a54.79,54.79,0,0,1,12.47,4,146.24,146.24,0,0,1,14,8c2.5,1.53,5.15,3.08,8,4.47s5.82,2.68,8.88,3.93c6.12,2.5,12.62,4.87,18.76,8.31C291.45,479.87,296.81,484,300.43,489.5ZM197.72,445.11c.59.18,1.24.38,2,.59L201,446c-1.33-.13-2.06-.13-2.08,0s1.46.68,4.12,1.43a85.21,85.21,0,0,1,10.87,4.28,153.85,153.85,0,0,1,15.14,8.58c5.6,3.47,11.66,7.52,18.46,11.18a94.15,94.15,0,0,0,10.21,4.82c3.42,1.34,6.78,2.36,10,3.26,6.42,1.77,12.18,3.14,16.91,4.61a86.67,86.67,0,0,1,13.76,5.5q-.72,0-1.47-.06c-3.7-.33-7.37-1.73-11.1-2.94a83.7,83.7,0,0,0-11.37-2.79c-7.53-1.32-14.8-1.92-21.59-3a71.64,71.64,0,0,1-18.56-5.22,36.24,36.24,0,0,1-13.17-9.95c-3.26-4-5.84-8-8.7-11.2a20.64,20.64,0,0,0-8.91-6.31c-1.45-.54-2.77-.64-3.73-1a3.19,3.19,0,0,1-1.9-1.63A2.76,2.76,0,0,1,197.72,445.11Z"/><path class="a" d="M133.06,443.07m-.51-.54c-3.63,1.61-9.6,2.46-12.8,4.1a69.38,69.38,0,0,0-8.45,3.44,57.17,57.17,0,0,0-6.2,3.52l2-2.22,5.17-5.67c1.79-2,3.59-4.09,5.49-6.25,3.82-4.3,7.73-9,11.88-14,8.19-10,17-21.22,25.78-33.24s16.9-23.74,24.09-34.49L180.7,356s0,0,0,0,.12-.14.24-.44c2.22-3.34,4.35-6.59,6.38-9.71a38.44,38.44,0,0,1,8.8-5.79,42.05,42.05,0,0,1,6.88-1.65,77,77,0,0,1,13.53-.59c5.3.14,11.37.63,18.13.55a149.92,149.92,0,0,0,46.57-8.1,152.79,152.79,0,0,0,25.57-11.47c2.13-1.17,4.19-2.51,6.32-3.78s4.17-2.72,6.22-4.17l3-2.24.77-.56.38-.28.2-.14a3.56,3.56,0,0,0,.31-.28,2.58,2.58,0,0,0,.75-1.67,2.72,2.72,0,0,0-.47-1.71,2.64,2.64,0,0,0-1.45-1.06,1.72,1.72,0,0,0-.44-.09l-.22,0h-.13l-.51,0q-1,0-2,.06a34.23,34.23,0,0,0-3.94.52c-2.6.49-5.06,1.18-7.51,1.81l-7.28,1.91-14.23,3.8c-9.32,2.52-18.3,5-26.84,7.43-17.07,4.85-32.39,9.42-45.21,13.37-3.2,1-6.27,1.9-9.15,2.92a84.77,84.77,0,0,0-8,3.25,44.51,44.51,0,0,0-8.09,4.87c3.05-4.73,5.86-9.17,8.41-13.26.34-.33.67-.66,1-1a70.36,70.36,0,0,1,14.79-10.15A189.3,189.3,0,0,1,234,309.61a181.29,181.29,0,0,0,20.66-8.93A96.88,96.88,0,0,0,270,290.52a86.25,86.25,0,0,0,7.92-7.23c.78,0,4-.8,8.53-2.64l9.4-3.92c3.65-1.56,7.85-3.23,12.4-5.43a47.18,47.18,0,0,0,13.65-9.46c4.23-4.31,7.78-9.57,11.67-14.9s7.87-11.1,11.63-17.3a114.65,114.65,0,0,0,9.95-20.2l1.23-3.37-3.11,1.8-.55.31-19.37,11.25c-6.24,3.67-12.32,7.07-18,10.72a96.89,96.89,0,0,0-8,5.73,74.29,74.29,0,0,0-6.83,6.3A126.46,126.46,0,0,0,290.05,255c-3,4.09-5.62,7.77-7.83,11.15a42.86,42.86,0,0,0-4.73,9.23,21.31,21.31,0,0,0-1.21,6.45c0,.55,0,1,0,1.35-2,1.67-4.43,3.7-7.41,5.91a109,109,0,0,1-15.37,9.49,208.23,208.23,0,0,1-20.48,8.63,164.11,164.11,0,0,0-20.62,9.05,70.55,70.55,0,0,0-11.1,7.48c3.67-6,6.66-10.93,8.81-14.63l1.43-2.46c.16,0,.24-.09.23-.11s-.05,0-.14-.05a46.9,46.9,0,0,0,2.52-4.72l.11-.11a24.07,24.07,0,0,1,4.29-3c1.8-1,4-2,6.37-3.16a67.22,67.22,0,0,0,15.83-10.4,68,68,0,0,0,7.79-8.13,32.82,32.82,0,0,0,3.51-5,12,12,0,0,0,1.19-3.14,7.92,7.92,0,0,0-.06-3.62l-.43-1.66-1.48.87-1.47.87a224.16,224.16,0,0,0-19.72,13.14c-2.63,2-5.15,3.89-7.4,5.91a45.82,45.82,0,0,0,2.77-9.74,118.59,118.59,0,0,0,1.06-14.22c.11-2.54.27-5.13.63-7.78s.85-5.39,1.41-8.19c1.11-5.62,2.54-11.56,3-18a45.2,45.2,0,0,0-.32-9.83,30.38,30.38,0,0,0-3.12-9.8l-.72-1.38-1.22,1a14.3,14.3,0,0,0-3.68,4.5c-1.75,3.35-2.44,6.85-3.31,10.09a70.32,70.32,0,0,1-3.19,9.34c-2.5,6-5.45,11.65-7.84,17.27a63.15,63.15,0,0,0-4.9,16.75,36.47,36.47,0,0,0-.15,8,31.22,31.22,0,0,0,1.6,7.22c1.54,4.41,3.39,8.1,4.43,11.51s1.47,10.93,1.36,12a4.85,4.85,0,0,0,0,1.61c.12.46-.31,1.56-.13,1.69-.1.37-.18.7-.25,1l-.83,1.25c-3,4.58-7.34,11.18-12.7,19.32l-.6.92a47.37,47.37,0,0,0-3.1,3.81c-.59.87-1.15,1.67-1.62,2.44s-.87,1.48-1.2,2.14l-.83,1.78-.05.12c-3.58,5.38-7.47,11.17-11.64,17.3-7.29,10.65-15.4,22.28-24.2,34.29-5.57,7.59-11.09,14.86-16.44,21.74a57.41,57.41,0,0,0,2.42-6,66.32,66.32,0,0,0,2.82-13.59c.5-4.19.86-7.93,1.33-11,.7-5,.09-6,.29-7.22l.38-.3a32.75,32.75,0,0,0,3.57-3.51,51,51,0,0,0,9.21-15.92,76.35,76.35,0,0,0,3.41-12.28,134.75,134.75,0,0,0,1.89-14.45c.43-5.1.69-10.45,1-16,.18-2.76.39-5.54.64-8.4.12-1.44.22-2.91.23-4.41a7.87,7.87,0,0,0-.06-1.36,3,3,0,0,0-.94-1.64,3.16,3.16,0,0,0-3.5-.5,3.28,3.28,0,0,0-1.31,1.24l-.57,1c-.38.64-.74,1.29-1.09,1.94-.71,1.29-1.36,2.6-2,3.9-1.25,2.61-2.39,5.19-3.53,7.71-2.26,5.06-4.44,9.94-6.51,14.59a130.81,130.81,0,0,0-5.38,13.55,51,51,0,0,0-2.42,12.57,47.74,47.74,0,0,0,2.41,18.24,37,37,0,0,0,1.91,4.63c.54,1,.86,1.52.94,1.48s-.79-2.27-1.88-6.4a50.32,50.32,0,0,1,1.09-29.85,140.52,140.52,0,0,1,5.51-13.23l6.66-14.52c.77-1.69,1.54-3.39,2.34-5.1l-.54,2.46c-.77,3.48-1.68,7.62-2.89,12.14s-2.84,9.4-4.42,14.66A94.35,94.35,0,0,0,144.69,352c-.65,4.71-1,8.94-1.38,12.5a91.75,91.75,0,0,0-.67,11.23c-.78,1.6-.16,2-1,5.73-.71,3.14-1.28,6.92-1.9,11a75.38,75.38,0,0,1-2.91,13.1,88.42,88.42,0,0,1-9.76,19.24c-3.82,4.67-7.43,9.15-10.95,13.25-1.85,2.18-3.61,4.32-5.36,6.33l-5,5.76c-2.8,3.27-5.45,6.15-7.81,8.78-1.06.89-2.11,1.79-3.14,2.73-3.49,3.15-6.72,6.41-9.9,9.57a61.82,61.82,0,0,0,6.71-11.52,47.07,47.07,0,0,0,3.3-10.49,38,38,0,0,0,.6-5,8.65,8.65,0,0,0,3.08-.9,24.3,24.3,0,0,0,7.37-5.2,37.66,37.66,0,0,0,7.45-11.1,101.81,101.81,0,0,0,5.21-15.32l.74-2.65-2.47,1.08-.06,0a34.91,34.91,0,0,0-13.36,9.64,37.78,37.78,0,0,0-4.15,5.89,35.93,35.93,0,0,0-2.56,5.71c-.34,1-.61,1.92-.84,2.82a119.48,119.48,0,0,0,.68-13.48,65,65,0,0,0-.77-10.57A42.33,42.33,0,0,0,92,398.53c-1.85-3.87-4.13-7.69-6.11-11.76a46.3,46.3,0,0,1-2.59-6.3,4,4,0,0,0-.53-1.16,2.89,2.89,0,0,0-1.19-1,3.2,3.2,0,0,0-2.92.11,3.16,3.16,0,0,0-1.12,1.12,3.61,3.61,0,0,0-.4,1.31c-.11.64-.17,1.28-.22,1.92-.31,5.14.65,9.84.76,14.33a82.93,82.93,0,0,1-.49,13c-.24,2.07-.56,4.07-.93,6s-.82,3.87-1,5.84a13.73,13.73,0,0,0,.56,5.79,14.69,14.69,0,0,0,2.66,4.62,45.88,45.88,0,0,0,6.4,6,51.52,51.52,0,0,0,5.28,3.93,14.19,14.19,0,0,0,3.79,1.8l.22.05c-.24,1.33-.56,2.9-1,4.64a63,63,0,0,1-10.39,21,141.35,141.35,0,0,1-16,17.53c-1.9,1.83-3.49,3.36-4.67,4.54-7.17,5.82-14,10.79-20,14.88-7.34,5-13.49,8.76-17.75,11.33s-6.65,4-6.56,4.14,2.62-1,7.05-3.26,10.76-5.83,18.28-10.67a266.23,266.23,0,0,0,25.33-18.58c4.55-3.79,9.21-7.9,13.87-12.35,3.35-3.16,6.64-6.52,10.07-9.83.6-.42,2-1.7,4.24-3.64a104.85,104.85,0,0,1,13-9.32c2.56-1.56,5.44-3.13,8.54-4.7,3.8-1.45,12.56-3.52,16.3-4.47m82-111c12.88-3.73,28.24-8.11,45.33-12.82,8.55-2.36,17.53-4.8,26.85-7.28l14.23-3.76,7.28-1.9,4.21-1.08c-2.67,1.13-6.09,2.58-10.17,4.24-2.54,1-5.31,2.15-8.33,3.27s-6.23,2.3-9.63,3.52c-6.83,2.35-14.39,4.77-22.42,7s-15.78,4-22.85,5.47c-3.55.69-6.91,1.38-10.08,1.9s-6.12,1-8.82,1.46c-4.46.67-8.22,1.19-11.11,1.59C212.78,335.46,214.61,334.94,216.51,334.39ZM281,282.5c1-.43,3.8-6.84,10.07-12.25,7-6,13.32-12.9,23.44-22.61s15.55-12.76,21.84-19.47c3.27-3.48,13.8-10.91,15.47-12.87-2.16,4.89-4.1,5.4-7.91,8.85a122.93,122.93,0,0,0-11,10.71c-4.4,4.89-12.06,10.3-16,14.46s-7.91,7.08-11.79,11a51.54,51.54,0,0,1-6.71,5.92c-3.11,2.46-6,5.77-8.59,8.12-3.19,2.9-8.93,9.1-10,9.55.29-.31.57-.6.82-.88Zm-68,10a87.76,87.76,0,0,0,.87-13.71c0-5.19-.22-10.9.06-16.76a73.71,73.71,0,0,1,.82-8.42c.45-2.67,1.09-5.2,1.74-7.6,1.33-4.81,2.65-9.15,3.42-12.93s.77,3.78-.05,8.78c-.41,2.5-2,7.57-2.24,10s-.9,7.1-.88,9.4c.06,4.6.77,5.54.34,9.27s.55,7.13-.52,9.85c-.17.45-.27,6.73-.45,7.15-.77,2.4-1.11,4.44-2,5.91s-.87,4.34-1.45,5.57C213,297.6,212.72,294.28,213,292.48Zm2,9.38c-.08.09-.91,0-1,.07.25-.44.91-.59,1.12-1,0,0,.26-.22.27-.22s1.61-1.9,4-6.07c.65-1.12,1.37-2.4,2.1-3.83a32.18,32.18,0,0,1,3.34-3.38c2.36-2.08,5.15-4.08,8.07-6.19,5.76-4.14,12.26-8.45,19.28-12.63a8.47,8.47,0,0,1-1,3,31.74,31.74,0,0,1-3.2,4.61,69.72,69.72,0,0,1-22.46,18.5c-2.34,1.24-4.5,2.37-6.3,3.56A21.17,21.17,0,0,0,215,301.86ZM95.52,444.54a19.11,19.11,0,0,1-3.4-2.14c-1.4-1.06-3-2.47-4.89-4.19a50.1,50.1,0,0,1-5.92-6,12.88,12.88,0,0,1-2.18-4.09,11.74,11.74,0,0,1-.33-4.95c.21-1.78.67-3.63,1.1-5.61s.78-4,1.06-6.17a80.37,80.37,0,0,0,.66-13.42c-.1-4.69-1-9.43-.71-14.05,0-.58.1-1.15.19-1.71a1.23,1.23,0,0,1,.1-.42,1,1,0,0,1,.14-.15h0c.41,1.32,1.61,4.22,2.84,8.4a65.76,65.76,0,0,1,2.06,10.1c.23,1.93.39,4,.43,6.06s0,4.31-.11,6.59A68.53,68.53,0,0,0,87,425.81a36.25,36.25,0,0,0,3.2,10.3c2.37,4.81,4.85,7.39,5.6,7.85,0,.21-.07.42-.11.63ZM97,444c.13-.49.28-1.44.51-2.78A38.77,38.77,0,0,1,99.9,433a36.37,36.37,0,0,1,6.79-10.67,34.83,34.83,0,0,1,10.09-7.69A101.39,101.39,0,0,1,112.64,427a39.55,39.55,0,0,1-6.6,10.81,29.26,29.26,0,0,1-6.5,5.57c-1.36.85-2.3,1.33-2.6,1.59C97,444.62,97,444.33,97,444Z"/></svg>