<svg xmlns="http://www.w3.org/2000/svg" viewBox="0 0 24.54 18.16"><defs><style>.a{fill:#c5986e;}</style></defs><title>Recurso 20watercolor</title><path class="a" d="M24.48,15.16a36.41,36.41,0,0,0-.87-3.57A15.89,15.89,0,0,0,20.29,6a8.21,8.21,0,0,0-4.15-2.68l-.31-.1a1,1,0,0,1-.73-.74c-.1-.39-.2-.79-.33-1.18a4.69,4.69,0,0,0-.43-.94.6.6,0,0,0-1-.09,1.54,1.54,0,0,0-.3.42c-.16.36-.28.74-.43,1.1A8.26,8.26,0,0,1,12,3a5.9,5.9,0,0,1-1.92,1.8c-.78.48-1.59.91-2.4,1.32-1.09.53-2.21,1-3.3,1.54a7.89,7.89,0,0,0-3,2.38A6.43,6.43,0,0,0,0,13.92c0,.24-.06.51.2.73H.55c.54-.06,1.07-.11,1.6-.18A13.85,13.85,0,0,0,4.93,14l1.53-.55a8.6,8.6,0,0,0,.29,3.9.57.57,0,0,0,.69,0,4.57,4.57,0,0,0,1-.68,6.14,6.14,0,0,0,1.45-2.57l.18-.55c.25.84.46,1.59.68,2.34a20.36,20.36,0,0,0,.63,2.21.75.75,0,0,0,.8-.21,4.08,4.08,0,0,0,1.12-1.45c.22-.45.42-.92.63-1.37.06-.14.14-.27.25-.48.12.34.19.59.29.83a5.59,5.59,0,0,0,1.79,2.4.79.79,0,0,0,1.38-.42,10.67,10.67,0,0,0,.26-1.25,9.93,9.93,0,0,0,0-4,1.55,1.55,0,0,1,0-.26l.23.28a14.72,14.72,0,0,0,5.37,4.31.89.89,0,0,0,.77.11A1.63,1.63,0,0,0,24.48,15.16ZM3.78,14c-1.14.18-2.3.28-3.44.42A.81.81,0,0,1,.2,13.7a6.7,6.7,0,0,1,3-5,16.52,16.52,0,0,1,2-1.12C6.4,7,7.61,6.43,8.8,5.85A10.2,10.2,0,0,0,11.51,4a1.19,1.19,0,0,1,1-.44,6,6,0,0,1-1.59,1.83c-1,.7-1.94,1.39-2.93,2.05C6.8,8.18,5.63,8.9,4.5,9.67a13.06,13.06,0,0,0-2.09,1.77c.65-.48,1.27-1,1.94-1.45,1.35-.9,2.73-1.76,4.1-2.63.5-.32,1-.65,1.48-1L9,7.15A37.86,37.86,0,0,0,4.64,11c-.15.16-.29.32-.43.49,1.91-1.86,4-3.45,6-5.16a24,24,0,0,0,2.05-2.1v0l.09-.09h0l0-.06c.08-.12.16-.24.23-.37a.8.8,0,0,1-.08.52c-.62,1.34-1.21,2.7-1.88,4a16,16,0,0,1-3.1,4A6.64,6.64,0,0,1,3.78,14Zm6.19-2A6.9,6.9,0,0,1,8.2,16.59a2.12,2.12,0,0,1-1.26.69c-.1-.46-.21-.87-.27-1.28a5.21,5.21,0,0,1,0-2.29A1.42,1.42,0,0,1,7,13,17.84,17.84,0,0,0,10,9.8l.16-.2A22.83,22.83,0,0,0,8,14.74L10.27,9.6c-.08.45-.16.85-.21,1.25S10,11.67,10,12.07Zm3,4.31a6.44,6.44,0,0,1-.91,1.25,3.23,3.23,0,0,1-.61.44c-.11-.42-.18-.72-.26-1C11,16,10.61,15,10.39,13.91a8.25,8.25,0,0,1,.38-5c.61-1.46,1.26-2.89,1.91-4.32a2.29,2.29,0,0,1,.58-.73.65.65,0,0,1,.29-.16c-1.17,3-2.34,6-2.51,9.33.07-.4.15-.8.23-1.19a33.12,33.12,0,0,1,1.4-5.28c0-.06,0-.13.07-.19a23.94,23.94,0,0,0-.65,4.41q.5-2.7,1-5.38c.13-.39.28-.77.4-1.16a4.75,4.75,0,0,0,.14-.54.55.55,0,0,1,.35,0A22.15,22.15,0,0,1,14,9a37.24,37.24,0,0,1-1.12,5.33.84.84,0,0,0,.1-.15A24,24,0,0,0,14.19,9c.11-1.18.09-2.39.1-3.58a9,9,0,0,0-.15-1.26,1.89,1.89,0,0,0-.05-.23,1.2,1.2,0,0,1,.12.11,1.58,1.58,0,0,1,.29.48,11.81,11.81,0,0,1,.86,5.45,8.72,8.72,0,0,1-.62,2.56C14.19,13.8,13.63,15.1,13,16.38Zm4.43.76c-.2.83-.64,1-1.27.4a5.74,5.74,0,0,1-1.81-2.88,1.16,1.16,0,0,1,.07-.82,13.92,13.92,0,0,0,1-3.08A9.94,9.94,0,0,0,15.6,9.7q.33,3,.65,5.77a37.3,37.3,0,0,0-.62-6.62c0-.38,0-.77-.07-1.15a1.31,1.31,0,0,1,0-.28c.34,1.72.69,3.45,1,5.22a22.26,22.26,0,0,0-1-5.36h0c.08.17.15.34.22.51A27.38,27.38,0,0,0,17.23,11a6,6,0,0,1,.59,2.42A12.11,12.11,0,0,1,17.45,17.14ZM24.26,16a1.86,1.86,0,0,1-.2.53c-.23-.09-.4-.15-.55-.22A13.66,13.66,0,0,1,17,9.87a38.71,38.71,0,0,1-2.12-5.55A1.18,1.18,0,0,1,14.78,4,.65.65,0,0,1,15,3.48a1,1,0,0,0,0,.35,7,7,0,0,0,.88,2.07,44.48,44.48,0,0,0,4.66,6.72c.32.38.65.74,1,1.12a.19.19,0,0,0,0-.19A51.41,51.41,0,0,1,16.15,6c-.39-.69-.69-1.44-1-2.17a1.09,1.09,0,0,1-.07-.32,34.47,34.47,0,0,1,5.4,6.14A21,21,0,0,0,15.1,3.41c.34.18.61.31.85.47a14.69,14.69,0,0,1,3.91,3.75c.66.94,1.24,1.93,1.86,2.91l.19.26c-.43-.9-.94-1.75-1.45-2.6a14.2,14.2,0,0,0-4-4.17,4.61,4.61,0,0,0-1.31-.67.8.8,0,0,1,.44,0A9.22,9.22,0,0,1,21,7.14,17.43,17.43,0,0,1,24.24,15,4.43,4.43,0,0,1,24.26,16Z"/></svg>