<svg xmlns="http://www.w3.org/2000/svg" viewBox="0 0 215.12 448.05"><defs><style>.a{fill:#e9b255;}</style></defs><title>Recurso 2watercolor</title><path class="a" d="M131.93,356.21a4.89,4.89,0,0,1-.77-.89,9.87,9.87,0,0,1-.86-1.18,18.38,18.38,0,0,1-1.05-1.72A27.93,27.93,0,0,1,126,339.54a50.08,50.08,0,0,1,.76-9.64,87,87,0,0,1,2.79-11.13c2.45-7.87,6.14-16.47,9.92-26.06,15.31-38.33,37.14-91,63.07-148.44A53.45,53.45,0,0,1,208.61,134c.31-.4.63-.78,1-1.16a3.8,3.8,0,0,1,.67-.65,2.87,2.87,0,0,1,.93-.45,3.08,3.08,0,0,1,3.55,1.4,2.9,2.9,0,0,1,.35,1,4.4,4.4,0,0,1,.05.51c0,.17,0,.26,0,.39L215,136.5l-.12,2.89c-.09,1.92-.14,3.84-.27,5.74s-.33,3.8-.49,5.69c-.25,3.78-.85,7.5-1.3,11.2A229.38,229.38,0,0,1,203,203.77,231.56,231.56,0,0,1,169.52,268c-.77,1-1.53,2.07-2.27,3.09L164.91,274c-1.55,1.91-3,3.8-4.53,5.58a130.54,130.54,0,0,1-9.16,9.47c-5.95,5.64-11.1,10.47-14.42,15.15a37.65,37.65,0,0,0-6,11.69l-.34,1-.22.9c-.14.56-.26,1-.35,1.41a6.65,6.65,0,0,1-.34,1.13,5.4,5.4,0,0,1,.16-1.17c.07-.39.15-.86.26-1.43.05-.29.11-.59.18-.92s.19-.67.3-1a36.37,36.37,0,0,1,5.76-12c3.29-4.82,8.42-9.78,14.29-15.47a130,130,0,0,0,9-9.5c1.49-1.76,2.93-3.67,4.46-5.58l2.29-2.93c.74-1,1.48-2,2.23-3.09a233.21,233.21,0,0,0,32.89-64,230.12,230.12,0,0,0,9.73-41.46c.44-3.67,1-7.36,1.27-11.12q.24-2.81.48-5.64c.13-1.89.17-3.79.26-5.7l.12-2.86.07-1.44a4.26,4.26,0,0,0,0-.55,1.18,1.18,0,0,0-.14-.37,1.29,1.29,0,0,0-1.46-.56,1.15,1.15,0,0,0-.37.18,1.81,1.81,0,0,0-.36.37c-.31.35-.62.71-.9,1.09a52,52,0,0,0-5.88,9.89c-25.89,57.34-47.92,110-63.52,148.14-3.86,9.57-7.63,18.11-10.15,25.88a87.27,87.27,0,0,0-2.9,11,49.26,49.26,0,0,0-.91,9.47,28.48,28.48,0,0,0,2.89,12.72C131,354.93,132,356.15,131.93,356.21Z"/><path class="a" d="M107.26,273.78a7.13,7.13,0,0,1-1.18-1.51c-.71-1-1.75-2.56-3-4.56s-2.82-4.49-4.45-7.46a72.23,72.23,0,0,1-4.76-10.52A50,50,0,0,1,91,236c-.35-5-.15-10.41,0-16,.44-11.25,1.46-23.6,3.26-36.48.14-.91.27-1.83.39-2.68l.17-1.2,1.1.5a10.83,10.83,0,0,1,4,3.12,17.4,17.4,0,0,1,2.5,4.2,50.39,50.39,0,0,1,2.6,8.88,105.82,105.82,0,0,1,2.35,17.12,107.91,107.91,0,0,1-.31,15.6A114.53,114.53,0,0,1,105,242.39a94,94,0,0,0-1.82,10.88,35.75,35.75,0,0,0,.1,8.25c.66,4.51,2,6.74,1.83,6.82a7.21,7.21,0,0,1-.93-1.61,22.6,22.6,0,0,1-1.6-5.09,35,35,0,0,1-.41-8.45,90.75,90.75,0,0,1,1.58-11.05,118.6,118.6,0,0,0,1.89-13.27,111.56,111.56,0,0,0,.13-15.36,107.1,107.1,0,0,0-2.41-16.83,50.21,50.21,0,0,0-2.53-8.54c-1.16-2.7-3-5.23-5.6-6.38l1.27-.7c-.12.84-.25,1.75-.39,2.67-1.79,12.81-2.86,25.1-3.38,36.29-.24,5.6-.49,10.93-.21,15.86a50,50,0,0,0,2.54,13.43,75.93,75.93,0,0,0,4.45,10.46c1.52,3,3,5.51,4.15,7.57l2.74,4.73A8.25,8.25,0,0,1,107.26,273.78Z"/><path class="a" d="M105.13,270.4s0,.08-.07.21a1.55,1.55,0,0,1-.4.51,1.15,1.15,0,0,1-1.07.19,4.61,4.61,0,0,1-1.33-.64,17.09,17.09,0,0,1-1.51-1,9.73,9.73,0,0,1-1.5-1.66c-.48-.64-.93-1.37-1.45-2.09s-1.12-1.47-1.83-2.19a24.72,24.72,0,0,0-5.24-4.15,42.4,42.4,0,0,0-7.28-3.34c-2.72-1-5.69-1.87-8.85-2.81A99.24,99.24,0,0,1,64.65,250a52.69,52.69,0,0,1-19.28-14.41,89.51,89.51,0,0,1-8-10.81c-2.48-3.9-4.76-8.08-7-12.4-4.42-8.65-8.5-18-13.86-27-1.35-2.24-2.76-4.47-4.3-6.62s-3.2-4.29-4.82-6.5a55.33,55.33,0,0,1-4.53-7,23,23,0,0,1-2.7-8.18,20.33,20.33,0,0,1-.13-2.3L0,153.72l1.15.22A47.4,47.4,0,0,1,16.6,160a74.9,74.9,0,0,1,12.66,9.87c7.59,7.3,13.68,15.35,19.94,22.53a135.73,135.73,0,0,0,9.54,10.08c3.28,3.08,6.63,5.9,9.86,8.67,6.45,5.52,12.41,10.93,16.56,17a129,129,0,0,1,9.54,17.06c2.48,5.18,4.43,9.72,6,13.45s2.68,6.65,3.42,8.64c.37,1,.63,1.76.81,2.27a3,3,0,0,1,.22.8,2.72,2.72,0,0,1-.39-.73c-.23-.51-.56-1.24-1-2.2-.86-2-2.11-4.82-3.73-8.5s-3.69-8.17-6.24-13.28a133.23,133.23,0,0,0-9.68-16.77c-4.1-5.85-10-11.14-16.49-16.59-3.24-2.74-6.63-5.55-10-8.65a132.56,132.56,0,0,1-9.72-10.15c-6.33-7.2-12.44-15.19-19.9-22.33a73,73,0,0,0-12.37-9.61A45.53,45.53,0,0,0,.81,155.73l1.08-.89c.05.65,0,1.37.13,2.07a21.28,21.28,0,0,0,2.49,7.54,54.11,54.11,0,0,0,4.39,6.78c1.59,2.18,3.27,4.31,4.82,6.53s3,4.48,4.37,6.75c5.42,9.14,9.47,18.51,13.82,27.12,2.17,4.32,4.39,8.45,6.82,12.31a88.07,88.07,0,0,0,7.79,10.68,51.68,51.68,0,0,0,18.63,14.21,100.35,100.35,0,0,0,9.79,3.46c3.14,1,6.13,1.91,8.87,3a43.16,43.16,0,0,1,7.37,3.55,24.92,24.92,0,0,1,5.31,4.42c.71.76,1.26,1.59,1.82,2.31s.94,1.49,1.38,2.13a9.17,9.17,0,0,0,1.36,1.63,16.73,16.73,0,0,0,1.42,1.08,4.73,4.73,0,0,0,1.19.67,1,1,0,0,0,.89-.07C105,270.66,105.09,270.37,105.13,270.4Z"/><path class="a" d="M143,448.05a8.07,8.07,0,0,1-.28-1.94c-.12-1.27-.27-3.14-.44-5.56q-.12-1.82-.27-4c-.14-1.46-.28-3.06-.43-4.77-.31-3.42-.61-7.32-1.13-11.62q-.34-3.22-.74-6.75c-.3-2.34-.63-4.77-1-7.29-.6-5.05-1.53-10.4-2.37-16.06-1.9-11.27-4.29-23.62-7.22-36.48-5.89-25.74-12.78-48.66-18-65.17-2.62-8.25-4.77-14.91-6.29-19.51-.75-2.31-1.31-4.1-1.68-5.32a8.33,8.33,0,0,1-.47-1.9,7.89,7.89,0,0,1,.82,1.77c.48,1.19,1.15,2.94,2,5.21,1.72,4.53,4.07,11.14,6.85,19.35,5.51,16.43,12.61,39.34,18.52,65.16,2.94,12.91,5.29,25.3,7.1,36.62.8,5.68,1.67,11.06,2.22,16.14.29,2.53.58,5,.86,7.33s.42,4.62.62,6.78c.43,4.31.65,8.23.85,11.67.11,1.72.2,3.32.29,4.79s.08,2.82.11,4c.06,2.43.1,4.31.1,5.59A8.29,8.29,0,0,1,143,448.05Z"/><path class="a" d="M141.88,169.19s-.27-.13-.76-.47a18.19,18.19,0,0,1-2.06-1.63,34.13,34.13,0,0,1-6.43-7.77,55.05,55.05,0,0,1-3.35-6.5c-1.07-2.45-2.07-5.17-3-8.13s-1.86-6.16-2.81-9.55-2-7-2.94-10.74a197.73,197.73,0,0,1-5.12-25.08,111.5,111.5,0,0,1-.95-14.27,148.07,148.07,0,0,1,.83-15.13c.53-5.15,1.26-10.4,2-15.75s1.62-10.79,2.44-16.34l5.17-34.37c0-.33.1-.66.15-1L125.44,0l1.31,2.15a178.65,178.65,0,0,1,14.77,31.42c3.86,10.52,6.91,20.89,9.71,30.76s5.69,19.24,6.83,28.41a61.58,61.58,0,0,1,.27,13.32,91.72,91.72,0,0,1-1.9,12.1c-1.69,7.61-3.68,14.34-5.26,20.29L147,153.68c-1.18,4.16-2.09,7.39-2.72,9.6q-.48,1.64-.75,2.49a3.37,3.37,0,0,1-.31.83,3,3,0,0,1,.13-.88c.14-.58.33-1.43.58-2.53l2.38-9.69c1.07-4.21,2.38-9.35,3.89-15.31s3.4-12.74,5-20.29,2.67-16,1.39-25-4.17-18.26-6.95-28.14-5.91-20.16-9.77-30.6A178.45,178.45,0,0,0,125.19,3.1l1.68-.34-.14,1-5.2,34.36c-1.64,11.11-3.48,21.79-4.59,32a145.89,145.89,0,0,0-.9,15,111.14,111.14,0,0,0,.84,14.09,202.41,202.41,0,0,0,4.87,24.94c1,3.77,1.9,7.36,2.81,10.76s1.76,6.59,2.67,9.54,1.85,5.66,2.85,8.1a57.58,57.58,0,0,0,3.16,6.47,36.55,36.55,0,0,0,6.07,7.87c.8.82,1.48,1.36,1.93,1.75A3.7,3.7,0,0,1,141.88,169.19Z"/><path class="a" d="M126.11,331.44a6.46,6.46,0,0,1-1-1.55c-.28-.52-.66-1.16-1-1.94l-1.23-2.76c-.46-1-.85-2.24-1.34-3.53s-.85-2.76-1.3-4.31a77.74,77.74,0,0,1-1.91-10.8,104.13,104.13,0,0,1,1.43-28.42c1.88-10.58,5.31-21.87,9.07-33.58s7.27-22.9,9.34-33.31a162.9,162.9,0,0,0,3.17-28,178.87,178.87,0,0,0-.5-19c-.36-4.49-.65-7-.51-7a6.89,6.89,0,0,1,.43,1.77c.23,1.17.49,2.9.79,5.15a145.43,145.43,0,0,1,1.09,19.12,154.61,154.61,0,0,1-2.82,28.3c-2,10.55-5.48,21.83-9.25,33.54s-7.21,22.91-9.15,33.34a106.7,106.7,0,0,0-1.8,28,81,81,0,0,0,1.62,10.67c.39,1.54.74,3,1.13,4.28s.77,2.5,1.17,3.55l1.06,2.78c.33.8.65,1.46.88,2A7.42,7.42,0,0,1,126.11,331.44Z"/><path class="a" d="M141.65,163.37c-.13,0-.37-2.18-.69-6.16s-.74-9.74-1.29-16.82c-1-14.21-2.56-33.83-4.5-55.47s-4-41.23-5.47-55.4c-.73-7.06-1.32-12.79-1.74-16.78s-.54-6.17-.41-6.18a41.91,41.91,0,0,1,1.12,6.09c.61,3.94,1.41,9.66,2.32,16.72,1.82,14.14,4,33.71,6,55.38s3.25,41.32,4,55.56c.37,7.11.61,12.88.71,16.86S141.78,163.37,141.65,163.37Z"/><path class="a" d="M207.77,136.91a7,7,0,0,1-.24,1.91c-.22,1.23-.57,3.05-1,5.38-.24,1.17-.51,2.46-.8,3.88l-1.07,4.59c-.8,3.29-1.64,7.05-2.79,11.15q-.83,3.09-1.74,6.46c-.61,2.24-1.33,4.55-2,6.95-1.38,4.82-3.08,9.89-4.84,15.25-3.64,10.66-8,22.26-13.11,34.22s-10.59,23.08-15.82,33.06c-2.68,5-5.19,9.69-7.74,14-1.25,2.17-2.43,4.28-3.64,6.27s-2.37,3.89-3.49,5.7c-2.18,3.66-4.34,6.86-6.18,9.69l-2.59,3.94-2.27,3.25c-1.37,1.95-2.44,3.45-3.19,4.46a7.14,7.14,0,0,1-1.21,1.48,7.9,7.9,0,0,1,.91-1.69c.65-1.07,1.62-2.64,2.9-4.64l2.13-3.34,2.46-4c1.76-2.89,3.83-6.13,5.94-9.81,1.07-1.84,2.2-3.75,3.38-5.75s2.31-4.13,3.53-6.3c2.49-4.34,4.94-9.08,7.57-14,5.13-10,10.49-21.11,15.63-33s9.48-23.46,13.2-34c1.79-5.32,3.54-10.36,5-15.14.74-2.39,1.49-4.68,2.14-6.9s1.26-4.37,1.85-6.41c1.22-4.07,2.15-7.8,3-11.06.44-1.62.85-3.14,1.22-4.54s.67-2.68.95-3.84c.58-2.31,1.05-4.09,1.38-5.3A8.32,8.32,0,0,1,207.77,136.91Z"/><path class="a" d="M2.89,158.83c0-.05.48.24,1.3.83l1.5,1.11c.59.45,1.21,1,1.94,1.65a86.05,86.05,0,0,1,11,12c2.08,2.72,4.29,5.76,6.57,9.07s4.68,6.86,7.27,10.54,5.39,7.47,8.56,11.16c1.65,1.79,3.24,3.69,5.07,5.42.9.88,1.77,1.8,2.71,2.67s1.9,1.72,2.85,2.59c7.74,6.9,15.74,12.78,22.8,18.42a171.14,171.14,0,0,1,18,16,80.4,80.4,0,0,1,10,12.82c1,1.66,1.62,3,2.08,3.89a4.56,4.56,0,0,1,.61,1.42c-.12.06-1.25-1.73-3.29-4.93a94.12,94.12,0,0,0-10.3-12.3A188.06,188.06,0,0,0,73.4,235.57l-11.21-8.66c-3.88-3-7.85-6.23-11.76-9.72l-2.89-2.63c-.95-.88-1.84-1.81-2.75-2.71-1.85-1.76-3.47-3.7-5.14-5.54-3.21-3.77-6-7.64-8.58-11.36s-4.92-7.31-7.14-10.65-4.35-6.39-6.35-9.14A102.07,102.07,0,0,0,7.15,162.94c-.69-.65-1.27-1.27-1.82-1.75L4,159.94C3.22,159.26,2.85,158.88,2.89,158.83Z"/></svg>