<svg xmlns="http://www.w3.org/2000/svg" viewBox="0 0 78.48 88.33"><defs><style>.a{fill:#faf6f6;}</style></defs><title>Recurso 17brush</title><path class="a" d="M78.06,50.86s-.16-.09-.26-.13-.27-.11-.24-.23-.3-.44-.67-.6c0-.11.12-.19.2-.28.29-.11.21-.34.63-.4.12,0,.13-.09.06-.16-.42-.43-.26-1-1.23-1.3-.09,0,0-.15-.06-.23s.23-.41.91-.5c-.63-.19-.78-.4-.36-.61.23-.11,0-.16-.05-.23-.14-.36-.14-.7.62-.93.37-.12,0-.2-.12-.28-.54-.41-.37-.74.54-1,.45-.12.65-.24.19-.42-.27-.11-.22-.26-.3-.39-.8.1-.37.43-.61.65-.43-.17-.31-.39-.42-.57s0-.15.2-.19a3.23,3.23,0,0,0,1-.23c.26-.07.39-.23.09-.31-.48-.12-.43-.34-.54-.52-.23-.35-.2-.36-1-.48a.29.29,0,0,1-.12-.07c.17,0,.22-.12.08-.19a.39.39,0,0,1-.28-.47c.24-.07.17-.15,0-.23a1,1,0,0,1-.5-.6s-.16-.13,0-.15c1.27-.22.67-.74.41-1s-.68-.68-.55-1.08c0-.09-.12-.18-.19-.27s0-.26-.45-.22-.64-.11-.71-.26c-.21-.39-.78-.71-1-1.08s-.58-.46-.42-.68c.29-.42.1-.86.52-1.26.15-.14.23-.34-.15-.47-.12-.05-.21-.09-.15-.16.34-.34.11-.66,0-1s.2-1-.44-1.38v-.19c.25-.34.42-.69.16-1.05-.07-.1-.24-.21-.15-.31.42-.45-.06-.78-.61-1.1.11-.16.67,0,.69-.25-.16-.17-.75-.17-.7-.42.29-.11.27-.3.58-.42s.09-.23-.18-.21c-.53,0-.57-.15-.57-.28s-.24-.38.25-.5-.17-.17-.09-.3a2,2,0,0,1,.3-.28c.12-.11.23-.23.18-.36s-.12-.07-.2-.09c-.28-.06-.29-.14-.34-.29a1,1,0,0,1,.37-1.1c.23-.19.06-.42-.26-.43-.82,0-.61-.26-.64-.47s-.15-.65.35-.94c.14-.07-.08-.2-.11-.29-.1-.29-1-.45-.55-.82,0,0,0-.06-.09-.08-.47-.28-.09-.6,0-.87s.19-.24-.1-.37c-.14-.06-.28-.17-.25-.25.16-.53-.2-1.07.25-1.59.23-.28.36-.68,0-.86-.54-.26-.61-.44-.25-.71.12-.09.08-.15-.11-.19a.26.26,0,0,0-.29.07c-.12.2-.31.24-.62.08v-.52c0-.2.1-.39-.52-.48-.42-.05-.21-.24-.14-.4s.4-.24.32-.37-.69-.05-.84-.16.45-.3-.22-.34a2.91,2.91,0,0,1-.3,0c-.5-.11-.91-.25-1-.55s.54-.36.57-.59a2,2,0,0,1-.75-.34.89.89,0,0,0-.38-.14l-.84-.13c.27-.49-.72-.85-.6-1.32,0,0-.14-.06-.23-.08A2.65,2.65,0,0,1,63.45,10c.41-.26.13-.54.17-.82,0-.06-.12-.11-.26-.12-.62,0-.51-.23-.51-.41,0-.57.93-1,1-1.57,1.09-.47.78-1,.26-1.52a2,2,0,0,1-.69-1.23c0-.13.15-.29-.1-.4-.58-.26-.66-.63-1-.94-.87-.67-.82-.68-2.41-.57,0-.21-.13-.36-.55-.5a2,2,0,0,1-.86-.45c-.32-.44-.35-.45-1.24-.27-.44.09-.76.11-1-.12S55,.9,54.56.67a.66.66,0,0,0-.27,0,2.92,2.92,0,0,1-1.47,0A.84.84,0,0,0,52,.51a3,3,0,0,1-1.07,0,1,1,0,0,0-.84.14c-.15.1-.19.23-.43.31L49.44.9c-.27-.14-.45-.4-1-.11-.06,0-.81.18-.87-.16,0-.1-.1-.13-.3-.07-.38.12-.6-.07-.9-.1s-.85,0-1-.2S44.85,0,44.37.09c-.68.17-1.6,0-2.17.35a1.16,1.16,0,0,1-.27,0,1.73,1.73,0,0,0-1.6.18,1.06,1.06,0,0,1-.55.07c-.23-.07-.42-.28-.7,0a.81.81,0,0,1-.5.12c-.27,0-.52,0-.79,0-.51,0-1.15.12-1.1.27.14.44-.41.27-.74.22s-.8-.06-.93.11c-.28.39-.68.25-1.07.08a.77.77,0,0,0-.79,0,.73.73,0,0,0-.6.19c-.19,0-.25-.25-.53-.08a1.46,1.46,0,0,1-1.46,0c.24.26.38.39.48.52s-.08.31-.33.41A.84.84,0,0,1,30,2.4a4.24,4.24,0,0,0-1.17-.34c-.29-.08-.58.08-.47.16.46.34-.12.32-.48.32a10,10,0,0,0-1.58.34c-.13,0,0,.1.09.14-.14.12-.24.24-.2.38l-.2.09c-.34-.21-.58-.45-.6-.72,0-.1,0-.24-.21-.24-.45,0-.83-.31-1.25-.12a8.36,8.36,0,0,0-1,.44c-.14.07.27.09.33.18s-.06.13-.17.15c-.71.13-.68.42-.71.69h0a2.78,2.78,0,0,0-2.65.29.28.28,0,0,1-.24.06c-1-.23-.85.28-1.3.41.34-.09.61-.11.78.09a8.57,8.57,0,0,0-1.31.2c-.13,0-.28.11-.23.2a.51.51,0,0,0,.39.12c.53-.14.37.06.3.14a.9.9,0,0,1-1,.13,2.23,2.23,0,0,0-.83-.12c-.33,0-.65.1-.63.24s.35.13.64.1c.64-.06.3.12.23.23-.5.12-.5.25,0,.37v.19c-.27,0-.76-.36-.8.1a1.65,1.65,0,0,0-.79.18,1,1,0,0,1-.71.07c-.13,0-.34-.09,0-.15.14,0,.35,0,.18-.15a.57.57,0,0,0-.37,0c-.29.06-.44.14-.52.31s-.15.68-.73.89a1,1,0,0,0-.54.47,3.8,3.8,0,0,1-.4.52c-.32.35-.71.72-.1,1.1,0,.15,0,.32-.23.44a.41.41,0,0,0-.27.35c0,.43.06.86.09,1.29a.91.91,0,0,1-.14.07c-.38.11.54.58-.6.48,0,.06-.08.14,0,.18.39.3.26.61,0,.88s-.67.76-.59,1.18a.61.61,0,0,1,0,.14c0,.08,0,.17-.25.16a.37.37,0,0,1-.29-.11c-.07-.09.16-.24-.27-.23s-.53.09-.6.26-.26.45-.19.69v.09c-.56.25-1.27.47-.86.93.09.11-.23.18-.35.27-.41.3-.62.62-.39,1-.18.42-.38.84.2,1.23-.63.58-1.07,1.17-.48,1.83.1.1-.07.17-.19.25-.37.23-.17.54-.55.8-.19.12.13.41.22.62-.2,0-.29-.13-.59-.12.15.25-.46.49,0,.75a1.41,1.41,0,0,1-.24.13v.1c.23.24-.65.3-.45.45.4.31-.07.28-.42.35-.18,0-.16.14,0,.2s.3.12.29.23c-.19.11.85.46-.34.4-.3,0-.25.14-.07.19.54.17.36.41.18.59-.34.35.12.84-1,1.05.86.29.82.58.43,1a.54.54,0,0,0,.12.88c.46.24.27.36,0,.54a.54.54,0,0,0-.21.66c.07.21.48.46.16.64-.51.29-.43.75-1.33.93-.34.06-.21.2.09.28.62.17.6.39.22.63-.22.13-.17.28-.22.42s.22.69-.84.77c.66.32.9.65.27,1-.19.11-.1.25-.11.37-.25.47.54.91.13,1.38l.27,0c.26.08.21.18.1.29s.08.37.17.38c.91.07.33.24.13.37s-.4.27-.18.35a.65.65,0,0,0,.69-.16.34.34,0,0,1,.32-.15c.19,0,.21.14.1.19-.32.17-.14.3,0,.49s.88.58.18.91c0,0,0,.08.07.13s0,.22-.4.19-.43.12-.19.2a1.61,1.61,0,0,1,.64.41c-.52.31-.52.71-.81,1.07s-.14.48.56.57a1.21,1.21,0,0,0-.71.58c.44.06.6-.18,1-.14.12.29.4.59.32.86a2.14,2.14,0,0,1-.48.95c-.21.22.16.26.6.26a6.82,6.82,0,0,0-1,.87c-.1.14,0,.27.1.4s.21,0,.3,0c.77.09.24.38.4.57a1.48,1.48,0,0,1-.54-.11c-.25-.09-.47,0-.42.09.3.33-.48.79.64,1,.51.11.19.42.32.62s-.45.08-.69,0a.47.47,0,0,0-.16,0c-.27.17-.12.37-.14.55s0,.2.31.18c.55-.05.49.18.54.3s-.24.44-.27.67H3.47c-.19,0-.46-.16-.56,0s.13.19.45.23.51.22.41.41-.16.29-.61.15c-.11,0-.26.09-.12.17s.31.09.37.15.34.35.16.51-.41-.13-.72,0A1.66,1.66,0,0,1,3,52c0,.11,0,.17.22.21s.25.08.07.19c-.39.23-.34.31.24.42.28.06.13.16.18.24-.18,0-.44,0-.52.07s.27.12.32.21l-.67.14c-.06.17.52.28.26.42-.59.32-.06.34.41.39-.09.18-.55.15-.82.31.4.12.43.31.35.52,0,.06-.1.27.39.23s.66,0,.16.2c-.26.08,0,.13,0,.21s.36.52.14.55c-.72.11-.4.32-.45.52a.61.61,0,0,0,.1.7c.3.27.14.38-.63.4.41.11.76.12.82.26s-.62.1-.63.31l.75.41c.16.08.49-.13.57.06s-.23.2-.46.27c-.39.11-.19.19.09.26,0,.3-.23.53-.92.61a1.79,1.79,0,0,0,1.12.62c0,.2.09.4-.13.59-.37.34-.41.65.24.92.31.12.15.24,0,.37s-.48.16-.11.3c-.06.44.5.87.08,1.33-.07.08,0,.28.32.37,0,.11.09.25,0,.32-.43.26-.06.44.22.63a7.43,7.43,0,0,1-.58,1c-.07.11-.09.16,0,.25.45.35.87.72.75,1.16-.26.06-.18.18-.2.28a1.37,1.37,0,0,1-.24-.07.56.56,0,0,0-.62.06c-.21.11,0,.19.12.27a.53.53,0,0,0,.56,0l.38-.14h.2c.14.22.36.4,0,.66s-.09.54-.6.74a.05.05,0,0,0,0,.09c.48.23.17.6.58.81s.5.51.11.78c.23.09.55,0,.59,0a1.9,1.9,0,0,1,.29.59c0,.14-.12.24-.39.29,0-.14.05-.31-.45-.26-.17,0-.29.07-.23.17s.38.17.68.09c-.34.46,0,.91.05,1.36,0,.16.33.11.55.06l.2.1c0,.15.67.32,0,.46-.24,0-.43.08-.39.22a.71.71,0,0,0,.62.33,1.32,1.32,0,0,1,1.22.49,2.74,2.74,0,0,0,.79.46,8.28,8.28,0,0,0,2.16.3,1.32,1.32,0,0,1,.73.27c.41.36.38.84,1.33,1.06.22,0,.11.16,0,.24s-.14.11,0,.16a.49.49,0,0,0,.44,0,1,1,0,0,1,.79,0,.4.4,0,0,1-.28.48c-.14.07-.09.14.08.19,0,.29.24.5.84.65.37.09.65.27.15.47.42,0,1-.08,1.22.2-.28.29-.2.34.6.38-.09.29.33.39.79.46a8.14,8.14,0,0,1,1.47.29c.43.16.52.32-.12.44a2.65,2.65,0,0,0,.38,0c.48.1,1.2,0,1.48.22a4.94,4.94,0,0,0,2.43.65c.36,0,.28.06.29.19,0,.47.05.47,1.1.54.62.29,1.51.46,1.74.92,0,0,.18.08.27.12,0,.24.53.26.8.38,0,.08,0,.17-.06.24-.35.29,0,.48.48.55a1.78,1.78,0,0,1,1.26.62c.2.24.56.29,1.09.31a4.94,4.94,0,0,1,2.07.31,3,3,0,0,0,1.6.33A2.29,2.29,0,0,1,35,87a2,2,0,0,0,1.13.16c.48,0,.27.37.75.44h.19a.77.77,0,0,1,.57.15,1.41,1.41,0,0,0,.83.21c.78.07,1.56-.07,2.37,0a2,2,0,0,1,.82.17,1,1,0,0,0,.9.11c1-.23,2.23,0,3.28-.2a.4.4,0,0,1,.19,0,1.44,1.44,0,0,0,1.22,0A3.59,3.59,0,0,1,49,88c.65.13,1.18.21,1.59-.15.56.4.56.4,1.42.15.17,0,.33-.17.51-.14a5.59,5.59,0,0,0,2.56-.3c.57-.12.89-.26.79-.56a3,3,0,0,1,1.28-.2,1.08,1.08,0,0,0,.72-.09,5.21,5.21,0,0,1,3-.41,1.82,1.82,0,0,0,.38,0c.39-.06.7-.38,1.21-.07a1.45,1.45,0,0,0,.48-.14,3.37,3.37,0,0,1,1.92-.38.83.83,0,0,0,.36,0c.28-.35,1.18-.39,1.52-.71.74,0,1.4,0,1.6-.41,1.13-.16,1.12-.53.82-1a.2.2,0,0,1,0-.23c.2-.28,0-.55-.09-.82a.61.61,0,0,1,.25-.87c.24-.18.38-.37,0-.56-.08,0-.23-.13-.07-.15.82-.14.47-.68,1.33-.83.3,0,.06-.17-.23-.19.29-.19.57-.37.26-.62-.12-.1-.14-.24.14-.32l.4-.1a1.57,1.57,0,0,1,1-.29c.25,0,.47,0,.53-.17s.36-.4.82-.49c.24-.05.42-.19.37-.26-.3-.4,0-.82-.21-1.2a2.79,2.79,0,0,1-.34-1.19.36.36,0,0,1,.31-.33c.73-.16.61-.43.49-.71.07-.3-.14-.57-.31-.85a.46.46,0,0,1,.11-.66c.19-.13,0-.24-.06-.36-.6-.76,0-1.44,1-2l.16-.12a.42.42,0,0,0,.34.1c.13,0,.25-.06.23-.13s-.17-.13-.35-.11l-.07,0A1.76,1.76,0,0,0,75.55,69c.1-.5-.53-1-.27-1.5.49-.18.57-.38.08-.59-.24-.09-.22-.19-.14-.33s.39-.17.61-.24c.39-.14-.52-.16-.25-.34l.18-.11a1.45,1.45,0,0,1,.63-.36c.27-.07.34-.16.1-.25-.48-.19-.26-.35.06-.51s.41-.16.21-.32a3.08,3.08,0,0,1-.38-1.24c0-.07-.08-.13-.21-.13-.9,0-.44-.24-.29-.39A4.19,4.19,0,0,1,77,62.12c.3-.15.43-.31,0-.44-.63-.2-.36-.47-.3-.72s.26-.24.12-.31c-.5-.23.17-.28.23-.43.31-.1.23-.22,0-.31-.47-.2-.5-.42-.29-.68s.19-.35-.08-.49c-.44-.23-.23-.42.06-.63s1.14-.38.21-.67c0,0,0-.06,0-.09.33-.29,0-.55-.14-.82.4-.17,0-.21-.2-.28,0-.15.18-.22.42-.3.47-.15.72-.37.58-.65.25-.1,0-.2-.06-.24-.58-.24-.46-.55-.27-.82s-.16-.63.45-.82.41-.38,0-.56-.37-.24-.14-.4,1-.19.76-.37A1.14,1.14,0,0,1,78.06,50.86ZM0,35.94c.05,0,.05.05,0,.09L0,35.93Z"/></svg>