<svg xmlns="http://www.w3.org/2000/svg" viewBox="0 0 28.19 15.57"><defs><style>.a{fill:#c5986e;}</style></defs><title>Recurso 8leave-sct3-2</title><path class="a" d="M21.91,10a33.5,33.5,0,0,1-4.79,3.1A16.29,16.29,0,0,0,21.91,10Z"/><path class="a" d="M27.29,6.09a4.86,4.86,0,0,0-1.89.33A17.21,17.21,0,0,0,19.87,9.7a.36.36,0,0,1-.24.11c.05-.11.1-.23.16-.35A42.53,42.53,0,0,0,22,4.24c.15-.46.25-.94.36-1.41a.69.69,0,0,0-.14-.73,1.45,1.45,0,0,0-1.2.09,6.22,6.22,0,0,0-1.62,1.22,15.14,15.14,0,0,0-3.2,4.74L16,8.44A15.35,15.35,0,0,0,14.61.63a2.17,2.17,0,0,0-.32-.44.75.75,0,0,0-.69.37A8.89,8.89,0,0,0,12.12,3c-.46,1-.85,2.1-1.27,3.15,0,.11-.09.23-.18.42-.12-.52-.21-1-.32-1.41s-.26-1-.41-1.55A7.89,7.89,0,0,0,8.09.48C7.84.23,7.58,0,7.16,0a.87.87,0,0,0-.35.64,12.08,12.08,0,0,0-.12,2.82,8.3,8.3,0,0,1,0,1.41,8.63,8.63,0,0,0,.79,4.59c.14.33.29.66.48,1.07l-.38-.21a4.61,4.61,0,0,0-3.47-.68,11.49,11.49,0,0,0-3.68,1.4c-.36.2-.39.27-.43.72a1.3,1.3,0,0,0,.44.17,8.82,8.82,0,0,0,1.36,0A12.5,12.5,0,0,1,8.46,13c.69.31,1.38.61,2,1a2,2,0,0,1,.79.65,2,2,0,0,0,2.93.55l.24-.16a3.44,3.44,0,0,1,1.42-.59,13,13,0,0,0,1.81-.54,16.23,16.23,0,0,0,4.14-2.23c1.88-1.42,3.73-2.9,5.58-4.36.28-.22.52-.49.77-.73A.83.83,0,0,0,27.29,6.09Zm-11,2.25a14.29,14.29,0,0,1,3.47-5,8.08,8.08,0,0,1,1.34-1,.92.92,0,0,1,1-.07,1.93,1.93,0,0,1,0,.48,10.11,10.11,0,0,1-.42,1.64c-.59,1.49-1.21,3-1.84,4.44A9.55,9.55,0,0,1,18,11.55a8,8,0,0,1-3.31,2.27l-.43.1.31-.23a16.62,16.62,0,0,0,3.94-4.77,21.81,21.81,0,0,0,1.7-3.59C19.8,6.15,19.38,7,19,7.78a19.31,19.31,0,0,1-3.77,5.15,1.72,1.72,0,0,1-.42.32,25.86,25.86,0,0,0,3-5.21,30.57,30.57,0,0,1-3.58,5.55,1.79,1.79,0,0,1,.22-.62c.35-.7.7-1.41,1-2.13S16,9.16,16.32,8.34ZM7.08,7.61a6.49,6.49,0,0,1-.21-2c0-.64,0-1.29,0-1.93,0-.89,0-1.79,0-2.68A1,1,0,0,1,7.33.15c.23.2.49.38.7.6A7.78,7.78,0,0,1,9.81,3.93c.17.61.34,1.21.46,1.83a15.32,15.32,0,0,1,.23,1.91c0,.61,0,1.22,0,1.83A6.81,6.81,0,0,0,12,13.34a.4.4,0,0,1,.08.16l0,.11h0a8.22,8.22,0,0,1-2.3-4.1C9.4,8.56,9.21,7.59,9,6.63a.81.81,0,0,0-.13-.3c.4,2.32.72,4.67,2.23,6.64L11,13c-.18-.18-.39-.34-.55-.53A8.38,8.38,0,0,1,8.89,9.6,34.12,34.12,0,0,1,7.82,4.79c0-.14-.05-.28-.07-.41H7.67c.1.71.19,1.42.3,2.12a20.9,20.9,0,0,0,.82,3.43A8.64,8.64,0,0,0,10,12.26a4,4,0,0,0,1,1,6.72,6.72,0,0,1-2.29-2.05A10.61,10.61,0,0,1,7.08,7.61Zm-6.15,4a3.28,3.28,0,0,1-.63,0l0-.15a1.37,1.37,0,0,1,.27-.22,12,12,0,0,1,3.78-1.4,4.28,4.28,0,0,1,3.17.7,10.33,10.33,0,0,1,.92.78c-.12,0-.16,0-.18,0l-.34-.15a5.17,5.17,0,0,0-2.64-.57A16.5,16.5,0,0,0,3.4,11C2.57,11.14,1.75,11.37.93,11.56Zm4.13.22c-.61-.08-1.22-.12-1.83-.14s-1,0-1.45.06v-.11c.85-.2,1.7-.43,2.56-.61a5.43,5.43,0,0,1,1.39-.14,5.88,5.88,0,0,1,3.33,1.32,10.76,10.76,0,0,0,2.27,1.5c.08,0,.13.14.19.21l-.28,0A7.23,7.23,0,0,1,9.57,13a13.47,13.47,0,0,0-3.38-1.72,2.73,2.73,0,0,0-.48-.1A19.54,19.54,0,0,1,9.25,13c.26.18.52.35.79.51l-.33-.14A14.82,14.82,0,0,0,5.06,11.78Zm8.13,2a.92.92,0,0,0,.17-.29c.23-.7.48-1.39.66-2.1a15.19,15.19,0,0,0,.34-2,18.67,18.67,0,0,0,.13-2.11c0-.94-.06-1.88-.1-2.82a3.2,3.2,0,0,0-.09-.62c0,.42,0,.84,0,1.26a26.72,26.72,0,0,1-.21,5,15.39,15.39,0,0,1-.77,3.2,1.16,1.16,0,0,1-.27.48h0a73.15,73.15,0,0,0,.66-7.4c-.24,2.46-.47,4.93-.7,7.39a.94.94,0,0,1-.3-.12c0-.1-.11-.2-.16-.31a9.69,9.69,0,0,1-.71-3.43c0-1.35,0-2.7.08-4-.08.59-.2,1.24-.24,1.89a13.17,13.17,0,0,0,.4,4.8,5.32,5.32,0,0,0,.29.79,4.84,4.84,0,0,1-.57-.7,6.55,6.55,0,0,1-1-2.82A7.57,7.57,0,0,1,10.9,6.7,20.35,20.35,0,0,1,13,1.82a9.26,9.26,0,0,1,.73-1,4.51,4.51,0,0,1,.48-.45,3.76,3.76,0,0,1,.34.65c.32.94.64,1.88.91,2.83A12.62,12.62,0,0,1,15.78,8a13.9,13.9,0,0,1-1,3.65,8.5,8.5,0,0,1-.92,1.7A.88.88,0,0,1,13.19,13.82ZM27.27,7.15C25.66,8.43,24,9.7,22.41,11a18.57,18.57,0,0,1-3.28,2,10.8,10.8,0,0,1-3.78,1.25,5.14,5.14,0,0,1-.68,0h0A6.17,6.17,0,0,0,16,14a14.1,14.1,0,0,0,4.63-2.28C21.75,10.87,22.84,9.89,24,9A.19.19,0,0,0,24,8.79c-.28.23-.58.46-.86.71a24.63,24.63,0,0,1-4.17,3,13.81,13.81,0,0,1-4.26,1.6.76.76,0,0,1,.19-.12,8.35,8.35,0,0,0,3.35-2.4,17.74,17.74,0,0,1,6.84-4.82A5.51,5.51,0,0,1,27,6.32a1.17,1.17,0,0,1,1,.23C27.71,6.76,27.5,7,27.27,7.15Z"/></svg>