<svg xmlns="http://www.w3.org/2000/svg" viewBox="0 0 17.72 13.19"><defs><style>.a{fill:#c5986e;}</style></defs><title>Recurso 12stikflower</title><path class="a" d="M17.56,13.19c-.15-1-.26-1.92-.46-2.85a4.24,4.24,0,0,0-.55-1.42,23.16,23.16,0,0,0-5.88-6.48A2,2,0,0,0,9.25,2c-.55.43-1.16.89-1.75,1.38C5.67,4.91,3.86,6.44,2,7.94,1.52,8.35,1,8.68.42,9A3.82,3.82,0,0,1,0,9.21a3.34,3.34,0,0,1,.26-.63C1.6,6.6,3,4.63,4.31,2.63a5.07,5.07,0,0,1,2.88-2A22.74,22.74,0,0,1,9.94,0a3.81,3.81,0,0,1,2.82.82A6.7,6.7,0,0,1,15,3.31,28.06,28.06,0,0,1,17.08,9a18.48,18.48,0,0,1,.61,3.37A1.07,1.07,0,0,1,17.56,13.19ZM11.43.45C11.15.39,11,.33,10.8.31A4.46,4.46,0,0,0,8.07,1,15.8,15.8,0,0,0,5.27,3.2,26.73,26.73,0,0,0,1,8.07a2.06,2.06,0,0,0-.12.26,2.84,2.84,0,0,0,.84-.5L6.34,4A21.67,21.67,0,0,1,11.43.45Zm4.68,6.36a1.55,1.55,0,0,0-.06-.23c-.44-1-.87-2.07-1.34-3.09A6,6,0,0,0,12.22.85.65.65,0,0,0,11.8.74a9.77,9.77,0,0,0-1,.27A18.33,18.33,0,0,1,16.11,6.81Zm-.24.55.07,0a0,0,0,0,0,0,0c-.11-.23-.22-.46-.35-.68a16.62,16.62,0,0,0-4.49-5.1c-.17-.12-.37-.22-.58-.34l-.71.47C12.44,3,14.14,5.2,15.87,7.36ZM3.17,4.76l.1.09a27.29,27.29,0,0,1,4.51-4L7.65.8A5.06,5.06,0,0,0,4.89,2.37c-.4.5-.77,1-1.15,1.56Z"/></svg>