<svg xmlns="http://www.w3.org/2000/svg" viewBox="0 0 5.19 71.73"><defs><style>.a{fill:#c5986e;}</style></defs><title>Recurso 11flwr-6</title><path class="a" d="M4.34,0a1.11,1.11,0,0,0-.07.29c.07,1.72.11,3.43.22,5.14.1,1.41.26,2.82.41,4.23A16.15,16.15,0,0,1,4,16.75c-.91,2.58-1.82,5.16-2.5,7.82A50.56,50.56,0,0,0,.14,32.22a38.3,38.3,0,0,0,.09,7.34C.39,41.3.61,43,.8,44.77a23.14,23.14,0,0,1-.18,5.64,28.5,28.5,0,0,0-.24,4.8c0,1.52.12,3,.15,4.58,0,1.71,0,3.43.07,5.14v.38c.08,2,.15,4,.23,6a3.15,3.15,0,0,0,.05.43H1c0-.13,0-.26,0-.39-.06-2-.14-4.06-.18-6.09,0-1.85,0-3.71-.08-5.57,0-1.54-.09-3.08-.15-4.62A25.52,25.52,0,0,1,.8,50.87,26.92,26.92,0,0,0,1,44.53C.87,43.1.68,41.68.54,40.26S.26,37.5.24,36.12A45.58,45.58,0,0,1,2.83,20.77c.56-1.67,1.13-3.34,1.68-5A16.44,16.44,0,0,0,5.08,9c-.24-2.46-.4-4.93-.58-7.39,0-.41,0-.82,0-1.23A2.53,2.53,0,0,0,4.44,0Z"/></svg>