<svg xmlns="http://www.w3.org/2000/svg" viewBox="0 0 178.7 449.91"><defs><style>.a{fill:#e9b255;}</style></defs><title>Recurso 1watercolor</title><path class="a" d="M173.71,210.63a7.9,7.9,0,0,0-4.64.42,23.21,23.21,0,0,0-6.64,4.27,98.54,98.54,0,0,0-9,9.19L147.85,231a22.45,22.45,0,0,0-1.89,2.29l-4,3.69c-4,3.73-9.83,8.74-15.58,15-4.71,5.14-8.69,10.13-11.79,14.23,2.57-5.62,4.75-10.83,6.59-15.43,2.54-6.35,4.45-11.54,5.73-15.14.31-.89.59-1.69.82-2.38L128,233c.84-.78,2.13-1.89,3.63-3.48a108.7,108.7,0,0,0,11.72-14.33,124.29,124.29,0,0,0,13-24.25,121,121,0,0,0,5.05-15.48c.67-2.75,1.33-5.55,1.82-8.43l.39-2.17a17.83,17.83,0,0,0,.22-2.36,8.13,8.13,0,0,0-.33-2.58,5.12,5.12,0,0,0-1.59-2.46l-.85-.71-.82.71,0,0a100.91,100.91,0,0,0-12.4,12.41l-2.65,3.28-2.42,3.36c-.82,1.09-1.51,2.25-2.24,3.37s-1.46,2.21-2.07,3.36-1.26,2.26-1.88,3.37-1.12,2.26-1.67,3.36c-1.14,2.19-2,4.45-2.89,6.57-.42,1.07-.77,2.16-1.15,3.21s-.77,2.07-1,3.11-.58,2-.86,3c-.14.49-.29,1-.41,1.47l-.32,1.46c-.42,1.92-.87,3.74-1.09,5.5s-.57,3.39-.66,4.95-.28,3-.34,4.33,0,2.55,0,3.64c0,.55,0,1.07,0,1.55s.06.94.09,1.36c.06.84.12,1.54.16,2.13a10.43,10.43,0,0,0,.23,1.62l-.6,1.33L119.44,250c-5.52,12.45-13.24,29.68-24.94,46.82-.26.4-.52.78-.79,1.17.26-.74.51-1.49.75-2.27a72.73,72.73,0,0,0,2.17-9.7c.16-.2.34-.44.55-.75a28.28,28.28,0,0,0,2.45-4.4,46.56,46.56,0,0,0,2.61-7.54c.79-3,1.46-6.47,2.07-10.3a254.59,254.59,0,0,0,3-27.11c.3-5.13.44-10.53.42-16.12,0-2.79-.07-5.64-.18-8.53,0-1.44-.12-2.89-.19-4.36l0-.55c0-.19,0-.43-.06-.64a7.3,7.3,0,0,0-.27-1.28,4.67,4.67,0,0,0-1.65-2.54,2.77,2.77,0,0,0-2-.46,2.91,2.91,0,0,0-1.7.85,6.06,6.06,0,0,0-1.34,2.4c-.46,1.4-1,2.78-1.38,4.18s-.84,2.78-1.17,4.17c-.18.7-.36,1.39-.53,2.08l-.45,2.07a131.35,131.35,0,0,0-2.37,16c-.9,10.27-.88,19.52-.87,27.26s.09,14,.2,18.33a30.31,30.31,0,0,0,.33,5,3.66,3.66,0,0,0,.59,1.37c-.75,2.72-1.62,6.14-2.72,9.79-1.41,4.79-3.1,8.92-4.23,11.75-3.45,5-6.77,9.76-9.75,14.39q-3.24,5-5.92,9.7a72.13,72.13,0,0,0-5.2,7.5,61,61,0,0,0-3.26,6.34c.17-1,.33-1.95.49-3q.59-3.63,1.22-7.58c.43-2.64.78-5.39,1.18-8.24.84-5.69,1.52-11.8,2.28-18.22,1.38-12.86,2.58-27,3.4-41.93s1.14-29.12,1.28-42c0-.71,0-1.4,0-2.1,0,0,0,0,0,0s0-.19,0-.5c0-4,0-7.89,0-11.62a38.36,38.36,0,0,1,4.2-9.66,42.3,42.3,0,0,1,4.86-5.15,76.82,76.82,0,0,1,11-7.9c4.51-2.77,9.86-5.69,15.48-9.45a150,150,0,0,0,34.54-32.27,152.22,152.22,0,0,0,15.12-23.59c1.15-2.15,2.14-4.4,3.23-6.62s2-4.56,2.92-6.89c.44-1.18.89-2.36,1.33-3.55l.34-.89.17-.44.08-.23c0-.09.08-.27.11-.4a2.61,2.61,0,0,0-.29-1.81,2.73,2.73,0,0,0-1.32-1.17,2.66,2.66,0,0,0-1.8-.1,1.92,1.92,0,0,0-.42.16l-.19.1-.12.07-.43.27q-.86.54-1.65,1.14a34.38,34.38,0,0,0-3,2.6c-1.9,1.83-3.59,3.76-5.29,5.62L147.29,115l-9.83,11c-6.43,7.21-12.58,14.21-18.4,20.91-11.64,13.39-22,25.6-30.53,35.93-2.13,2.58-4.2,5-6,7.45a78.37,78.37,0,0,0-4.9,7.09,43.48,43.48,0,0,0-4.11,8.5c0-5.63-.12-10.88-.22-15.7.1-.46.21-.92.33-1.4a70,70,0,0,1,6.81-16.58A189.71,189.71,0,0,1,92.7,153.65a179.25,179.25,0,0,0,12.4-18.78A97,97,0,0,0,112.42,118a88.31,88.31,0,0,0,2.68-10.39c.65-.42,2.94-2.88,5.69-6.87,1.57-2.32,3.5-5.15,5.73-8.43s4.79-7,7.4-11.33a47,47,0,0,0,6.25-15.38c1.18-5.92,1.27-12.27,1.61-18.86s.52-13.59.27-20.85a114.34,114.34,0,0,0-2.73-22.35L138.5,0l-1.61,3.2-.29.57c-3.44,6.86-6.81,13.55-10,20s-6.45,12.66-9.18,18.8a95.46,95.46,0,0,0-3.55,9.17,71.6,71.6,0,0,0-2.27,9,125.31,125.31,0,0,0-1.83,16.47c-.24,5.05-.45,9.58-.45,13.62a42.63,42.63,0,0,0,1.09,10.31,21.14,21.14,0,0,0,2.52,6.06c.3.46.56.83.77,1.11-.72,2.48-1.68,5.52-3,9A109.11,109.11,0,0,1,103,133.7a210.4,210.4,0,0,1-12.42,18.43A164.51,164.51,0,0,0,78.28,171a70.58,70.58,0,0,0-5.19,12.34c-.19-7-.41-12.79-.63-17.06-.06-1-.11-2-.16-2.85.12-.12.16-.2.14-.22s-.07,0-.15,0a44.23,44.23,0,0,0-.47-5.33c0-.05,0-.1,0-.15a23.4,23.4,0,0,1,1.93-4.88C74.74,151,76,149,77.4,146.74A67.42,67.42,0,0,0,85,129.38,69.52,69.52,0,0,0,87,118.3a33.88,33.88,0,0,0,.2-6.1,12,12,0,0,0-.73-3.28,7.73,7.73,0,0,0-2-3l-1.26-1.15-.77,1.54-.76,1.53a226.86,226.86,0,0,0-9.31,21.79c-1.12,3.1-2.18,6.07-3,9a45.87,45.87,0,0,0-3-9.68,117.47,117.47,0,0,0-6.9-12.47c-1.29-2.19-2.58-4.45-3.73-6.86s-2.23-5-3.29-7.63c-2.14-5.31-4.2-11.06-7.33-16.68a45.72,45.72,0,0,0-5.66-8.06,30.28,30.28,0,0,0-8-6.49L30.16,70l-.49,1.49a14,14,0,0,0-.61,5.78c.36,3.75,1.7,7.07,2.75,10.26a70.79,70.79,0,0,1,2.44,9.55c1.19,6.4,1.81,12.74,2.88,18.76a63.38,63.38,0,0,0,5.06,16.69,36.93,36.93,0,0,0,4.26,6.78,31.4,31.4,0,0,0,5.29,5.17c3.7,2.84,7.27,4.92,10,7.21S69,160,69.45,161a4.65,4.65,0,0,0,.86,1.36c.35.31.6,1.47.82,1.48.12.37.23.69.33,1,0,.48,0,1,0,1.5,0,5.48,0,13.37,0,23.12v1.09c-.27,1.76-.43,3.4-.51,4.89,0,1.05,0,2,0,2.93s.08,1.72.17,2.45.19,1.37.27,1.94l0,.14c0,6.46-.14,13.43-.27,20.84-.28,12.9-.71,27.08-1.49,41.94-.52,9.41-1.16,18.52-1.88,27.19a53.78,53.78,0,0,0-1.27-6.36,66.27,66.27,0,0,0-5.07-12.92c-1.88-3.78-3.62-7.11-4.93-10-2.14-4.55-3.07-7.91-3.57-9,0-.15.1-.28.15-.46a32.64,32.64,0,0,0,1.08-4.89,51.48,51.48,0,0,0-1-18.36,76.89,76.89,0,0,0-3.87-12.15,135.29,135.29,0,0,0-6.32-13.12c-2.43-4.51-5.14-9.12-7.86-13.93-1.37-2.41-2.71-4.85-4.06-7.39-.69-1.27-1.41-2.55-2.22-3.82a7.12,7.12,0,0,0-.81-1.1,3,3,0,0,0-1.67-.85,3.15,3.15,0,0,0-3.2,1.49,3.21,3.21,0,0,0-.42,1.76l0,1.12q.06,1.11.15,2.22.2,2.21.48,4.35c.37,2.87.83,5.66,1.26,8.39.88,5.47,1.73,10.75,2.53,15.78A133.25,133.25,0,0,0,30,227.84a51.32,51.32,0,0,0,4.86,11.84,47.86,47.86,0,0,0,12,13.95A36.68,36.68,0,0,0,51,256.46c1,.55,1.55.8,1.6.73s-1.91-1.47-5.08-4.33A50.23,50.23,0,0,1,32.1,227.27a137.84,137.84,0,0,1-2.63-14.08c-.75-5-1.55-10.32-2.38-15.8-.27-1.83-.55-3.68-.82-5.55.28.75.58,1.53.9,2.36,1.26,3.33,2.75,7.29,4.22,11.74s2.76,9.42,4.32,14.69a95.2,95.2,0,0,0,5.55,14.49c2,4.3,4,8,5.69,11.22a91.17,91.17,0,0,0,5.58,9.76,37,37,0,0,0,2.19,8.17c1.12,3,2.72,6.48,4.46,10.29a74.25,74.25,0,0,1,4.72,12.55,88,88,0,0,1,2.36,21.44c-.63,6-1.21,11.73-1.91,17.08-.36,2.85-.66,5.6-1,8.24s-.72,5.16-1.06,7.58c-.55,4.26-1.19,8.12-1.73,11.61-.4,1.33-.78,2.66-1.14,4-1.2,4.55-2.12,9-3,13.42a62.24,62.24,0,0,0-.69-13.31,47.68,47.68,0,0,0-3-10.59,41,41,0,0,0-2.23-4.5,8.66,8.66,0,0,0,2.09-2.44,24.06,24.06,0,0,0,3.31-8.38A37.72,37.72,0,0,0,56,317.9a102.26,102.26,0,0,0-4-15.68l-.84-2.62-1.47,2.26,0,.05a35,35,0,0,0-5.91,15.38,37.66,37.66,0,0,0-.25,7.2,36.49,36.49,0,0,0,1,6.19c.26,1,.54,1.94.84,2.81a120.8,120.8,0,0,0-6.8-11.65,65,65,0,0,0-6.44-8.42,41.81,41.81,0,0,0-9.59-7.63c-3.67-2.23-7.67-4.18-11.55-6.5a46.27,46.27,0,0,1-5.62-3.86,4.48,4.48,0,0,0-1.08-.69,3,3,0,0,0-1.54-.18,3.19,3.19,0,0,0-2.38,1.7A3.15,3.15,0,0,0,0,297.8a3.88,3.88,0,0,0,.38,1.32c.26.59.56,1.16.87,1.72,2.55,4.48,5.93,7.89,8.48,11.59a82.71,82.71,0,0,1,6.72,11.17q1.38,2.79,2.51,5.54c.75,1.82,1.43,3.69,2.35,5.43A13.64,13.64,0,0,0,25,339.11a14.71,14.71,0,0,0,4.74,2.42A47.27,47.27,0,0,0,38.34,343a52.07,52.07,0,0,0,6.57.4,14.5,14.5,0,0,0,4.16-.57l.21-.08c.53,1.25,1.12,2.73,1.68,4.45a62.65,62.65,0,0,1,2.79,23.24,142.28,142.28,0,0,1-3.81,23.44c-.6,2.57-1.09,4.72-1.43,6.35-2.82,8.8-5.78,16.68-8.57,23.39-3.4,8.21-6.5,14.71-8.66,19.19s-3.4,7-3.22,7,1.67-2.22,4.12-6.58,5.81-10.77,9.45-18.94a264.65,264.65,0,0,0,11-29.41c1.74-5.66,3.38-11.65,4.85-17.92,1.08-4.48,2-9.1,3-13.74.27-.68.77-2.53,1.56-5.37A104.06,104.06,0,0,1,68,343c1.29-2.72,2.84-5.61,4.58-8.62a102,102,0,0,1,7.59-9.18c4-4.3,7.95-8.23,11.68-11.91L95.14,310c1.31.05,3.42.09,6.09.37a44.08,44.08,0,0,1,8,1.61,38.88,38.88,0,0,1,4.49,1.63,6,6,0,0,1,1.79,1.12,1.79,1.79,0,0,1,.44.62.73.73,0,0,1,0,.46,2.9,2.9,0,0,1-1.27,1.24,9.45,9.45,0,0,1-2,1,12.13,12.13,0,0,1-4.39.65,17.94,17.94,0,0,1-7.5-2.07,52,52,0,0,1-4.76-2.8c-1.12-.71-1.79-1.06-1.9-.93s.32.76,1.26,1.72a25.43,25.43,0,0,0,4.49,3.61,17.94,17.94,0,0,0,8.29,2.87,14,14,0,0,0,5.33-.63,11.81,11.81,0,0,0,2.64-1.26,7.89,7.89,0,0,0,1.25-1,3.93,3.93,0,0,0,1.08-1.65,3.32,3.32,0,0,0-.06-2.18,4.23,4.23,0,0,0-1.07-1.56,8.22,8.22,0,0,0-2.61-1.62,37.8,37.8,0,0,0-4.83-1.59,36.39,36.39,0,0,0-8.48-1.13,31.1,31.1,0,0,0-5.09.36l5.9-5.85c6.31-6.29,11.38-11.42,14.85-15,.77-.79,1.44-1.5,2-2.13.09.13.17.2.2.17s0-.17,0-.4c2-2.11,3-3.3,2.94-3.4a12.45,12.45,0,0,0-2.57,2c.26-.61.63-1.36,1-2.26a65.63,65.63,0,0,1,5.84-10.36c.35-.52.72-1,1.1-1.58l1.23-1.59c.81-1.09,1.78-2.14,2.74-3.25a64,64,0,0,1,6.79-6.46,64.76,64.76,0,0,1,8.52-5.85c1.58-.84,3.18-1.71,4.88-2.45.83-.41,1.7-.74,2.57-1.08l1.31-.52a.49.49,0,0,1,.43,0,.65.65,0,0,1,.3.31.47.47,0,0,1,0,.37,3.23,3.23,0,0,1-.29.46l-.39.59-.56.85a110.75,110.75,0,0,0-17.65,12.81c-10.41,9.07-17.15,18.07-16.63,18.49s8.1-7.61,18.34-16.53c5.09-4.46,9.88-8.28,13.36-11.06-.28.37-.55.76-.82,1.13-2.16,2.91-4.36,5.63-6.55,8.14A132.24,132.24,0,0,1,132.59,277a58,58,0,0,1-9.4,7.27c-2.42,1.39-4,1.63-4,1.84s1.7.25,4.4-.93,6.19-3.56,10.13-6.76a114.09,114.09,0,0,0,13.16-12.32c2.29-2.51,4.57-5.26,6.8-8.21,1.12-1.47,2.21-3,3.29-4.59l.8-1.2.4-.6a6.31,6.31,0,0,0,.46-.76,3.06,3.06,0,0,0,.09-2.43,3.18,3.18,0,0,0-1.64-1.74,3.13,3.13,0,0,0-2.4-.07l-1.37.55c-.91.36-1.83.71-2.69,1.14-1.77.78-3.44,1.7-5.08,2.6A63.68,63.68,0,0,0,136.8,257a62.84,62.84,0,0,0-6.88,6.87c-.95,1.19-1.91,2.3-2.71,3.47L126,269l-1.06,1.67a51.16,51.16,0,0,0-5.24,11,18.84,18.84,0,0,0-.86,3.23s0,.06,0,.09c-.74.65-1.59,1.42-2.55,2.3-3.69,3.36-9,8.29-15.44,14.41L90.29,311.76c-2.9,2.76-6,5.68-9,8.82,4.69-6.94,10.08-14.3,15.42-22.27,2.91-4.34,5.64-8.68,8.1-13s4.59-8.35,6.55-12.36c.81-.89,1.73-1.92,2.76-3.1,3.64-4.15,8.52-10,14.18-16.17s11.22-11.36,15-15.48c1.44-1.55,2.62-2.93,3.52-4a6.67,6.67,0,0,1,2.72-.65,36.16,36.16,0,0,1,3.61.22,16.18,16.18,0,0,0,5.08-.43,20.06,20.06,0,0,0,5.71-2.36A25.2,25.2,0,0,0,166.7,229c.46-.37.92-.75,1.37-1.16s.82-.75,1.29-1.12c1.79-1.48,3.88-2.91,5.89-4.75a13.16,13.16,0,0,0,2.8-3.37,5.18,5.18,0,0,0,.65-2.59,4.52,4.52,0,0,0-1-2.62A7,7,0,0,0,173.71,210.63ZM129.79,232c.6-.73,2.33-4.61,4.82-10.52,2.84-6.66,6.62-15.92,11.64-25.69,2.48-4.9,5.17-9.37,7.6-13.51A126.78,126.78,0,0,0,159.93,171a48,48,0,0,0,2.92-8c0,.47-.08.95-.15,1.43-.13.71-.25,1.41-.38,2.12-.47,2.82-1.1,5.56-1.73,8.26A125.68,125.68,0,0,1,155.78,190a132.36,132.36,0,0,1-12.27,24.1,135.7,135.7,0,0,1-10.95,14.67c-1.12,1.39-2.09,2.45-2.8,3.28Zm-33.5,51.79c-.11-1.07.09-2.76.17-4.92.21-4.33.42-10.59.63-18.32s.4-16.93,1.42-27A135.27,135.27,0,0,1,101,217.78l.45-2c.17-.67.35-1.34.52-2,.34-1.36.76-2.7,1.16-4.06.16-.56.35-1.12.54-1.68-.41,1.76-.85,3.93-1.24,6.46-.29,1.83-.57,3.84-.78,6s-.41,4.48-.59,6.92c-.3,4.87-.48,10.23-.6,15.84S100.2,254.13,100,259c-.13,2.41-.22,4.7-.41,6.84-.08,1.07-.14,2.11-.24,3.1s-.19,1.94-.29,2.85c-.37,3.49-.78,6.32-1.06,8.34a35.16,35.16,0,0,0-1.2,3.62l-.31,1.09A5.73,5.73,0,0,1,96.29,283.76ZM91.63,184c8.74-10.17,19.2-22.24,30.93-35.54,5.86-6.65,12-13.61,18.48-20.79l9.86-10.93,5-5.57c1-1.07,2-2.15,2.93-3.2-1.61,2.39-3.68,5.48-6.19,9.11-1.56,2.24-3.27,4.7-5.18,7.29s-4,5.33-6.13,8.21c-4.43,5.71-9.44,11.87-14.94,18.13s-11,12-16.14,17.08c-2.59,2.51-5,4.93-7.39,7.1s-4.56,4.22-6.59,6.05c-3.36,3-6.23,5.49-8.42,7.41C89.09,186.9,90.34,185.46,91.63,184Zm25.55-78.71c.57-.88-.56-7.8,1.73-15.76,2.54-8.83,4.08-18.08,7.25-31.75s6-19.19,7.62-28.25c.83-4.7,5.57-16.68,5.91-19.24.86,5.28-.48,6.77-1.78,11.74a122.84,122.84,0,0,0-3.38,15c-1,6.5-4.46,15.22-5.5,20.88s-2.75,10.25-3.87,15.62a50.74,50.74,0,0,1-2.38,8.63c-1.25,3.76-1.87,8.12-2.75,11.5-1.08,4.17-2.49,12.5-3.15,13.47.07-.41.14-.81.2-1.18S117.15,105.47,117.18,105.25ZM65.75,150.8A87.07,87.07,0,0,0,59,138.86c-2.81-4.36-6.14-9-9.12-14.07a73.92,73.92,0,0,1-3.91-7.5A77.4,77.4,0,0,1,43.23,110c-1.52-4.75-2.78-9.11-4.21-12.69s2.71,2.74,4.76,7.37c1,2.32,2.45,7.45,3.61,9.61s3.12,6.44,4.4,8.35c2.56,3.81,3.68,4.22,5.36,7.57s4.36,5.67,5,8.53c.09.47,3.45,5.78,3.53,6.23.67,2.44,1.5,4.32,1.52,6.07,0,1.57,1.64,4.11,1.83,5.46C68.56,155.09,66.51,152.46,65.75,150.8Zm6.82,6.76c0,.12-.78.48-.79.6,0-.51.43-1,.39-1.46,0,0,.09-.32.1-.32.16,0,.31-2.47.07-7.3-.08-1.29-.18-2.76-.35-4.35a33.24,33.24,0,0,1,1-4.66c.83-3,2.08-6.23,3.36-9.6,2.56-6.62,5.65-13.78,9.24-21.12a8.59,8.59,0,0,1,.8,3.09,31.25,31.25,0,0,1-.15,5.62,69.5,69.5,0,0,1-1.85,10.71,71.6,71.6,0,0,1-6.82,17.06c-1.29,2.31-2.47,4.45-3.33,6.42A21.43,21.43,0,0,0,72.57,157.56ZM50.64,342.36a19.92,19.92,0,0,1-4,.07c-1.76-.13-3.9-.41-6.39-.83A49.31,49.31,0,0,1,32,339.78a13.09,13.09,0,0,1-4.07-2.23,11.74,11.74,0,0,1-3-4c-.8-1.6-1.42-3.4-2.15-5.3s-1.55-3.81-2.48-5.74A80.38,80.38,0,0,0,13.5,311c-2.65-3.87-6-7.34-8.29-11.37-.28-.51-.54-1-.77-1.53a1.19,1.19,0,0,1-.15-.41.48.48,0,0,1,0-.2l0,0c1.06.88,3.67,2.65,7,5.48a64.66,64.66,0,0,1,7.26,7.33A59.88,59.88,0,0,1,22.27,315c1.18,1.75,2.33,3.62,3.5,5.58a69.07,69.07,0,0,0,7.45,10.75,36,36,0,0,0,8.31,6.87c4.62,2.73,8.11,3.53,9,3.51.09.19.17.39.26.59Zm.93-1.21c-.16-.48-.56-1.36-1.09-2.6a38,38,0,0,1-2.5-8.26,39.83,39.83,0,0,1-.63-5.89,38.92,38.92,0,0,1,.47-6.76,34.62,34.62,0,0,1,4.24-12,103,103,0,0,1,3.29,12.6A39.34,39.34,0,0,1,55.74,331a29.34,29.34,0,0,1-2.39,8.21c-.68,1.46-1.2,2.37-1.31,2.75C51.88,341.64,51.73,341.39,51.57,341.15ZM177.44,217.42a11.36,11.36,0,0,1-2.24,2.71c-1.81,1.7-3.84,3.16-5.7,4.77-.46.39-.95.86-1.35,1.24s-.81.76-1.22,1.11a24,24,0,0,1-2.52,1.89,20.35,20.35,0,0,1-5,2.42,16.56,16.56,0,0,1-4.57.74,23.29,23.29,0,0,0-3.76.24,5.73,5.73,0,0,0-1.82.64,14.54,14.54,0,0,0,1-1.49l0,0c1.57-1.31,3.7-3.35,6.25-5.9s5.56-5.64,9.16-8.61a22.21,22.21,0,0,1,6-3.72,5.52,5.52,0,0,1,3.15-.3,4.52,4.52,0,0,1,2.53,1.84,1.85,1.85,0,0,1,.47,1.15A2.54,2.54,0,0,1,177.44,217.42Z"/></svg>