<svg xmlns="http://www.w3.org/2000/svg" viewBox="0 0 17.95 16.57"><defs><style>.a{fill:none;}.b{fill:#c5986e;}</style></defs><title>Recurso 2flower-sct3-2</title><path class="a" d="M8.13,7.53c0,.27.08.54.13.84a12.91,12.91,0,0,1,1.82-3.68c-.34.75-.69,1.5-1,2.25L9.11,7l1.07-1.35.08,0L9,7.75c.29,0,.39-.15.51-.27,1-1,1.91-1.9,2.86-2.86a1.18,1.18,0,0,1,.27-.22A23.1,23.1,0,0,1,9.87,7.49,9.5,9.5,0,0,1,10.76,7c.3-.13.58-.28.87-.42a5.86,5.86,0,0,0,2.55-2.45,2.64,2.64,0,0,0,.31-1,.82.82,0,0,0-.91-1,1.29,1.29,0,0,1-.39-.08L11.73,1.4c-.56.88-1.13,1.77-1.72,2.71a6.66,6.66,0,0,1,1.61-2.76l0,0a1.7,1.7,0,0,0-1.16-.9L10,.32a24.25,24.25,0,0,0-1.29,3.8A7.6,7.6,0,0,1,9.9.3c-.75-.13-1.14.13-1.6,1a5.49,5.49,0,0,0-.49,3.29C7.92,5.56,8,6.55,8.13,7.53Z"/><path class="a" d="M7.81,8.87C6.91,8.42,6,8.06,5.13,7.7S3.21,6.91,2.26,6.48A34.16,34.16,0,0,1,7,8.18l.06-.11L4.37,6l.06-.09L7,7.67A30.87,30.87,0,0,0,4.56,4.78,18.49,18.49,0,0,1,8,8.31,22.21,22.21,0,0,0,7.29,5.7,9.39,9.39,0,0,0,5.48,2.58a2.89,2.89,0,0,0-1.35-1,2.84,2.84,0,0,0-1-.13,1,1,0,0,0-.62.31,4.78,4.78,0,0,1,2.34,2l-2.36-2a1.34,1.34,0,0,0-.22.31l1,.86a2.43,2.43,0,0,1-1.1-.7,1.15,1.15,0,0,0-.07.63,3.13,3.13,0,0,0,.73,1.8s0,.07,0,.21l-.41,0a2.16,2.16,0,0,0-1.72.46A1.48,1.48,0,0,0,1,7.7c.23.1.44.27.67.38a6,6,0,0,0,1.26.52,12.22,12.22,0,0,0,1.82.21c.75,0,1.5.07,2.25.09Z"/><path class="a" d="M8.24,9.58,5.8,13l-.12-.08L8,9.46a3.54,3.54,0,0,0-1.2.67c-.4.29-.79.6-1.18.91s-.71.61-1.09.9A12.09,12.09,0,0,1,7.7,9.18a10.06,10.06,0,0,0-5.23,1.48,3.42,3.42,0,0,0-.94.92,1.17,1.17,0,0,0-.12,1.26,1.17,1.17,0,0,1,.06.2,2,2,0,0,1,.21-.35,8.33,8.33,0,0,1,2.6-1.88L1.56,13.07l-.09,0a1.58,1.58,0,0,1,.11.37,1.17,1.17,0,0,0,1.51,1l.32-.09s0-.09,0-.12a11,11,0,0,1,.69-.95,12.91,12.91,0,0,1,2.18-2.19l-2.8,3.39c.21.3.4.57.6.83A1.73,1.73,0,0,0,5.38,16a1.72,1.72,0,0,1,.38.08l1.42-2.72a4.31,4.31,0,0,1-.51,1.54,4.09,4.09,0,0,1-.74,1.24l.09,0c.59.26.86.23,1.19-.32a6.17,6.17,0,0,0,.68-1.48A14.6,14.6,0,0,0,8.24,9.58Z"/><path class="a" d="M10,9.41a10.84,10.84,0,0,1,2,2.24c-1-.86-1.73-2-3-2.51a13.57,13.57,0,0,1,2,3.25L9.78,10.57l-.08,0a17.67,17.67,0,0,1,1.2,2.83A31.75,31.75,0,0,0,8.52,9.27a.29.29,0,0,0,0,.09,26.26,26.26,0,0,1-.19,4.69,2.64,2.64,0,0,0,.42,2,.55.55,0,0,0,.83.19,2.39,2.39,0,0,1,.71-.28.87.87,0,0,0,.65-.42c.15-.23.26-.47.42-.78.12.17.21.31.31.44a1.06,1.06,0,0,0,1.33.28,5.85,5.85,0,0,1,.56-.28l-.73-1.5a1.9,1.9,0,0,1,.75,1.49l.29-.12c1-.35,1.26-.95.8-1.9a5.48,5.48,0,0,0-1.37-1.77A11.82,11.82,0,0,0,10,9.41Z"/><path class="a" d="M16.07,7.18H14.18a10.46,10.46,0,0,1,3.53,0,1.53,1.53,0,0,0-1.16-1.35A2.24,2.24,0,0,0,15,5.91a13.69,13.69,0,0,1-1.93.65A10.56,10.56,0,0,0,9.62,7.93c-.21.13-.41.28-.61.43.82-.15,1.59-.34,2.37-.42a7.14,7.14,0,0,1,2.48,0,14.49,14.49,0,0,0-4.29.59,15.14,15.14,0,0,1,5.11.38,19.1,19.1,0,0,0-5.34,0l.1.08A6.37,6.37,0,0,1,11,9.58c.88.48,1.73,1,2.59,1.55.44.26.85.57,1.31.8a4.21,4.21,0,0,0,1.11.34.9.9,0,0,0,.57-.14,1.36,1.36,0,0,0,.5-1.75L17,10.26v0l-2.66-.7a6.9,6.9,0,0,1,2.59.5.37.37,0,0,1,0-.23,4.53,4.53,0,0,1,.48-1.68,1.59,1.59,0,0,0,.33-.95C17.16,7.28,16.61,7.18,16.07,7.18Zm-.23.49a3.5,3.5,0,0,1,1.73.06l0,.15Z"/><path class="b" d="M15.84,7.67l1.71.21,0-.15A3.5,3.5,0,0,0,15.84,7.67Z"/><path class="b" d="M16.48,5.56a2.28,2.28,0,0,0-1.64.16,6.35,6.35,0,0,1-2.31.68A5.75,5.75,0,0,0,13,6c.48-.56,1-1.1,1.4-1.69A2,2,0,0,0,14.7,2.8a.9.9,0,0,0-.94-.88,1.21,1.21,0,0,1-.57-.15,2.67,2.67,0,0,0-1.38-.48A2.33,2.33,0,0,0,10.06.07,1.41,1.41,0,0,0,8.38.71,4.66,4.66,0,0,0,7.55,3a10.29,10.29,0,0,0,.19,2.54c0,.16,0,.32,0,.47a1.24,1.24,0,0,1-.26-.51A9.31,9.31,0,0,0,5.61,2.35,3.32,3.32,0,0,0,3.66,1.19c-1-.18-2,.67-1.82,1.55a3.31,3.31,0,0,0,.6,1.86L2,4.62a2.6,2.6,0,0,0-.56.07A1.87,1.87,0,0,0,0,6.27,1.72,1.72,0,0,0,1.05,8c.1.06.21.11.31.18A4.56,4.56,0,0,0,4.05,9c.51,0,1,.06,1.53.09a2.1,2.1,0,0,1-.52.21A12,12,0,0,0,2.42,10.4a3,3,0,0,0-1.18,1.18,1.47,1.47,0,0,0-.13,1.14c.09.33.2.65.3,1a1.38,1.38,0,0,0,1.69,1l.22-.05c.22.3.41.58.63.84a1.76,1.76,0,0,0,1.35.73,1.64,1.64,0,0,1,.63.19A1,1,0,0,0,7.41,16c.22-.31.38-.65.61-1a4.17,4.17,0,0,0,.15.46,5.56,5.56,0,0,0,.49.9.59.59,0,0,0,.77.22,4,4,0,0,1,1.18-.44c.17,0,.32-.24.46-.39a4,4,0,0,0,.3-.43,3.26,3.26,0,0,0,.36.29,1.12,1.12,0,0,0,1.21.13,6.25,6.25,0,0,1,1.26-.53,1.28,1.28,0,0,0,.87-1.36,2.82,2.82,0,0,0-.45-1.18c-.13-.22-.27-.42-.4-.63a1.41,1.41,0,0,1,.49.15,10.24,10.24,0,0,0,1.06.37,1.1,1.1,0,0,0,1-.19,1.66,1.66,0,0,0,.53-2,1,1,0,0,1-.12-.43,3.86,3.86,0,0,1,.44-1.55A1.72,1.72,0,0,0,16.48,5.56ZM8.3,1.29C8.76.43,9.15.17,9.9.3A7.6,7.6,0,0,0,8.75,4.12,24.25,24.25,0,0,1,10,.32l.38.11a1.7,1.7,0,0,1,1.16.9l0,0A6.66,6.66,0,0,0,10,4.11c.59-.94,1.16-1.83,1.72-2.71l1.46.67a1.29,1.29,0,0,0,.39.08.82.82,0,0,1,.91,1,2.64,2.64,0,0,1-.31,1,5.86,5.86,0,0,1-2.55,2.45c-.29.14-.57.29-.87.42a9.5,9.5,0,0,0-.89.48A23.1,23.1,0,0,0,12.64,4.4a1.18,1.18,0,0,0-.27.22c-.95,1-1.9,1.91-2.86,2.86-.12.12-.22.29-.51.27l1.26-2-.08,0L9.11,7,9,6.94c.35-.75.7-1.5,1-2.25A12.91,12.91,0,0,0,8.26,8.37c0-.3-.1-.57-.13-.84-.11-1-.21-2-.32-2.95A5.49,5.49,0,0,1,8.3,1.29ZM4.76,8.81A12.22,12.22,0,0,1,2.94,8.6a6,6,0,0,1-1.26-.52C1.45,8,1.24,7.8,1,7.7A1.48,1.48,0,0,1,.72,5.35a2.16,2.16,0,0,1,1.72-.46l.41,0c0-.14,0-.19,0-.21A3.13,3.13,0,0,1,2.1,2.9a1.15,1.15,0,0,1,.07-.63,2.43,2.43,0,0,0,1.1.7l-1-.86a1.34,1.34,0,0,1,.22-.31l2.36,2a4.78,4.78,0,0,0-2.34-2,1,1,0,0,1,.62-.31,2.84,2.84,0,0,1,1,.13,2.89,2.89,0,0,1,1.35,1A9.39,9.39,0,0,1,7.29,5.7,22.21,22.21,0,0,1,8,8.31,18.49,18.49,0,0,0,4.56,4.78,30.87,30.87,0,0,1,7,7.67L4.43,5.93,4.37,6,7.05,8.07,7,8.18a34.16,34.16,0,0,0-4.73-1.7c1,.43,1.91.82,2.87,1.22s1.78.72,2.68,1.17L7,8.9C6.26,8.88,5.51,8.86,4.76,8.81Zm3.13,5.52a6.17,6.17,0,0,1-.68,1.48c-.33.55-.6.58-1.19.32l-.09,0a4.09,4.09,0,0,0,.74-1.24,4.31,4.31,0,0,0,.51-1.54L5.76,16A1.72,1.72,0,0,0,5.38,16a1.73,1.73,0,0,1-1.26-.69c-.2-.26-.39-.53-.6-.83l2.8-3.39a12.91,12.91,0,0,0-2.18,2.19,11,11,0,0,0-.69.95s0,.08,0,.12l-.32.09a1.17,1.17,0,0,1-1.51-1,1.58,1.58,0,0,0-.11-.37l.09,0,2.72-2.26a8.33,8.33,0,0,0-2.6,1.88,2,2,0,0,0-.21.35,1.17,1.17,0,0,0-.06-.2,1.17,1.17,0,0,1,.12-1.26,3.42,3.42,0,0,1,.94-.92A10.06,10.06,0,0,1,7.7,9.18a12.09,12.09,0,0,0-3.21,2.76c.38-.29.73-.61,1.09-.9s.78-.62,1.18-.91A3.54,3.54,0,0,1,8,9.46L5.68,12.91,5.8,13,8.24,9.58A14.6,14.6,0,0,1,7.89,14.33Zm6.76-1.2c.46.95.2,1.55-.8,1.9l-.29.12a1.9,1.9,0,0,0-.75-1.49l.73,1.5a5.85,5.85,0,0,0-.56.28,1.06,1.06,0,0,1-1.33-.28c-.1-.13-.19-.27-.31-.44-.16.31-.27.55-.42.78a.87.87,0,0,1-.65.42,2.39,2.39,0,0,0-.71.28A.55.55,0,0,1,8.73,16a2.64,2.64,0,0,1-.42-2A26.26,26.26,0,0,0,8.5,9.36a.29.29,0,0,1,0-.09,31.75,31.75,0,0,1,2.38,4.18,17.67,17.67,0,0,0-1.2-2.83l.08,0L11,12.39A13.57,13.57,0,0,0,9,9.14c1.31.47,2.05,1.65,3,2.51a10.84,10.84,0,0,0-2-2.24,11.82,11.82,0,0,1,3.27,1.95A5.48,5.48,0,0,1,14.65,13.13ZM16.9,9.86a.37.37,0,0,0,0,.23,6.9,6.9,0,0,0-2.59-.5l2.66.7v0l.06.12a1.36,1.36,0,0,1-.5,1.75.9.9,0,0,1-.57.14,4.21,4.21,0,0,1-1.11-.34c-.46-.23-.87-.54-1.31-.8-.86-.52-1.71-1.07-2.59-1.55A6.37,6.37,0,0,0,9.44,9l-.1-.08a19.1,19.1,0,0,1,5.34,0,15.14,15.14,0,0,0-5.11-.38A14.49,14.49,0,0,1,13.86,8a7.14,7.14,0,0,0-2.48,0C10.6,8,9.83,8.21,9,8.36c.2-.15.4-.3.61-.43a10.56,10.56,0,0,1,3.45-1.37A13.69,13.69,0,0,0,15,5.91a2.24,2.24,0,0,1,1.55-.08,1.53,1.53,0,0,1,1.16,1.35,10.46,10.46,0,0,0-3.53,0h1.89c.54,0,1.09.1,1.64.05a1.59,1.59,0,0,1-.33.95A4.53,4.53,0,0,0,16.9,9.86Z"/></svg>