<svg xmlns="http://www.w3.org/2000/svg" viewBox="0 0 30.96 18.13"><defs><style>.a{fill:#c5986e;}</style></defs><title>Recurso 10flwr-5</title><path class="a" d="M30.74,18.13c-.19-.39-.4-.76-.58-1.15A46.49,46.49,0,0,0,22.45,5.19a24.16,24.16,0,0,0-3.17-3,1,1,0,0,0-.86-.2,9,9,0,0,0-4,2.07,63.34,63.34,0,0,0-5.12,5,35,35,0,0,1-6.18,5.42c-.57.37-1.16.7-1.73,1.07-.34.22-.67.46-1,.69l-.34.2A1.75,1.75,0,0,1,.08,16a11.85,11.85,0,0,1,1.07-1.55c.68-.78,1.43-1.51,2.17-2.24C4.84,10.7,6.14,9,7.52,7.43a64.47,64.47,0,0,1,6.1-6.27,7.79,7.79,0,0,1,.87-.64,1.78,1.78,0,0,1,1-.31q1.77,0,3.54-.06a7,7,0,0,0,.8-.09,3.53,3.53,0,0,1,3.51,1.25,19.62,19.62,0,0,1,2.39,3.63,85.36,85.36,0,0,1,4,9c.44,1.21.77,2.46,1.14,3.7C31,17.87,31,17.93,30.74,18.13Zm-.49-1.57.08,0a1.16,1.16,0,0,0,0-.18c-.28-.8-.53-1.61-.86-2.4A39,39,0,0,0,23.5,4.17,24.58,24.58,0,0,0,19.85.61a1.06,1.06,0,0,0-.79-.22c-.5,0-1,0-1.51,0L17,.44c.64.38,1.25.71,1.82,1.1A20.26,20.26,0,0,1,22.08,4.4a45.82,45.82,0,0,1,7.74,11.27C30,16,30.11,16.26,30.25,16.56ZM17.21.88,16.88,1l-.3.14a18.51,18.51,0,0,0-4.73,3.41,61.53,61.53,0,0,0-4.38,4.9,25.6,25.6,0,0,1-4.92,4.89c-.16.11-.31.24-.47.36a1,1,0,0,0,.48-.18A33.91,33.91,0,0,0,8.44,9.57c1.6-1.66,3.23-3.28,4.88-4.89a10.56,10.56,0,0,1,5.26-3ZM16.92.8a2.38,2.38,0,0,0-2.71.2l-.44.36A64.84,64.84,0,0,0,7.46,7.89a61.65,61.65,0,0,1-4.51,5c-.6.57-1.16,1.17-1.72,1.77-.19.2-.34.43-.51.64l.08.08c.25-.2.5-.41.76-.6A29.62,29.62,0,0,0,7.4,9.2c1.3-1.59,2.69-3.11,4.09-4.6a16.41,16.41,0,0,1,4.57-3.4ZM27.69,9.63a2.6,2.6,0,0,0-.1-.25C27,8.1,26.41,6.8,25.78,5.54A18.06,18.06,0,0,0,23.1,1.43a4.37,4.37,0,0,0-.92-.8A3.07,3.07,0,0,0,19.87.35C23.22,2.91,25.52,6.21,27.69,9.63Z"/></svg>