<svg xmlns="http://www.w3.org/2000/svg" viewBox="0 0 28.69 16.68"><defs><style>.a{fill:#c5986e;}</style></defs><title>Recurso 11stikflower</title><path class="a" d="M28.38,14.76a12.54,12.54,0,0,0-3.58-2.35A5.06,5.06,0,0,0,21,12.32l-.45.13.76-1a9.49,9.49,0,0,0,1.92-4.69,9.69,9.69,0,0,1,.33-1.49,13,13,0,0,0,.53-3,.91.91,0,0,0-.22-.76,1.17,1.17,0,0,0-1.09.28,8.34,8.34,0,0,0-2.69,2.85c-.29.5-.54,1-.8,1.54s-.43.89-.68,1.42c0-.23-.06-.36-.08-.49-.2-1.22-.37-2.43-.61-3.64a10,10,0,0,0-1-2.89c-.13-.23-.25-.5-.66-.55a2.53,2.53,0,0,0-.43.39,16.71,16.71,0,0,0-3.32,8c0-.12-.07-.23-.09-.35A16.61,16.61,0,0,0,10.1,2.21,7.1,7.1,0,0,0,8.67.55,1.54,1.54,0,0,0,7.41.17.77.77,0,0,0,7.1.91c0,.53,0,1.06.05,1.58a47.43,47.43,0,0,0,1.07,6c0,.14.06.28.09.41a.42.42,0,0,1-.23-.17A18.65,18.65,0,0,0,3,4a5.73,5.73,0,0,0-1.93-.8A.9.9,0,0,0,0,3.5c.21.31.4.65.64,1,1.62,2,3.23,4,4.89,5.93A17.63,17.63,0,0,0,9.4,13.72a13.57,13.57,0,0,0,1.79,1,4.14,4.14,0,0,1,1.37,1l.21.23A2.19,2.19,0,0,0,16,16a2.15,2.15,0,0,1,1-.49c.79-.21,1.59-.36,2.4-.53a13.47,13.47,0,0,1,7.31.4,8.93,8.93,0,0,0,1.45.32,1.44,1.44,0,0,0,.5-.07C28.72,15.14,28.71,15.06,28.38,14.76ZM18.49,8.82a19.13,19.13,0,0,1,.69-2c.27-.63.6-1.23.92-1.83a8.41,8.41,0,0,1,2.63-3,8.34,8.34,0,0,1,.89-.47,1.11,1.11,0,0,1,.2,1c-.18,1-.38,1.9-.58,2.85-.14.69-.3,1.37-.41,2.06a7.55,7.55,0,0,1-.7,2.07A11.68,11.68,0,0,1,19.62,13a7.44,7.44,0,0,1-2.91,1.63A4.58,4.58,0,0,0,18,13.8a9.66,9.66,0,0,0,1.82-2.2,22.75,22.75,0,0,0,1.67-3.44c.28-.72.54-1.45.82-2.18h-.09L22,6.39a36.26,36.26,0,0,1-2.27,4.85,8.86,8.86,0,0,1-2.32,2.7,6.46,6.46,0,0,1-.71.44l-.08-.09c2.06-1.72,2.95-4.14,3.93-6.51a.75.75,0,0,0-.21.29c-.47,1-.9,1.94-1.41,2.89a8.84,8.84,0,0,1-3.4,3.8h0l0-.13a.88.88,0,0,1,.12-.15A7.4,7.4,0,0,0,18,10.75C18.21,10.12,18.3,9.45,18.49,8.82ZM7.41,2.76A11.25,11.25,0,0,1,7.35.92,2.36,2.36,0,0,1,7.44.4a1,1,0,0,1,1,.31A9.35,9.35,0,0,1,9.67,2a15.54,15.54,0,0,1,2.49,6.12c.18,1,.26,1.93.43,2.88s.34,1.67.55,2.5a1.94,1.94,0,0,1,.09.71,33.2,33.2,0,0,1-2.49-6.73,28.35,28.35,0,0,0,1.92,6.22,2.22,2.22,0,0,1-.37-.44A21,21,0,0,1,9.51,7l-.78-2.9a24.46,24.46,0,0,0,1,4.21,18.12,18.12,0,0,0,3.05,6,4.12,4.12,0,0,0,.28.31,2.86,2.86,0,0,1-.43-.21,8.51,8.51,0,0,1-3-3.18A9.94,9.94,0,0,1,8.33,7.89C8,6.18,7.68,4.48,7.41,2.76ZM11.8,14.68a12,12,0,0,1-3.72-2.22,20.27,20.27,0,0,1-3-2.94L.83,4.33c-.2-.25-.36-.52-.56-.8a1.28,1.28,0,0,1,1.1,0,6.12,6.12,0,0,1,1.83.9,19.32,19.32,0,0,1,6.12,6.71,9,9,0,0,0,3,3.33,1.45,1.45,0,0,1,.18.17,12.4,12.4,0,0,1-1.5-.76A57.87,57.87,0,0,1,5.85,8.61a27.13,27.13,0,0,0,4.58,4.93,17.11,17.11,0,0,1-2.1-1.6A27.25,27.25,0,0,1,4.62,7.77c-.24-.32-.5-.63-.75-.95a.28.28,0,0,0,0,.19c1,1.26,1.9,2.55,2.94,3.75a15.38,15.38,0,0,0,4.38,3.51,5.93,5.93,0,0,0,1.29.56h0C12.28,14.78,12,14.75,11.8,14.68Zm1.78-.63A9.77,9.77,0,0,1,13,12a15.28,15.28,0,0,1-.19-4.11,13.72,13.72,0,0,1,1.36-4.37c.51-.94,1.07-1.86,1.63-2.78a4.6,4.6,0,0,1,.52-.61,5.64,5.64,0,0,1,.4.59A12.64,12.64,0,0,1,17.25,2a22.33,22.33,0,0,1,1,5.67,8.08,8.08,0,0,1-.65,3.38A7,7,0,0,1,16,13.85a6.44,6.44,0,0,1-.77.61,7.8,7.8,0,0,0,.5-.77,14.21,14.21,0,0,0,1.55-5c.11-.7.13-1.41.19-2-.27,1.39-.51,2.84-.86,4.26A10.44,10.44,0,0,1,15,14.37a3.36,3.36,0,0,1-.24.29.93.93,0,0,1-.39.06.56.56,0,0,0,0-.08l1-7.93a39.45,39.45,0,0,0-1.05,7.79c0-.12,0-.24-.07-.36a16.94,16.94,0,0,1-.06-3.56,29.17,29.17,0,0,1,.94-5.33c.12-.45.19-.9.28-1.35a3.81,3.81,0,0,0-.24.64c-.26,1-.54,2-.76,3A19.17,19.17,0,0,0,14,9.78a16.06,16.06,0,0,0-.1,2.19c0,.8.12,1.59.21,2.38a.76.76,0,0,0,.11.35A1,1,0,0,1,13.58,14.05Zm13.2,1.08c-.5-.13-1-.3-1.51-.39a18.89,18.89,0,0,0-2-.29A16.1,16.1,0,0,0,18,15a2.53,2.53,0,0,1-.38.07c.32-.1.64-.23,1-.35a20.83,20.83,0,0,1,4.18-1.13,2.35,2.35,0,0,0-.53,0,14.5,14.5,0,0,0-4,1,8.27,8.27,0,0,1-2,.59,1.31,1.31,0,0,1-.29-.11c.09-.05.16-.14.26-.16A12,12,0,0,0,19,13.91a6.33,6.33,0,0,1,3.83-.61,5.85,5.85,0,0,1,1.45.47c.87.39,1.71.83,2.57,1.25Zm1.6.24a3.79,3.79,0,0,1-.66-.18c-.83-.4-1.64-.83-2.47-1.22a17,17,0,0,0-1.88-.78,5.6,5.6,0,0,0-2.93,0l-.4.08s-.06,0-.18-.08A10.07,10.07,0,0,1,21,12.56a4.59,4.59,0,0,1,3.53,0,13.1,13.1,0,0,1,3.68,2.37,2.37,2.37,0,0,1,.23.3Z"/></svg>