<svg xmlns="http://www.w3.org/2000/svg" viewBox="0 0 27.38 117.19"><defs><style>.a{fill:#c5986e;}</style></defs><title>Recurso 6stikflower</title><path class="a" d="M25.1,39.24a1.13,1.13,0,0,1,0,.32c-.19,1.85-.36,3.7-.6,5.55-.2,1.52-.48,3-.74,4.55a17.51,17.51,0,0,0,.52,7.75c.8,2.86,1.6,5.72,2.15,8.64a57.52,57.52,0,0,1,.88,8.39,41.47,41.47,0,0,1-.63,8c-.29,1.87-.65,3.73-1,5.6a25.09,25.09,0,0,0-.2,6.12,32.51,32.51,0,0,1-.09,5.22c-.15,1.65-.34,3.3-.49,5-.16,1.85-.29,3.71-.44,5.56l0,.41q-.33,3.24-.67,6.48a3.4,3.4,0,0,1-.08.46h-.13c0-.14,0-.28,0-.42.21-2.2.44-4.39.63-6.58.18-2,.31-4,.48-6,.15-1.67.32-3.34.49-5a27.67,27.67,0,0,0,.1-4.55,29.43,29.43,0,0,1,.2-6.89c.27-1.53.58-3,.83-4.59s.5-3,.63-4.46a49.75,49.75,0,0,0-1.72-16.82c-.48-1.85-1-3.69-1.46-5.54a17.94,17.94,0,0,1-.14-7.37c.43-2.65.78-5.31,1.15-8,.06-.44.05-.89.08-1.33a2.73,2.73,0,0,1,.1-.41Z"/><path class="a" d="M1.43,0c0,.72,0,1.44,0,2.16s-.11,1.73-.14,2.6C1.23,5.9,1.23,7,1.16,8.17,1.07,9.71.93,11.25.81,12.79.71,14,.61,15.3.5,16.55a57.43,57.43,0,0,0-.26,6.29,43.87,43.87,0,0,0,.34,4.71c.38,3.14,1,6.24,1.6,9.35.29,1.6.49,3.21.71,4.81a51.31,51.31,0,0,1,.35,8.22c-.05,1.68-.17,3.37-.25,5,0,.85-.06,1.71-.12,2.56s-.16,1.82-.26,2.72c-.12,1.11-.24,2.23-.4,3.33s-.34,2.34-.52,3.51c-.24,1.57-.49,3.14-.71,4.71a64.38,64.38,0,0,0-.49,10c0,1.56.1,3.11.28,4.67A57.8,57.8,0,0,1,1,95.7c-.05,1,0,2-.05,3.07a3.89,3.89,0,0,1,0,.49H.8A1.55,1.55,0,0,1,.74,99c0-.63,0-1.26,0-1.89,0-1.69.13-3.38.12-5.07,0-1.35-.14-2.7-.23-4C.51,85.88.23,83.83.25,81.76c0-1.22,0-2.43,0-3.65,0-1.38.16-2.77.26-4.15.19-2.7.72-5.36,1.13-8,.26-1.76.47-3.53.7-5.29.3-2.36.37-4.74.49-7.12C3,51,3.09,48.43,3,45.89c-.06-1.43-.21-2.86-.35-4.28-.31-3.2-1-6.33-1.59-9.5-.32-1.84-.56-3.7-.8-5.56A42.43,42.43,0,0,1,.09,19c.09-1.76.29-3.51.43-5.27.11-1.37.23-2.74.31-4.1.11-2,.19-4.07.29-6.1,0-1.12.12-2.23.18-3.35a1,1,0,0,1,0-.17Z"/></svg>