<svg xmlns="http://www.w3.org/2000/svg" viewBox="0 0 7.07 17.55"><defs><style>.a{fill:#c5986e;}</style></defs><title>Recurso 10stikflower</title><path class="a" d="M7.07.11C7,.3,7,.5,7,.69,6.37,2.34,5.8,4,5.2,5.63A10.32,10.32,0,0,1,3.61,8.35c-.43.57-.87,1.12-1.3,1.69A9.78,9.78,0,0,0,.34,15c-.07.71-.06,1.42-.09,2.12,0,.15,0,.3,0,.45H.12A11,11,0,0,1,0,16.41,10.54,10.54,0,0,1,.57,12.8a10.68,10.68,0,0,0,.54-2.48,8.19,8.19,0,0,1,.55-2.19,19.89,19.89,0,0,1,2.16-4C4.62,3,5.38,1.89,6.16.76A4.63,4.63,0,0,1,6.59.2,1.61,1.61,0,0,1,7,0ZM6.14,2l-.22.41c-.52.93-1,1.87-1.58,2.79S3.21,7,2.65,7.83a8.63,8.63,0,0,0-1,2.5A17.34,17.34,0,0,0,6.14,2ZM1.35,10.08l.1.06a1.36,1.36,0,0,0,.1-.21A12,12,0,0,1,3.42,6.25,39.34,39.34,0,0,0,6.06,1.72l.18-.4A.48.48,0,0,0,6,1.54c-.71,1-1.41,2.06-2.12,3.08a17.78,17.78,0,0,0-2,3.71C1.65,8.89,1.52,9.5,1.35,10.08Z"/></svg>