<svg xmlns="http://www.w3.org/2000/svg" viewBox="0 0 2.93 54.78"><defs><style>.a{fill:#c5986e;}</style></defs><title>Recurso 5flwr</title><path class="a" d="M1.6,54.77c0-.16,0-.33-.05-.49-.06-1.43-.09-2.87-.19-4.3-.15-2-.32-4-.53-6S.32,40.23.1,38.33a17.48,17.48,0,0,1-.1-2A54.92,54.92,0,0,1,.62,28a31.62,31.62,0,0,0,.32-8c-.1-1-.22-1.94-.3-2.91a22,22,0,0,1,.75-7.65C1.7,8.28,2,7.15,2.31,6A18.11,18.11,0,0,0,2.62.66a3.49,3.49,0,0,1,0-.56s0,0,.1-.1c0,.12.07.22.09.33a18.61,18.61,0,0,1,.06,3.58A27.83,27.83,0,0,1,1.65,9.39a21.68,21.68,0,0,0-.82,5.24A33,33,0,0,0,1,18.21a33.43,33.43,0,0,1,.27,6.08c-.14,1.55-.37,3.08-.53,4.62s-.3,2.92-.42,4.38a29.21,29.21,0,0,0,0,4.86c.08,1.07.25,2.13.38,3.2.18,1.41.37,2.81.53,4.22.35,2.87.42,5.75.55,8.64a3.64,3.64,0,0,1,0,.57Z"/></svg>