<svg xmlns="http://www.w3.org/2000/svg" viewBox="0 0 27.08 15.43"><defs><style>.a{fill:#c5986e;}</style></defs><title>Recurso 12flwr-7</title><path class="a" d="M26.12,3.85a4.92,4.92,0,0,0-1.82.62,17.32,17.32,0,0,0-5,4.08.39.39,0,0,1-.22.15l.11-.38a42.56,42.56,0,0,0,1.35-5.48,14.22,14.22,0,0,0,.14-1.45.69.69,0,0,0-.24-.7A1.41,1.41,0,0,0,19.29,1a6.51,6.51,0,0,0-1.42,1.45,15.17,15.17,0,0,0-2.44,5.17l-.1.31A15.35,15.35,0,0,0,12.76.39,1.77,1.77,0,0,0,12.38,0a.77.77,0,0,0-.63.47,8.78,8.78,0,0,0-1.1,2.6c-.3,1.09-.52,2.2-.78,3.3,0,.12-.06.24-.11.44-.19-.49-.35-.92-.53-1.34s-.41-1-.64-1.47a7.62,7.62,0,0,0-2.3-2.77A1.07,1.07,0,0,0,5.3.9a.87.87,0,0,0-.25.68,12,12,0,0,0,.31,2.81,9.48,9.48,0,0,1,.22,1.4A8.69,8.69,0,0,0,7.05,10.2c.19.31.39.61.64,1L7.28,11a4.64,4.64,0,0,0-3.53-.14A11.45,11.45,0,0,0,.32,12.84c-.32.25-.34.32-.31.78a1.39,1.39,0,0,0,.46.09,8.5,8.5,0,0,0,1.34-.21,12.48,12.48,0,0,1,6.75.07c.73.21,1.46.39,2.17.63a2,2,0,0,1,.88.52,2,2,0,0,0,3,.1,2,2,0,0,0,.21-.19,3.66,3.66,0,0,1,1.32-.8,13.23,13.23,0,0,0,1.7-.81,16.27,16.27,0,0,0,3.76-2.83C23.23,8.5,24.83,6.76,26.44,5c.24-.26.43-.56.64-.83A.82.82,0,0,0,26.12,3.85ZM15.62,7.74a14.31,14.31,0,0,1,2.66-5.47,8.64,8.64,0,0,1,1.19-1.15.94.94,0,0,1,1-.22,2,2,0,0,1,.05.48,11.8,11.8,0,0,1-.16,1.69c-.36,1.56-.76,3.11-1.16,4.66a9.16,9.16,0,0,1-1.38,2.93,8,8,0,0,1-2.93,2.74,3,3,0,0,1-.41.17l.28-.27A16.79,16.79,0,0,0,17.88,8,22,22,0,0,0,19,4.17c-.29.88-.59,1.75-.89,2.63a19.38,19.38,0,0,1-2.94,5.65,1.48,1.48,0,0,1-.37.38A25.71,25.71,0,0,0,17,7.23a31.13,31.13,0,0,1-2.7,6,2,2,0,0,1,.13-.65c.24-.75.47-1.5.66-2.26S15.4,8.61,15.62,7.74Zm-9.25.68a6.84,6.84,0,0,1-.51-1.95C5.8,5.83,5.69,5.2,5.6,4.56c-.12-.89-.25-1.77-.36-2.66A1,1,0,0,1,5.49,1a8.6,8.6,0,0,1,.78.49A7.81,7.81,0,0,1,8.52,4.38c.25.57.52,1.14.73,1.73S9.62,7.34,9.77,8s.17,1.21.32,1.8a6.71,6.71,0,0,0,2,3.57s.07.1.11.15l0,.12h0a8.24,8.24,0,0,1-2.9-3.7C8.81,9,8.47,8.08,8.1,7.17a.81.81,0,0,0-.17-.28c.75,2.23,1.42,4.51,3.21,6.22l-.08.08a7,7,0,0,1-.62-.45,8.19,8.19,0,0,1-2-2.62A34.61,34.61,0,0,1,6.68,5.53c0-.14-.09-.27-.13-.4H6.47c.2.69.4,1.37.62,2.06a20.46,20.46,0,0,0,1.33,3.26A8.52,8.52,0,0,0,10,12.58a3.84,3.84,0,0,0,1.1.79,6.67,6.67,0,0,1-2.58-1.68A10.86,10.86,0,0,1,6.37,8.42Zm-6.09,5-.06-.13A1.49,1.49,0,0,1,.45,13,12.14,12.14,0,0,1,4,11a4.26,4.26,0,0,1,3.25.21c.34.16.65.4,1,.63a.75.75,0,0,1-.18.07l-.36-.1A5.14,5.14,0,0,0,5,11.69c-.6.16-1.19.38-1.78.6-.79.31-1.56.66-2.34,1A4.52,4.52,0,0,1,.28,13.39ZM5,12.85q-.91,0-1.83.15c-.48.06-1,.18-1.42.27l0-.1c.81-.34,1.61-.69,2.43-1a5.39,5.39,0,0,1,1.37-.34A5.8,5.8,0,0,1,9,12.62a10.62,10.62,0,0,0,2.47,1.14c.09,0,.15.12.23.17l-.28.09a7.74,7.74,0,0,1-1.79-.67,13.86,13.86,0,0,0-3.6-1.2,2.68,2.68,0,0,0-.49,0,19.35,19.35,0,0,1,3.78,1.28c.28.14.56.27.85.39l-.34-.09A14.78,14.78,0,0,0,5,12.85Zm8.34.78a.79.79,0,0,0,.13-.31c.12-.72.26-1.45.33-2.18a15.11,15.11,0,0,0,0-2A16.73,16.73,0,0,0,13.65,7c-.14-.93-.34-1.85-.52-2.77a4.56,4.56,0,0,0-.18-.6c.05.42.09.84.17,1.25a26.72,26.72,0,0,1,.55,5,15.6,15.6,0,0,1-.28,3.27,1.07,1.07,0,0,1-.19.52h0a25.27,25.27,0,0,0-.47-7.41c.14,2.47.29,4.94.43,7.41a.9.9,0,0,1-.3-.08,2.83,2.83,0,0,1-.2-.28A9.79,9.79,0,0,1,11.41,10c-.24-1.32-.36-2.67-.53-4,0,.59,0,1.25,0,1.9a13.06,13.06,0,0,0,1.13,4.68,4.83,4.83,0,0,0,.41.74,4.78,4.78,0,0,1-.67-.6,6.5,6.5,0,0,1-1.39-2.65A7.69,7.69,0,0,1,10,7,21,21,0,0,1,11.32,1.8,9.89,9.89,0,0,1,11.88.67a4.93,4.93,0,0,1,.4-.52,5.16,5.16,0,0,1,.45.6c.45.87.91,1.75,1.32,2.65a12.57,12.57,0,0,1,1,4.1,14,14,0,0,1-.43,3.76A8.71,8.71,0,0,1,14,13.07.86.86,0,0,1,13.35,13.63ZM26.27,4.91,22,9.42a18.48,18.48,0,0,1-2.93,2.52,11.07,11.07,0,0,1-3.55,1.82c-.22.05-.44.06-.67.1h0l.19,0-.05,0,.06,0a6.93,6.93,0,0,0,1-.39,14.06,14.06,0,0,0,4.24-2.95c1-1,1.95-2.18,2.92-3.27A.21.21,0,0,0,23.32,7c-.25.28-.5.55-.74.84a26,26,0,0,1-3.66,3.6,15.69,15.69,0,0,1-3,1.84A26.53,26.53,0,0,0,21.4,8.54a56,56,0,0,1-5.76,4.86l-.7.28a.84.84,0,0,1,.18-.15,8.53,8.53,0,0,0,2.94-2.88,17.53,17.53,0,0,1,6-5.8,5.47,5.47,0,0,1,1.73-.72,1.18,1.18,0,0,1,1,.08C26.63,4.45,26.47,4.7,26.27,4.91Z"/></svg>