<svg xmlns="http://www.w3.org/2000/svg" viewBox="0 0 17.67 37.41"><defs><style>.a{fill:#c5986e;}</style></defs><title>Recurso 7leave-sct3-2</title><path class="a" d="M14.8,5a88.32,88.32,0,0,0-4.3,7.89c-1.28,2.66-2.56,5.31-3.75,8S4.39,26.37,3.3,29.12s-2,5.51-3,8.29C0,37.33,0,37.14,0,36.92A60.73,60.73,0,0,1,2.13,27.6a155.19,155.19,0,0,1,6.11-17c1.29-3,2.75-5.88,4.3-8.74.19-.34.41-.67.63-1a2,2,0,0,1,2.25-.8c.22,0,.43.07.65.08A.92.92,0,0,1,17,.79a16,16,0,0,1,.45,1.78,15,15,0,0,1,.25,3.34c0,2.37-.05,4.73-.11,7.1-.06,1.84-.17,3.69-.28,5.53-.09,1.33-.22,2.67-.34,4-.06.6-.14,1.2-.21,1.8l-.1,0a2.83,2.83,0,0,1-.16-.36,15.72,15.72,0,0,1-.71-3.65c-.08-1.08-.2-2.16-.3-3.24,0-.43-.07-.85-.08-1.28,0-.85-.06-1.7-.08-2.55,0-1.8,0-3.59-.12-5.39,0-.82-.16-1.63-.25-2.44A2.6,2.6,0,0,0,14.8,5ZM.45,35.53H.54l.93-3.16A119.7,119.7,0,0,1,7.59,15.74a117.17,117.17,0,0,1,6.58-12.5.7.7,0,0,0,.08-.71c-.16-.39-.3-.79-.47-1.19A2.93,2.93,0,0,0,13.5.89a5,5,0,0,0-.86,1.3A113.5,113.5,0,0,0,5.39,18.48,127,127,0,0,0,.93,33.14C.75,33.93.61,34.73.45,35.53Zm14-32.12-.12,0A125,125,0,0,0,7.24,17.12C5.36,21.32,2,30.75,2,31.68A185.4,185.4,0,0,1,14.75,4.58ZM13.7.66c.21.45.45.85.6,1.28a19.37,19.37,0,0,1,1.06,5.11c.09,1.19.09,2.39.13,3.59.07,2,.11,3.94.22,5.9.09,1.62.25,3.23.41,4.85a14.32,14.32,0,0,0,.26,1.43l.12,0c0-.33-.08-.65-.09-1-.05-1.61-.12-3.21-.12-4.82,0-3.2.09-6.41.13-9.61a17.87,17.87,0,0,0-.09-1.94c-.1-1-.26-1.9-.41-2.84a9.53,9.53,0,0,0-.6-2.26A1.35,1.35,0,0,0,13.7.66Zm3,21,.07-.18c.11-1.46.25-2.92.34-4.39s.12-3,.17-4.44q0-.78,0-1.56c0-2.46.22-4.92,0-7.38a17,17,0,0,0-.49-2.54C16.64.44,16.36.3,15.55.37c.12.4.27.8.37,1.21a27.09,27.09,0,0,1,.74,6.83c0,3.63-.1,7.26-.14,10.89,0,.63,0,1.26.08,1.89A3.25,3.25,0,0,0,16.71,21.65Z"/></svg>