<svg xmlns="http://www.w3.org/2000/svg" viewBox="0 0 21.15 20.15"><defs><style>.a{fill:#c5986e;}</style></defs><title>Recurso 11upflwr</title><path class="a" d="M21.1,4.14A6.57,6.57,0,0,0,19.45.39C19.28.21,19.14,0,18.8,0a2.71,2.71,0,0,0-.25.24l-1,1.22a12.87,12.87,0,0,0-1.69,2.27c-.24.46-.47.92-.74,1.45A8.53,8.53,0,0,0,12.2,2.54a.57.57,0,0,0-.52.45,4.5,4.5,0,0,0-.22,1.15A6.09,6.09,0,0,0,12.17,7l.25.53L10.31,6.29a19.35,19.35,0,0,0-2-1.17.76.76,0,0,0-.43.7,4.33,4.33,0,0,0,.18,1.82c.15.48.33,1,.49,1.43,0,.14.08.29.15.52l-.78-.41A5.68,5.68,0,0,0,5,8.67a.79.79,0,0,0-.72,1.26A12,12,0,0,0,4.93,11,10.1,10.1,0,0,0,7.68,13.9a.76.76,0,0,1,.17.2l-.35,0a14.81,14.81,0,0,0-6.87.54.89.89,0,0,0-.63.45,1.6,1.6,0,0,0,.8,1.24c1,.69,2,1.4,3.08,2a16.07,16.07,0,0,0,6.28,1.81A8.29,8.29,0,0,0,15,19.21l.29-.15a1,1,0,0,1,1,0c.34.22.69.44,1,.63a4.4,4.4,0,0,0,1,.39.6.6,0,0,0,.79-.62,1.26,1.26,0,0,0-.07-.51c-.13-.37-.31-.73-.44-1.1a8.33,8.33,0,0,1-.45-1.33,5.85,5.85,0,0,1,.16-2.63c.24-.88.53-1.75.84-2.61.43-1.13.91-2.25,1.34-3.38A7.87,7.87,0,0,0,21.1,4.14Zm-9.44-.07A2.13,2.13,0,0,1,12.1,2.7c.39.27.75.49,1.08.75a5.48,5.48,0,0,1,1.6,1.65,1.44,1.44,0,0,1,.19.75,17.83,17.83,0,0,0,0,4.38l0,.25a23.18,23.18,0,0,0-2-5.19L15,10.57c-.25-.38-.47-.72-.7-1.05s-.51-.64-.78-.95A6.89,6.89,0,0,1,11.66,4.07ZM6.85,13a12.37,12.37,0,0,1-2.3-3c-.42-.74-.2-1.14.65-1.16a5.83,5.83,0,0,1,3.3.85,1.24,1.24,0,0,1,.51.64,13.88,13.88,0,0,0,1.37,3,7.93,7.93,0,0,0,.63.86L6.57,10.42a38.22,38.22,0,0,0,5,4.38c.27.27.54.54.84.79l.2.2L8.27,12.7a21.69,21.69,0,0,0,4.4,3.22l0,0-.5-.21a28.46,28.46,0,0,0-3.21-1.38A6.11,6.11,0,0,1,6.85,13ZM4.12,15.37a51.22,51.22,0,0,1,9,1.86c.77.24,1.5.57,2.24.88a1.13,1.13,0,0,1,.27.19,33.89,33.89,0,0,1-8.14-.76,20.09,20.09,0,0,0,8.21.81l0,0h0a9.88,9.88,0,0,1-1,.26,15.13,15.13,0,0,1-5.41,0C8.21,18.36,7.1,18,6,17.75l-.32-.05c.94.35,1.89.62,2.84.88a14,14,0,0,0,5.77.29,4.71,4.71,0,0,0,1.41-.4.87.87,0,0,1-.3.31,9.3,9.3,0,0,1-6.54.95,17.5,17.5,0,0,1-7.73-3.46,5,5,0,0,1-.72-.74A2.62,2.62,0,0,1,.17,15a5.31,5.31,0,0,1,.56-.21A13.59,13.59,0,0,1,9.91,15a41.19,41.19,0,0,1,5.35,2.59,1.28,1.28,0,0,1,.29.23.65.65,0,0,1,.2.46,1.44,1.44,0,0,0-.24-.25,7.19,7.19,0,0,0-2.07-.9,45.54,45.54,0,0,0-8-1.69c-.49-.06-1-.09-1.48-.13A.19.19,0,0,0,4.12,15.37Zm12.57,1.4a.64.64,0,0,1-.11.32A30.17,30.17,0,0,0,12,8.58c.22.34.44.68.65,1a32.22,32.22,0,0,1,2.6,4.8c.32.75.66,1.49,1,2.23a4.76,4.76,0,0,0,.28.49.46.46,0,0,1-.24.17,21.24,21.24,0,0,0-3.52-6.36l3.42,6.35a21.63,21.63,0,0,1-3.56-3.72A34.5,34.5,0,0,1,9.81,8.92a1.08,1.08,0,0,0,0,.18,24,24,0,0,0,2.7,4.63c.73.94,1.57,1.8,2.39,2.68a7.57,7.57,0,0,0,1,.81l.19.13h-.16a1.6,1.6,0,0,1-.54-.15A11.86,11.86,0,0,1,11,13.83a8.52,8.52,0,0,1-1.3-2.29c-.5-1.32-1-2.65-1.42-4A6.57,6.57,0,0,1,8.1,6a3.65,3.65,0,0,1,.14-.73l.9.55c.92.57,1.88,1.08,2.77,1.71A8.26,8.26,0,0,1,15,11.4c.55,1.47,1.06,3,1.57,4.45A2.38,2.38,0,0,1,16.69,16.77Zm4-10.38A17.74,17.74,0,0,1,20,8.6c-.46,1.24-1,2.46-1.44,3.7a10.18,10.18,0,0,0-.68,3.22,1.31,1.31,0,0,1-.27.86,5.72,5.72,0,0,1-.12-2.4c.21-1.16.44-2.32.69-3.47.29-1.33.63-2.64.91-4a12.28,12.28,0,0,0,.28-2.71c-.14.79-.21,1.59-.39,2.37-.35,1.57-.75,3.12-1.13,4.68A17.33,17.33,0,0,0,17.25,15c0,.29,0,.58,0,.87h0l.25.64-.06,0a.62.62,0,0,1-.29-.18c0-.22,0-.44,0-.66a20.21,20.21,0,0,1,.36-4.11,39.15,39.15,0,0,0,.56-5.92c0-.22,0-.44,0-.67-.15,2.72-.63,5.38-1,8.07a21.25,21.25,0,0,0-.08,3l0,0c-.47-1.41-1-2.8-1.39-4.22a16,16,0,0,1-.47-5,6.72,6.72,0,0,1,1.53-3.9C17.34,2,18.11,1.11,18.85.23c.33,0,.47.26.61.45A6.68,6.68,0,0,1,20.74,6.39Z"/></svg>