<svg xmlns="http://www.w3.org/2000/svg" viewBox="0 0 30.17 43.55"><defs><style>.a{fill:#c5986e;}</style></defs><title>Recurso 18watercolor</title><path class="a" d="M11.11,2.12A15,15,0,0,0,7.27,4.41C6.31,5.2,5.36,6,4.4,6.81A19.19,19.19,0,0,1,.34,9.31a.41.41,0,0,1-.34,0l.34-.42c1-1.19,2-2.4,3-3.55S5.51,3,6.65,1.82A6,6,0,0,1,9.74.29,14,14,0,0,1,11.56,0,4.46,4.46,0,0,1,15.4,1.41a25.63,25.63,0,0,1,3.42,4.81,97,97,0,0,1,9.47,23.51,69.07,69.07,0,0,1,1.38,7,48.16,48.16,0,0,1,.5,5.74A4.11,4.11,0,0,1,30,43.55a.63.63,0,0,1-.08-.23,44.92,44.92,0,0,0-1.22-8.39,74.27,74.27,0,0,0-6-17.07A64.32,64.32,0,0,0,16,6.91,25.27,25.27,0,0,0,11.6,2.46ZM9.3.62V.73a2.12,2.12,0,0,0,.2.12,14.08,14.08,0,0,1,2.73,1.78,27.85,27.85,0,0,1,5.13,5.6,73.51,73.51,0,0,1,11,23.89c.25,1,.47,1.9.71,2.86a.65.65,0,0,0,0-.33c-.26-1.22-.49-2.44-.78-3.65A81.82,81.82,0,0,0,24,18.27,65.54,65.54,0,0,0,17.9,7a28.53,28.53,0,0,0-4-4.75A10.67,10.67,0,0,0,11.54.45a.93.93,0,0,0-.48-.12C10.47.41,9.88.52,9.3.62Zm14,15.58.08,0c-.05-.14-.1-.28-.16-.42a81.52,81.52,0,0,0-4.56-9.23,24,24,0,0,0-3.52-5A4,4,0,0,0,12.67.27a8.93,8.93,0,0,0-.9,0c.54.38,1,.68,1.41,1A21.65,21.65,0,0,1,17.06,5.4a56.74,56.74,0,0,1,5.56,9.33C22.86,15.22,23.1,15.71,23.33,16.2ZM.94,8.69a2.41,2.41,0,0,0,.33-.19c.65-.52,1.33-1,1.94-1.58s1.34-1.37,2-2.07A17.29,17.29,0,0,1,9.53,1.42a1.62,1.62,0,0,0,.19-.13,1.38,1.38,0,0,0-1.64-.17A7.38,7.38,0,0,0,6.49,2.3,73.12,73.12,0,0,0,1,8.57S1,8.62.94,8.69Zm9.12-7.27-.31.14A11.52,11.52,0,0,0,7,3.5C5.66,4.76,4.4,6.06,3.12,7.34c0,0,0,0,0,.11s.22-.13.32-.21c.82-.66,1.66-1.3,2.45-2a16.64,16.64,0,0,1,5-3.24Z"/></svg>