<svg xmlns="http://www.w3.org/2000/svg" viewBox="0 0 29.74 20.36"><defs><style>.a{fill:#c5986e;}</style></defs><title>Recurso 8flwr-3</title><path class="a" d="M0,20.36a4,4,0,0,1,.12-.46c.89-2.19,1.75-4.39,2.7-6.56A29.91,29.91,0,0,1,6.45,6.83a27.92,27.92,0,0,1,3.53-4A11.49,11.49,0,0,1,15.66.12a10.35,10.35,0,0,1,3.24,0c1.76.23,3.52.51,5.28.66a25.72,25.72,0,0,0,3.4,0A12.84,12.84,0,0,0,29.06.49c.21,0,.42,0,.63-.08l0,.12a6.14,6.14,0,0,1-.45.43,10.76,10.76,0,0,1-3.63,1.77,21.48,21.48,0,0,1-2.49.49,18.37,18.37,0,0,1-2.45.19,26.75,26.75,0,0,1-3.35-.17A9.23,9.23,0,0,0,10.64,5,17.52,17.52,0,0,0,6.64,9,53.85,53.85,0,0,0,1.32,17.9c-.25.52-.45,1.08-.67,1.61A1.51,1.51,0,0,1,0,20.36ZM28.81.94a22.41,22.41,0,0,1-4.42.79,29.61,29.61,0,0,1-5.57,0,19,19,0,0,0-3-.05,9.9,9.9,0,0,0-3.57,1,11.94,11.94,0,0,0-4,3.22A38.33,38.33,0,0,0,2.8,14.22a1.73,1.73,0,0,0-.11.32A1.87,1.87,0,0,0,3,14.08,55.85,55.85,0,0,1,6.65,8.59a16.41,16.41,0,0,1,4.52-4.27,9.11,9.11,0,0,1,6-1.34,26,26,0,0,0,2.92.18c1.05,0,2.11-.11,3.16-.21a12.62,12.62,0,0,0,3.81-1A6.65,6.65,0,0,0,28.81.94Zm-1.95.26V1.15c-1.09,0-2.18,0-3.25-.15C22.07.85,20.54.62,19,.4a10.44,10.44,0,0,0-3.57,0A11.37,11.37,0,0,0,10.21,3a25.15,25.15,0,0,0-3,3.29A21,21,0,0,0,5,9.5c-.07.13-.13.26-.19.4l.08,0,.33-.49A26.51,26.51,0,0,1,8.71,5a13,13,0,0,1,2.93-2.29,11.23,11.23,0,0,1,6.58-1.26A33.57,33.57,0,0,0,23,1.62c.61,0,1.22-.09,1.83-.16Z"/></svg>