<svg xmlns="http://www.w3.org/2000/svg" viewBox="0 0 61.28 99.26"><defs><style>.a{fill:#c5986e;}</style></defs><title>Recurso 17watercolor</title><path class="a" d="M61.23,79.87c-.21,0-.43,0-.63,0a13.07,13.07,0,0,1-1.49.22,27.47,27.47,0,0,1-3.4-.11c-1.76-.23-3.5-.58-5.25-.88A11.61,11.61,0,0,0,47.64,79c.08-1.7.15-3.39.18-5.09,0-2.36,0-4.73,0-7.1a14.85,14.85,0,0,0-.3-3.33,15.41,15.41,0,0,0-.48-1.77.9.9,0,0,0-.89-.65c-.22,0-.44-.05-.66-.08a2,2,0,0,0-2.24.84c-.2.33-.42.66-.61,1-1.51,2.88-2.92,5.8-4.17,8.8-.47,1.13-.91,2.28-1.35,3.42.08-1.06.17-2.13.32-3.2.23-1.57.48-3.14.71-4.71.18-1.17.37-2.34.53-3.51s.28-2.22.4-3.33c.1-.9.19-1.81.26-2.72s.07-1.71.11-2.56c.09-1.68.2-3.37.25-5,0-1.34,0-2.69,0-4,.14-.25.27-.51.43-.76a11.78,11.78,0,0,1,1.48-2,3.16,3.16,0,0,1,3.29-.9,7.13,7.13,0,0,1,4.42,3.33c.51.85.91,1.76,1.35,2.65l.25.46c.08-.08.09-.12.08-.16a13.44,13.44,0,0,0-1.93-3.72A7.15,7.15,0,0,0,44.78,42,3.51,3.51,0,0,0,43.62,42a3.71,3.71,0,0,0-2.44,1.33,13.52,13.52,0,0,0-1.5,2.17c0-1.25-.15-2.49-.32-3.74-.22-1.6-.41-3.21-.7-4.81-.57-3.11-1.22-6.21-1.61-9.35a46.61,46.61,0,0,1-.34-4.71A60,60,0,0,1,37,16.55c.11-1.25.22-2.51.32-3.76.12-1.54.25-3.08.35-4.62.06-1.14.06-2.27.11-3.41,0-.87.12-1.73.15-2.6s0-1.44,0-2.16h-.08a1.09,1.09,0,0,0,0,.17l-.18,3.35c-.1,2-.17,4.07-.29,6.1-.07,1.36-.19,2.73-.3,4.1-.14,1.76-.35,3.51-.43,5.27a43.39,43.39,0,0,0,.15,7.56c.24,1.86.48,3.72.8,5.56.55,3.17,1.28,6.3,1.6,9.5.14,1.41.29,2.82.34,4.24l0,.06a26.76,26.76,0,0,0-2.27,6.49c-.66,2.71-1.26,5.43-1.88,8.15-.52,2.34-1.05,4.69-1.55,7l.18-4.83c0-.45.07-.91.13-1.36a21.94,21.94,0,0,0,.34-3.61c0-1.31-.07-2.62-.08-3.93a40.8,40.8,0,0,0-.39-5.74c-.25-1.73-.49-3.46-.78-5.18a20.42,20.42,0,0,0-.56-2.14c0-.17-.1-.39-.42-.27,0,.3,0,.61,0,.92s.06.85.06,1.27a83.12,83.12,0,0,1-.24,8.5,20.52,20.52,0,0,0,.18,4.95c.22,1.45.51,2.88.78,4.31a24.36,24.36,0,0,1,.53,4.5v3.35c0,.14,0,.27,0,.4s-.09.39-.13.59c-.55,2.7-1,5.42-1.34,8.15-.32,2.42-.55,4.86-.71,7.29-.13,2.13-.14,4.26-.21,6.39,0,.39,0,.78,0,1.18l-.18,4s0,.09,0,.14c0-1.86,0-3.72,0-5.57S30.76,87,30.67,85c-.05-1.27-.18-2.54-.3-3.82-.1-1.08-.25-2.15-.34-3.24s-.19-2.07-.22-3.11c-.06-1.67-.12-3.34-.11-5,0-2.73.13-5.46.15-8.19a50.08,50.08,0,0,0-.48-7.73,43.93,43.93,0,0,0-1.59-7.19,62.76,62.76,0,0,1-2.24-9.06,32.79,32.79,0,0,0-1.2-5,10.34,10.34,0,0,0-2.38-4A5.43,5.43,0,0,0,16.89,27a6.32,6.32,0,0,0-5.1,5.4,1.43,1.43,0,0,0,.09.95c0-.1,0-.2,0-.29.05-.35.07-.69.14-1a6.11,6.11,0,0,1,2.62-3.91,5.68,5.68,0,0,1,4.15-.91,5.31,5.31,0,0,1,3.06,1.75,10.05,10.05,0,0,1,2.19,3.73A44.77,44.77,0,0,1,25.5,38.7,44.79,44.79,0,0,0,26.69,44,57.41,57.41,0,0,1,29,53.28c.17,1.17.33,2.34.43,3.52s.13,2.45.15,3.68,0,2.72,0,4.07-.13,2.81-.15,4.21a68.59,68.59,0,0,0,.26,8.6c.13,1.13.21,2.26.32,3.39.15,1.63.34,3.26.43,4.9s.09,3.12.11,4.68c0,2.27,0,4.53,0,6.8-.24-1-.47-1.91-.76-2.85a86.27,86.27,0,0,0-3.66-9.17A19.51,19.51,0,0,0,24,81.39,3.52,3.52,0,0,0,20.52,80a7,7,0,0,1-.8.06Q18,80,16.18,80a1.8,1.8,0,0,0-1,.27,7.82,7.82,0,0,0-.9.6,64.59,64.59,0,0,0-6.36,6C6.44,88.39,5.07,90,3.5,91.43c-.77.7-1.55,1.39-2.27,2.14A12.91,12.91,0,0,0,.1,95.08c-.07.09-.06.24-.1.45l.35-.18c.34-.22.68-.44,1-.65.58-.34,1.19-.65,1.77-1a34.43,34.43,0,0,0,6.39-5.15,61.72,61.72,0,0,1,5.33-4.77A9,9,0,0,1,19,81.88a1,1,0,0,1,.86.23,26.25,26.25,0,0,1,3,3.11,47.32,47.32,0,0,1,7.22,12.11c.16.39.35.77.53,1.16l.07-.06.05,0h0l0,.1.1-.07.05,0,0-.07a1.69,1.69,0,0,0,.5-.7c.25-.53.47-1.07.74-1.59a53.87,53.87,0,0,1,5-7.74c.08,1.19.18,2.38.19,3.57,0,1.69-.07,3.38-.11,5.07q0,.94,0,1.89a1.07,1.07,0,0,0,.06.31h.14c0-.16,0-.32,0-.49,0-1,0-2,0-3.07a62,62,0,0,0-.1-7.59c.15-.19.29-.39.45-.58A17.34,17.34,0,0,1,42,83.63a9.66,9.66,0,0,1,4.22-1.54,15.62,15.62,0,0,0,.66,2.78,2.37,2.37,0,0,0,.17.36l.1,0c.06-.6.14-1.2.18-1.8l.11-1.36a9.32,9.32,0,0,1,1.36.13,26.42,26.42,0,0,0,3.33.31,18.4,18.4,0,0,0,2.46-.09A19.53,19.53,0,0,0,57.11,82a10.72,10.72,0,0,0,3.7-1.61,6.14,6.14,0,0,0,.47-.42Zm-38.42.78a4.44,4.44,0,0,1,.89.84,17.8,17.8,0,0,1,2.5,4.22c.59,1.29,1.11,2.6,1.66,3.91a2,2,0,0,1,.09.26c-2-3.51-4.19-6.9-7.43-9.6A3.06,3.06,0,0,1,22.81,80.65Zm-22,13.9-.07-.08a7.87,7.87,0,0,1,.53-.62c.59-.58,1.17-1.16,1.79-1.7A60,60,0,0,0,7.81,87.3,63.72,63.72,0,0,1,14.38,81l.46-.34a2.37,2.37,0,0,1,2.71-.09c-.36.15-.62.25-.87.37A16.29,16.29,0,0,0,12,84.18c-1.46,1.44-2.91,2.89-4.27,4.42A29.63,29.63,0,0,1,1.62,94C1.35,94.16,1.1,94.36.84,94.55Zm13-10.21c-1.71,1.53-3.41,3.09-5.08,4.68a34.33,34.33,0,0,1-6.08,4.71.94.94,0,0,1-.48.15l.49-.34a25.81,25.81,0,0,0,5.11-4.68,63.63,63.63,0,0,1,4.58-4.71,18.65,18.65,0,0,1,4.87-3.22l.3-.13.34-.1,1.33.86A10.49,10.49,0,0,0,13.79,84.34ZM30.22,96.9c-.13-.3-.25-.61-.39-.9a46.18,46.18,0,0,0-7.27-11.58,20.73,20.73,0,0,0-3.15-3c-.55-.42-1.15-.77-1.78-1.18h.57c.5,0,1,.06,1.51,0a1,1,0,0,1,.77.25A24.15,24.15,0,0,1,24,84.25a39.26,39.26,0,0,1,5.52,10c.29.8.51,1.62.76,2.43a1.13,1.13,0,0,1,0,.18ZM47.63,79.21a10.78,10.78,0,0,1,2.94.21c1.51.28,3,.57,4.55.78,1.07.16,2.16.19,3.24.28v.06c-.67.06-1.34.13-2,.17s-1.23.09-1.84.09a35.1,35.1,0,0,1-4.8-.34,12.13,12.13,0,0,0-2.16-.11c0-.32,0-.63.06-.95A1.21,1.21,0,0,0,47.63,79.21Zm-2.22-18A9.56,9.56,0,0,1,46,63.49c.17.95.33,1.89.45,2.84a17.88,17.88,0,0,1,.12,1.94c0,3.2,0,6.41,0,9.61,0,.41,0,.82,0,1.23l-.47.09c-.06-.59-.12-1.18-.16-1.77-.14-2-.2-3.93-.3-5.9-.06-1.2-.08-2.4-.19-3.59a19,19,0,0,0-1.13-5.09c-.16-.43-.4-.82-.62-1.27A1.34,1.34,0,0,1,45.41,61.25Zm-.51,4.23A152.59,152.59,0,0,0,37,81.68c0-.68,0-1.36,0-2,.22-.55.43-1.06.62-1.5A123.34,123.34,0,0,1,44.5,64.29l.12,0C44.71,64.71,44.81,65.11,44.9,65.48Zm-2.14-2.36a5,5,0,0,1,.83-1.31,3.19,3.19,0,0,1,.3.45c.17.39.31.79.48,1.18a.72.72,0,0,1-.06.71A117.26,117.26,0,0,0,37.9,76.74c-.33.74-.62,1.49-.93,2.24,0-1,.05-2.1.11-3.15A110.19,110.19,0,0,1,42.76,63.12Zm-9.63-2.74c-.27-1.62-.61-3.23-.81-4.87a27,27,0,0,1,0-5.09,47.28,47.28,0,0,0,.22-5.05c0-.74,0-1.48,0-2.22v-.49h.09c.07.59.16,1.17.22,1.76.09,1,.19,1.94.26,2.92.05.7.11,1.41.11,2.12,0,3,0,6.08,0,9.13,0,.59.06,1.19.09,1.78Zm.3-2.19c0-2.36,0-4.73,0-7.1,0-1.55-.15-3.11-.25-4.67,0-.8-.12-1.6-.19-2.4,0-.22-.06-.45-.1-.68H33c.17,1.05.34,2.1.49,3.16.13.89.24,1.77.35,2.66.05.44.1.88.12,1.32,0,1.09.09,2.17.12,3.26,0,1.31.05,2.62.07,3.93a22.74,22.74,0,0,1-.4,4.12h-.12C33.54,60.58,33.45,59.39,33.43,58.19ZM31.36,88.48c0-.9.05-1.8.11-2.69.07-1.1.16-2.2.25-3.3s.16-2.27.31-3.39c.25-1.89.54-3.77.82-5.65.44-2.9,1-5.77,1.67-8.62q.72-3.16,1.47-6.31c.62-2.64,1.24-5.3,1.9-7.94a19.47,19.47,0,0,1,1.58-4.26c.07,2.4,0,4.79-.16,7.19s-.18,4.76-.49,7.12c-.23,1.76-.43,3.53-.7,5.29-.4,2.68-.93,5.34-1.12,8l-.12,1.69c-1.62,4.28-3,8.63-4.27,13-.56,2-1.05,4-1.44,6C31.27,92.63,31.36,90.56,31.36,88.48Zm-.21,8.17h-.07a1,1,0,0,0,0-.17c.13-.75.25-1.49.41-2.23a128.13,128.13,0,0,1,4.25-14.72c.34-1,.71-2,1.07-3,0,.52-.06,1-.08,1.57s0,1,0,1.44A130.81,130.81,0,0,0,32,93.47C31.73,94.53,31.44,95.59,31.15,96.65Zm5.59-14.43c-1.47,3.48-2.85,7-4.18,10.55-.05-.8,2.34-7.87,4.16-12.53,0,.5,0,1,0,1.52C36.73,81.91,36.74,82.06,36.74,82.22ZM31.52,96.7c.75-2.18,1.49-4.36,2.29-6.51.93-2.46,1.92-4.89,2.94-7.31,0,1.14.14,2.28.24,3.42a33.65,33.65,0,0,0-3.15,5.38C33,93.34,32.28,95,31.52,96.7Zm5.51-10c0,.1,0,.21,0,.31l-.63.86-.34.48-.08,0c.06-.14.13-.27.2-.4C36.46,87.5,36.74,87.1,37,86.71Zm-3,5.71a1.83,1.83,0,0,1-.36.44c0-.1.07-.21.12-.31a42.5,42.5,0,0,1,3.3-5.15c0,.18,0,.36,0,.54V88Q35.49,90.16,34,92.42Zm3-10.11c0-.12.09-.24.15-.36,1.15-2.7,2.39-5.38,3.63-8a85.6,85.6,0,0,1,4.19-8c.06.2.11.3.13.41.1.81.24,1.62.28,2.44.09,1.79.13,3.59.2,5.39,0,.85.07,1.7.11,2.55,0,.42.06.84.11,1.27s.08.84.13,1.26a11.43,11.43,0,0,0-4.49,2.2,28.66,28.66,0,0,0-3.69,3.86c-.19.23-.35.47-.53.7C37.08,84.79,37,83.55,37,82.31Zm.26,4.18a.31.31,0,0,0,0-.1c.41-.55.85-1.09,1.31-1.61a24.52,24.52,0,0,1,3.11-3.17A11.17,11.17,0,0,1,46,79.51c0,.33.07.66.1,1a10.8,10.8,0,0,0-2.95,1,12.66,12.66,0,0,0-3,2.17,25.13,25.13,0,0,0-2.81,3.11C37.26,86.65,37.26,86.57,37.25,86.49ZM42.56,83a16.47,16.47,0,0,0-4.69,4.07c-.17.22-.33.45-.51.67,0-.22,0-.43,0-.64a32.51,32.51,0,0,1,2.21-2.64,12.1,12.1,0,0,1,4.17-3,11.3,11.3,0,0,1,2.39-.71c0,.18,0,.35.05.52s0,.4.07.6A9.44,9.44,0,0,0,42.56,83Zm3.65-3.56.46-.11,0,1.07-.39,0C46.28,80.12,46.24,79.78,46.21,79.45Zm.13,1.22.38,0c0,.39,0,.78.05,1.17h-.31Zm.46,3c-.1-.47-.23-.94-.29-1.42a1.36,1.36,0,0,0,0-.2l.29,0c0,.22,0,.43,0,.65s.06.65.1,1Zm.37-1.35a.71.71,0,0,1-.06.19,3.25,3.25,0,0,1-.12-.47v0h.2C47.19,82.14,47.18,82.24,47.17,82.34Zm0-.55H47q0-.58-.06-1.17c.12,0,.25,0,.38,0C47.27,81,47.24,81.39,47.21,81.79Zm.1-1.44-.41,0a1.55,1.55,0,0,1,0-.22v-.88l.12,0,.37,0C47.36,79.61,47.34,80,47.31,80.35ZM47.39,79h-.17l-.33.07c0-3.26,0-6.52,0-9.78A27.57,27.57,0,0,0,46,62.46c-.11-.4-.26-.8-.39-1.2.8-.08,1.09.06,1.29.77a15.9,15.9,0,0,1,.52,2.54c.26,2.45.07,4.91.12,7.37,0,.52,0,1,0,1.57,0,1.48,0,3-.11,4.44C47.44,78.3,47.41,78.64,47.39,79Zm11.2,2.31a12.14,12.14,0,0,1-3.85.85c-1.06,0-2.11.11-3.17.07a22.08,22.08,0,0,1-2.91-.3,8.1,8.1,0,0,0-1.19-.11c0-.4.05-.8.08-1.2a17.25,17.25,0,0,1,2.77.17,29.5,29.5,0,0,0,5.56.19,21.65,21.65,0,0,0,4.45-.6A6.78,6.78,0,0,1,58.59,81.29Z"/></svg>