<svg xmlns="http://www.w3.org/2000/svg" viewBox="0 0 7.2 15.33"><defs><style>.a{fill:#c5986e;}</style></defs><title>Recurso 24watercolor</title><path class="a" d="M7.11,10.05a9.57,9.57,0,0,0-1.6-4.49C5.09,5,4.63,4.36,4.17,3.78a9.58,9.58,0,0,1-1.31-2,8.06,8.06,0,0,0-.54-1A2.85,2.85,0,0,0,1.73.16.56.56,0,0,0,.82.35a1.44,1.44,0,0,0-.21.75c0,.59.15,1.18.23,1.78a3.35,3.35,0,0,1,0,1.26C.54,5.28.3,6.44.11,7.6a8.83,8.83,0,0,0,1.15,5.92,10.06,10.06,0,0,0,.91,1.26,1.44,1.44,0,0,0,.93.55c.12-.3.12-.3-.3-1.27.27.19.46.35.66.48a9.52,9.52,0,0,0,1,.56c.35.15.56,0,.75-.28.09-.16.17-.32.26-.51l.32.46a.52.52,0,0,0,.51-.33A10.08,10.08,0,0,0,7,12.91,6.73,6.73,0,0,0,7.11,10.05ZM3,14.81a1.66,1.66,0,0,1,.11.34,2.1,2.1,0,0,1-1-.84A9.17,9.17,0,0,1,.38,10.62,5.13,5.13,0,0,1,.29,8.41a1.83,1.83,0,0,1,.09.39A8.84,8.84,0,0,0,1.9,13.07C2.26,13.65,2.61,14.23,3,14.81Zm2.15-.26a2.58,2.58,0,0,1-.33.48A5.09,5.09,0,0,1,2.7,13.62,7.73,7.73,0,0,1,.65,9.29,12.55,12.55,0,0,1,1,4.34c.13-.48.32-.68.66-.74-.51,3.6.51,6.89,2.08,10.06l.1,0c-.33-.82-.68-1.64-1-2.48a23.65,23.65,0,0,1-.77-2.57,18.21,18.21,0,0,1-.39-2.65c-.05-.71,0-1.43,0-2.15.07,2.44.94,6.32,1.69,7.36A41.54,41.54,0,0,1,1.78,3.59l.12,0A1,1,0,0,1,2.68,4c.42,1.22.85,2.43,1.23,3.67s.78,2.8,1.17,4.21A26.86,26.86,0,0,0,2.86,4.17,8.15,8.15,0,0,1,4.38,6.5a15.39,15.39,0,0,1,1,4.39c.05.55.08,1.1.1,1.65A4.51,4.51,0,0,1,5.11,14.55Zm1.72-1.86a10.64,10.64,0,0,1-.64,1.52,2,2,0,0,1-.29.35,1.08,1.08,0,0,1-.26-1.07,6.68,6.68,0,0,0,0-2.4,17.11,17.11,0,0,0-.92-4.23A8.31,8.31,0,0,0,3.55,4.67,8.18,8.18,0,0,1,3,3.88a.53.53,0,0,1-.11-.31A.78.78,0,0,1,3,3.32,12.91,12.91,0,0,1,5.66,8.07a40.69,40.69,0,0,1,.72,4.21c-.08-1-.09-2-.25-3a10.75,10.75,0,0,0-2.9-5.83l-.14-.13L3,3.29a.35.35,0,0,1,.07-.12c.14-.12.29,0,.41.11s.15.16.22.25A15.1,15.1,0,0,1,6.14,7.07,10.85,10.85,0,0,1,7,10.45,5.81,5.81,0,0,1,6.83,12.69Z"/></svg>