<svg xmlns="http://www.w3.org/2000/svg" viewBox="0 0 8.12 27.21"><defs><style>.a{fill:#c5986e;}</style></defs><title>Recurso 10upflwr</title><path class="a" d="M.13,0c0,.14.09.28.12.43.27,1.09.53,2.18.8,3.26A24.55,24.55,0,0,0,2.63,7.93c.6,1.33,1.23,2.65,1.78,4A20.84,20.84,0,0,1,5.76,16.7,84.28,84.28,0,0,0,7.53,25c.11.41.25.81.37,1.22s.15.6.22.89c-.29.19-.39,0-.48-.16a21.57,21.57,0,0,1-1-1.95c-.69-1.6-1.34-3.22-2-4.84a40.65,40.65,0,0,1-1.73-5.49c-.32-1.27-.68-2.53-1-3.8A22.69,22.69,0,0,1,1.33,7.3,12.56,12.56,0,0,0,1.13,6C.77,4.14.4,2.34,0,.53A4.24,4.24,0,0,1,0,0ZM2.45,8.07l-.13,0c.17.57.36,1.14.51,1.72.73,2.95,1.45,5.91,2.18,8.86.17.69.39,1.36.61,2,.31.93.62,1.85,1,2.77.2.56.41,1.11.62,1.67l.09,0c0-.16-.07-.32-.11-.47-.18-.72-.34-1.45-.54-2.16a46.75,46.75,0,0,1-1-5,26,26,0,0,0-1.26-4.93C3.81,11.07,3.1,9.58,2.45,8.07ZM1.68,6.83l-.12,0A23.82,23.82,0,0,0,2.14,11c.34,1.26.67,2.53,1,3.79.28,1,.58,2.1.89,3.14a13.15,13.15,0,0,0,.43,1.25c.31.84.63,1.68,1,2.51.39,1,.81,2,1.22,3l.09,0c-.09-.21-.18-.42-.25-.64-.26-.76-.53-1.52-.76-2.28-.46-1.49-1-3-1.35-4.48-.6-2.29-1.12-4.6-1.71-6.89C2.38,9.11,2,8,1.68,6.83Z"/></svg>