<svg xmlns="http://www.w3.org/2000/svg" viewBox="0 0 35.96 41.78"><defs><style>.a{fill:#c5986e;}</style></defs><title>Recurso 21watercolor</title><path class="a" d="M17.37,21.65c-1.72-2.44-2.35-5.26-2.86-8.2C14.38,15.78,16.06,20.6,17.37,21.65Z"/><path class="a" d="M35.9,35.45a8.27,8.27,0,0,1-.13-1.22,33.26,33.26,0,0,0-.19-4.11,8.38,8.38,0,0,0-1.24-3.73c-.41-.61-.88-1.18-1.35-1.8a5.43,5.43,0,0,0,.2-1.05A3.39,3.39,0,0,0,32,20.86a14.67,14.67,0,0,0-1.82-1.43A3.57,3.57,0,0,0,26.76,19c-.68.25-1.33.57-2,.86l-.38.14a1.27,1.27,0,0,1,.14-.19A17.41,17.41,0,0,0,28.82,9.64a16.68,16.68,0,0,0-.37-5.5,8.64,8.64,0,0,0-1-2.64,3,3,0,0,0-.72-.79.57.57,0,0,0-.95.35,2.76,2.76,0,0,0-.1.75c0,.51,0,1,0,1.52a4.52,4.52,0,0,1-.08.63,1.36,1.36,0,0,1-.23-.42c-.31-.62-.58-1.26-.94-1.85a1.39,1.39,0,0,0-1.31-.8c-.62,0-.91.54-1.15,1.06a7.9,7.9,0,0,1-.68,1.29,6.07,6.07,0,0,0-1,3c-.05.48-.09,1-.14,1.45a1.41,1.41,0,0,1-.18-.45A11.9,11.9,0,0,0,18.08,3.2,21.27,21.27,0,0,1,16,.45L15.92.33a.93.93,0,0,0-.8-.33,1.38,1.38,0,0,0-.88.5,5.62,5.62,0,0,0-1.17,1.93,15.51,15.51,0,0,0-1,4.31,20.83,20.83,0,0,0,.15,4.67A20.39,20.39,0,0,0,13.46,16a19.19,19.19,0,0,0,1.83,3.89c.26.4.57.78.86,1.17a1.51,1.51,0,0,1-.35-.2,21.41,21.41,0,0,0-2.14-1.3,16,16,0,0,1-2.79-1.66A13.62,13.62,0,0,0,9.44,17c-.22-.1-.47-.22-.72,0a1,1,0,0,0,.33.74c.45.54.91,1.05,1.35,1.59a6.63,6.63,0,0,0,2.86,2,2.09,2.09,0,0,1,.29.16,1.47,1.47,0,0,1-.48.1,25.41,25.41,0,0,0-4.6.51A7.68,7.68,0,0,0,2.64,27a37.1,37.1,0,0,1-1.92,3.9,7.5,7.5,0,0,0-.56,1.3,2.79,2.79,0,0,0,.11,2.12,1.66,1.66,0,0,0,1.25,1,3.85,3.85,0,0,0,1.55-.07,14.87,14.87,0,0,0,6-2.73,5.27,5.27,0,0,0,2-2.87c.23-.85.45-1.71.66-2.56A5.13,5.13,0,0,1,14,23.91a6.31,6.31,0,0,1,2.14-.85,2.43,2.43,0,0,1,3.1,1.84c0,.15.05.31.09.46a1.09,1.09,0,0,0,.1.25l.09,0,.06-.16A13.26,13.26,0,0,1,20,24.07a1.05,1.05,0,0,1,1.51-.58,4.86,4.86,0,0,1,2.15,2.26,3.14,3.14,0,0,1,.26,1.66,4.77,4.77,0,0,1-1.09,2.48c-.32.41-.65.81-1,1.22a7.44,7.44,0,0,0-1.36,2.69A5.79,5.79,0,0,0,20.61,37a7.7,7.7,0,0,0,3.68,4.27,3.77,3.77,0,0,0,2.65.42,13.11,13.11,0,0,1,2.34-.27,7.8,7.8,0,0,0,1.18-.08,3.27,3.27,0,0,0,1.38-.46,1.59,1.59,0,0,0,.8-1.46c0-.25,0-.49,0-.73.07,0,.09,0,.1,0l.36.36a1.43,1.43,0,0,0,2.13-.12,3.14,3.14,0,0,0,.43-.78A5.79,5.79,0,0,0,35.9,35.45ZM27.37,19.09a3.19,3.19,0,0,1,2.25.27,8.56,8.56,0,0,1,2.27,1.69A3.21,3.21,0,0,1,33,23.72a6.29,6.29,0,0,1-.14.74,3.17,3.17,0,0,1-.36-.21,11.17,11.17,0,0,0-5.22-1.91,26.86,26.86,0,0,0-3.59.05h-2.4v0h0c.44-.1.88-.23,1.32-.36a12.07,12.07,0,0,1,3.32-.65s.06,0,.16-.12a14.8,14.8,0,0,0-3.45.51,9.67,9.67,0,0,1,2.49-.91,7.72,7.72,0,0,1,4.41.25,5.07,5.07,0,0,0-2.06-.63,10.13,10.13,0,0,0-4.64.93l.46-.33A11.93,11.93,0,0,1,27.37,19.09ZM25.87,3.27c0-.56,0-1.13.05-1.7a3.86,3.86,0,0,1,.13-.66.56.56,0,0,1,.76.14,5.23,5.23,0,0,1,.64.92,10.35,10.35,0,0,1,.95,3,16.53,16.53,0,0,1,.28,3.58,17.65,17.65,0,0,1-4,10.79,17.78,17.78,0,0,0,1.82-3.52,19.39,19.39,0,0,0,1.15-4.75,42.34,42.34,0,0,0,.05-4.91A9.91,9.91,0,0,0,27.57,5c0,.1,0,.15,0,.19,0,1.18,0,2.37,0,3.55a17.31,17.31,0,0,1-.33,3.66.29.29,0,0,1,0,.09A33.29,33.29,0,0,0,27,7l.12,6a19.76,19.76,0,0,1-3,7l-.11.18a16.45,16.45,0,0,1-1.63,1.35s0-.08,0-.09A9.76,9.76,0,0,0,24.82,17a24.71,24.71,0,0,0,1-4.23A28.1,28.1,0,0,0,26,8.46c0-1-.15-1.91-.18-2.87C25.81,4.82,25.86,4.05,25.87,3.27ZM9,17.1a2.64,2.64,0,0,1,.52.17,12.58,12.58,0,0,1,1.4.87,12.26,12.26,0,0,0,2.51,1.5,11.27,11.27,0,0,1,3,2c-.57-.21-1.13-.41-1.71-.58a8.46,8.46,0,0,1-3.19-1.79l-.81-.73L9.25,17.3A.88.88,0,0,0,9,17.13Zm4.49,4.15a6.66,6.66,0,0,1-2.75-1.86c-.52-.6-1-1.19-1.54-1.8a.91.91,0,0,1-.13-.19c.79.71,1.58,1.42,2.39,2.12a6.16,6.16,0,0,0,2,1.24c1,.37,2.11.7,3.17,1l0,.08A26.27,26.27,0,0,1,13.47,21.25Zm1.75,1.81a5.63,5.63,0,0,0-3.86,4.51c-.15.75-.36,1.5-.58,2.24A4.31,4.31,0,0,1,9.3,32c0-.08,0-.11,0-.13a6.41,6.41,0,0,0,.59-3.68,7.83,7.83,0,0,1,0-1.28,4.12,4.12,0,0,1,2.56-3.33,8.55,8.55,0,0,1,2.74-.68l.33,0A1.77,1.77,0,0,1,15.22,23.06Zm2.4-.51c-.16,0-.33,0-.49,0a18.42,18.42,0,0,0-3.84.47l-.15.06c-1.85.35-5.25,2.38-6.24,3.86a22.69,22.69,0,0,1,4.62-3.11,5.18,5.18,0,0,0-.51.44,3.15,3.15,0,0,0-.9.56,3.49,3.49,0,0,0-1,1l1.44-1a4.75,4.75,0,0,0-.42.58A3,3,0,0,0,9.65,27c0,.71,0,1.42,0,2.13a8.29,8.29,0,0,1-.11,1.41,3.19,3.19,0,0,1-1.24,2,12.78,12.78,0,0,1-4.54,2.28h0A16.53,16.53,0,0,0,7.31,31a26,26,0,0,1-4.15,4,7.79,7.79,0,0,1-1.07.12,2.44,2.44,0,0,0,.31-.22,11.48,11.48,0,0,0,2.26-2.51,19.25,19.25,0,0,1-3,2.71,1.63,1.63,0,0,1-1.44-1.7,3.52,3.52,0,0,1,.32-1.7c.13-.29.28-.57.43-.84.36-.63.71-1.27,1-1.92a10,10,0,0,1,1.76-2.14c.82-.73,1.68-1.43,2.52-2.14A14.29,14.29,0,0,0,2.46,28c.15-.33.31-.64.44-1a7.32,7.32,0,0,1,5.44-4.59,17.46,17.46,0,0,1,3.36-.49c.89,0,1.77-.08,2.65-.07a11.9,11.9,0,0,1,2.85.36,2.53,2.53,0,0,1,.45.19Zm.38-.44,0,0v0a13.25,13.25,0,0,1-.82-1.53A17.29,17.29,0,0,1,16,16.29c-.16-1.13-.31-2.26-.42-3.39s-.23-2.4-.28-3.6c-.05-1,0-2,0-3.06a1.13,1.13,0,0,0-.16.58c0,1.65.06,3.3.1,5a10.87,10.87,0,0,0,.11,1.28c.15,1.2.3,2.39.48,3.58a16.84,16.84,0,0,0,1.2,4.28,6.36,6.36,0,0,0,.53,1c-.17-.11-.34-.22-.49-.34a7.14,7.14,0,0,1-2-2.41c-.54-1.08-1-2.19-1.48-3.32A19.08,19.08,0,0,1,12.4,11c-.11-.86-.12-1.72-.18-2.59a15.58,15.58,0,0,1,1.11-6A8.82,8.82,0,0,1,14,1.11a2.94,2.94,0,0,1,.61-.66.72.72,0,0,1,1.2.17,10.45,10.45,0,0,0,.81,1.16,27.2,27.2,0,0,0,.15,5.89V2c.33.42.68.82,1,1.24A11.36,11.36,0,0,1,19.63,7a20.41,20.41,0,0,1,.8,7.24,25.71,25.71,0,0,1-1.19,6.56A73.89,73.89,0,0,0,18.65,9.6q.27,5.67.56,11.32-.13.42-.3.81A.6.6,0,0,1,18,22.11Zm2.1.09a3.28,3.28,0,0,1-.87-.09,7.1,7.1,0,0,1,.14-.88,26.25,26.25,0,0,0,1.11-5,23.51,23.51,0,0,0,.16-5c-.1-1-.19-2-.24-3a10.37,10.37,0,0,1,.34-3.37,7.45,7.45,0,0,1,.6-1.32c.15-.3.31-.58.47-.87.05.6.13,1.2.14,1.81,0,1.42,0,2.84,0,4.26a29.42,29.42,0,0,0,.24-3.24A12.65,12.65,0,0,0,22,2.39l.2-.37a.31.31,0,0,1,.05-.1l.36,2.15a6.5,6.5,0,0,0-.24-2.37c.51-.81,1.24-.8,1.89.1a7.44,7.44,0,0,1,1.24,3.09,22.61,22.61,0,0,1,.32,5.45,26.08,26.08,0,0,1-1.35,7.12A8.91,8.91,0,0,1,23,20.23a11.73,11.73,0,0,1-1.14,1.2,2.56,2.56,0,0,1-.69.45,7.07,7.07,0,0,0,1.44-1.74,12.89,12.89,0,0,0,1.28-3.34c.08-.3.14-.61.2-.91-.32.81-.56,1.64-.86,2.45a7.77,7.77,0,0,1-2.6,3.7c.46-.73.94-1.45,1.32-2.21a16.62,16.62,0,0,0,1.32-4.47,34.32,34.32,0,0,0,.6-6.13c0-1.12-.08-2.23-.13-3.34a1.27,1.27,0,0,0-.06-.28A.49.49,0,0,0,23.6,6c0,.58,0,1.17,0,1.75,0,1.39.07,2.78-.06,4.16-.15,1.58-.46,3.16-.73,4.73a12.63,12.63,0,0,1-1.9,4.81c-.15.24-.3.48-.44.72Zm1.64,9.48c.36-.5.76-1,1.11-1.48a8.57,8.57,0,0,0,.9-1.43,3.74,3.74,0,0,0-.62-4.23c-.18-.21-.38-.41-.58-.62.06,0,.1,0,.12,0A5.53,5.53,0,0,1,25.6,27a2.39,2.39,0,0,1-.35,2.45,6.32,6.32,0,0,1-1,1c-1,.79-2,1.53-3,2.29l-.08-.06C21.37,32.32,21.53,32,21.74,31.68ZM35.5,37.92a3.16,3.16,0,0,1-.44.88,1.19,1.19,0,0,1-1.82.1c-.17-.17-.31-.37-.46-.55l-.37-.4c0,.52,0,.91,0,1.3a1.49,1.49,0,0,1-1.08,1.64,4.18,4.18,0,0,1-1.47.29,20.79,20.79,0,0,0-3.34.35,2.64,2.64,0,0,1-1.4-.11.65.65,0,0,0,0-.14c-.05-.59-.14-1.18-.15-1.78,0-1,0-2,0-2.93v-.23c0-.06,0-.12,0-.18a15,15,0,0,0,0,5.17c-.27-.13-.53-.27-.78-.41,0-.77-.07-1.53-.1-2.29A6.34,6.34,0,0,0,24,40.79a6.76,6.76,0,0,1-3.28-4.41,5.44,5.44,0,0,1,0-2.44,1.79,1.79,0,0,1,.68-1c.53-.45,1.09-.86,1.64-1.29s1.31-1,1.9-1.55a2.85,2.85,0,0,0,.6-3.81A5.14,5.14,0,0,0,24,24.52a11.13,11.13,0,0,1,3.1,2.33,15.72,15.72,0,0,1,2.73,4.36,11,11,0,0,0-2.56-4.51,9.09,9.09,0,0,0-3.7-2.49h0A10.45,10.45,0,0,0,20.91,23l-.24-.09,0,0,.22.06c1,.3,2,.58,2.92.91a11.33,11.33,0,0,1,6.39,5.52,15.11,15.11,0,0,1,1.46,3.91,7.63,7.63,0,0,0-.46-2,11.92,11.92,0,0,0-4.43-6.14,15.31,15.31,0,0,0-6.09-2.27.55.55,0,0,1,.51-.28,4.85,4.85,0,0,1,.66,0c.93,0,1.87,0,2.79,0a12,12,0,0,1,6.43,1.16,7.56,7.56,0,0,1,4.12,5.57,24.33,24.33,0,0,1,.3,3c0,.62.08,1.25.11,1.87a12.27,12.27,0,0,0-3.69-7,.86.86,0,0,0,.07.1,14.17,14.17,0,0,1,3.43,7.13c0,.35.15.68.22,1h0c0,.23,0,.45,0,.68A4.94,4.94,0,0,1,35.5,37.92Z"/></svg>