<svg xmlns="http://www.w3.org/2000/svg" viewBox="0 0 30.35 43.45"><defs><style>.a{fill:#c5986e;}</style></defs><title>Recurso 6leave-sct3-2</title><path class="a" d="M11.07,2.12A15,15,0,0,0,7.24,4.44c-1,.79-1.89,1.61-2.85,2.41a19.05,19.05,0,0,1-4,2.52.44.44,0,0,1-.34,0c.11-.14.22-.29.34-.43,1-1.19,1.94-2.4,3-3.56S5.47,3,6.61,1.85A6,6,0,0,1,9.69.3,12.51,12.51,0,0,1,11.51,0,4.47,4.47,0,0,1,15.36,1.4a25.7,25.7,0,0,1,3.45,4.78A97.23,97.23,0,0,1,28.4,29.64a66.91,66.91,0,0,1,1.42,7,46.21,46.21,0,0,1,.53,5.74,4.1,4.1,0,0,1-.12,1.09.63.63,0,0,1-.08-.23,45.74,45.74,0,0,0-1.27-8.38,73.84,73.84,0,0,0-6.08-17A62.68,62.68,0,0,0,16,6.89a25.22,25.22,0,0,0-4.46-4.42C11.41,2.35,11.26,2.25,11.07,2.12ZM9.25.64V.75l.19.12a14.06,14.06,0,0,1,2.74,1.76A27.89,27.89,0,0,1,17.35,8.2,73.74,73.74,0,0,1,28.45,32c.25.94.48,1.9.72,2.85a.64.64,0,0,0,0-.33c-.26-1.21-.5-2.43-.8-3.64A81,81,0,0,0,24,18.21,65.57,65.57,0,0,0,17.89,6.93a28.17,28.17,0,0,0-4-4.73A10.07,10.07,0,0,0,11.49.46.85.85,0,0,0,11,.33C10.42.42,9.83.53,9.25.64Zm14.12,15.5.08,0c-.06-.14-.1-.28-.16-.42a84.19,84.19,0,0,0-4.61-9.21,24.27,24.27,0,0,0-3.55-4.94A4,4,0,0,0,12.62.27a8.93,8.93,0,0,0-.9,0c.55.38,1,.67,1.42,1A22.62,22.62,0,0,1,17,5.37a57,57,0,0,1,5.61,9.3ZM.94,8.75a3.22,3.22,0,0,0,.33-.19C1.92,8,2.59,7.54,3.2,7s1.33-1.38,2-2.08A17.22,17.22,0,0,1,9.48,1.44l.2-.14A1.39,1.39,0,0,0,8,1.15,7.57,7.57,0,0,0,6.45,2.33,73.16,73.16,0,0,0,1,8.63.31.31,0,0,0,.94,8.75ZM10,1.43l-.32.14a11.49,11.49,0,0,0-2.77,2C5.63,4.79,4.38,6.1,3.11,7.39c0,0,0,.05,0,.11s.22-.13.32-.21c.81-.67,1.65-1.31,2.44-2a16.51,16.51,0,0,1,5-3.27Z"/></svg>