<svg xmlns="http://www.w3.org/2000/svg" viewBox="0 0 16.21 38.17"><defs><style>.a{fill:#c5986e;}</style></defs><title>Recurso 7flwr-2</title><path class="a" d="M16.17,12.84c-.06-2.36-.19-4.73-.28-7.09a16.15,16.15,0,0,0-.43-3.32c-.16-.59-.35-1.18-.56-1.75A.9.9,0,0,0,14,.07c-.22,0-.44,0-.66,0a2,2,0,0,0-2.2.93c-.19.34-.4.68-.57,1C9.16,4.92,7.87,7.9,6.75,11A155.2,155.2,0,0,0,1.59,28.27,61.47,61.47,0,0,0,0,37.7c0,.22,0,.4.27.47.86-2.83,1.66-5.65,2.57-8.44s1.93-5.6,3-8.37,2.17-5.48,3.3-8.2A87.94,87.94,0,0,1,13,5a2.4,2.4,0,0,1,.15.4c.13.81.31,1.61.38,2.42.17,1.79.29,3.59.43,5.38.07.85.14,1.7.22,2.54,0,.43.09.85.15,1.27.16,1.07.34,2.14.48,3.22a15.84,15.84,0,0,0,.91,3.6,3.84,3.84,0,0,0,.18.35l.1,0c0-.6.09-1.21.11-1.81.05-1.34.1-2.67.11-4C16.22,16.53,16.22,14.69,16.17,12.84ZM.46,36.29H.37c.11-.81.21-1.62.34-2.42A126.59,126.59,0,0,1,4.35,19,114.15,114.15,0,0,1,10.67,2.31,5,5,0,0,1,11.45,1a2.75,2.75,0,0,1,.31.44c.19.38.35.77.54,1.15a.74.74,0,0,1,0,.72A118.06,118.06,0,0,0,6.38,16.12a119.73,119.73,0,0,0-5.17,17C1,34.15.71,35.22.46,36.29ZM1.7,32.36c-.09-.93,2.77-10.54,4.42-14.83A123.2,123.2,0,0,1,12.46,3.41l.12,0c.11.39.22.78.33,1.15A186.1,186.1,0,0,0,1.7,32.36ZM15.56,22.7a14.44,14.44,0,0,1-.34-1.41c-.25-1.6-.51-3.21-.69-4.82-.22-1.95-.36-3.92-.54-5.88C13.88,9.4,13.81,8.2,13.65,7a19.16,19.16,0,0,0-1.34-5A12.72,12.72,0,0,0,11.64.73a1.33,1.33,0,0,1,1.6-.4A9.33,9.33,0,0,1,14,2.55c.2.93.41,1.87.57,2.81a18,18,0,0,1,.19,1.93c.14,3.2.25,6.41.42,9.61.08,1.6.25,3.2.38,4.8,0,.33.1.65.15,1Zm.32-1.37a.71.71,0,0,1-.06.19,4.25,4.25,0,0,1-.14-.46c-.07-.63-.15-1.25-.18-1.88-.16-3.63-.29-7.26-.47-10.88a26.86,26.86,0,0,0-1.12-6.78c-.13-.4-.29-.79-.44-1.19.8-.11,1.1,0,1.32.72a15.63,15.63,0,0,1,.63,2.51c.36,2.44.27,4.91.42,7.37q0,.78.06,1.56c0,1.48.08,3,.08,4.44S15.91,19.86,15.88,21.33Z"/></svg>