<svg xmlns="http://www.w3.org/2000/svg" viewBox="0 0 6.98 15.56"><defs><style>.a{fill:#c5986e;}</style></defs><title>Recurso 4flower</title><path class="a" d="M6.42,8.34a8.83,8.83,0,0,0,.06-6A10.09,10.09,0,0,0,5.84.9,1.46,1.46,0,0,0,5,.17c-.18.27-.18.27,0,1.31a7,7,0,0,0-.55-.6A7.6,7.6,0,0,0,3.67.13a.52.52,0,0,0-.79.12c-.12.14-.22.28-.35.45L2.3.18A.53.53,0,0,0,1.74.4a10.89,10.89,0,0,0-1,1.37A6.63,6.63,0,0,0,.05,4.54,9.5,9.5,0,0,0,.72,9.26c.29.69.62,1.35,1,2a10.09,10.09,0,0,1,.89,2.18,8,8,0,0,0,.32,1.09,2.83,2.83,0,0,0,.45.77.56.56,0,0,0,.93,0,1.62,1.62,0,0,0,.36-.7c.08-.59.09-1.19.13-1.78a3.3,3.3,0,0,1,.29-1.23C5.54,10.53,6,9.44,6.42,8.34ZM5.07.71A1.89,1.89,0,0,1,5,.35a2.15,2.15,0,0,1,.86,1,9.24,9.24,0,0,1,.87,3.94A5.14,5.14,0,0,1,6.4,7.51a2.67,2.67,0,0,1,0-.4,8.74,8.74,0,0,0-.63-4.49C5.52,2,5.29,1.35,5.07.71ZM2.73,12A13,13,0,0,1,1.07,6.77c-.13-1.44.13-2.85.14-4.27-.12,1-.32,2-.35,3a10.76,10.76,0,0,0,1.67,6.29l.11.16L2.7,12s-.05.08-.09.1-.29-.05-.38-.2l-.17-.28A15,15,0,0,1,.41,7.66,10.64,10.64,0,0,1,.29,4.19,5.81,5.81,0,0,1,.85,2,13.63,13.63,0,0,1,1.78.65,2.24,2.24,0,0,1,2.13.37a1.07,1.07,0,0,1,.05,1.1,6.77,6.77,0,0,0-.5,2.34,16.52,16.52,0,0,0,.06,4.33,7.9,7.9,0,0,0,.72,2.38c.14.29.24.59.35.88a.6.6,0,0,1,0,.32A1.34,1.34,0,0,1,2.73,12Zm2.12-.61c-.22.44-.45.6-.79.6C5.27,8.52,4.94,5.1,4,1.67h-.1c.16.87.34,1.75.46,2.63A24.09,24.09,0,0,1,4.64,7a18.54,18.54,0,0,1-.16,2.68c-.1.77-.28,1.52-.45,2.28a.56.56,0,0,1-.18,0,.78.78,0,0,1-.49-.29c.68-2.12.77-6,.13-7.23a27.87,27.87,0,0,1-.21,7.15l-.11-.16A8.55,8.55,0,0,1,2,8.57a15.16,15.16,0,0,1-.14-4.51C1.93,3.51,2,3,2.1,2.42a.29.29,0,0,1,0-.09,22.65,22.65,0,0,0,1,6.24C3,7.43,2.72,6.3,2.54,5.15c-.15-1-.27-1.95-.39-2.93A4.38,4.38,0,0,1,2.91.53a4.11,4.11,0,0,1,.42-.4A5.18,5.18,0,0,1,5.09,1.92,7.85,7.85,0,0,1,6.23,6.58,12.44,12.44,0,0,1,4.85,11.35Z"/></svg>