<svg xmlns="http://www.w3.org/2000/svg" viewBox="0 0 24.54 18.16"><defs><style>.a{fill:#c5986e;}</style></defs><title>Recurso 5capullo-2</title><path class="a" d="M24.33,3.51H24c-.54.06-1.07.11-1.6.18a13.85,13.85,0,0,0-2.78.49l-1.53.54a8.43,8.43,0,0,0-.3-3.89.56.56,0,0,0-.68,0,5,5,0,0,0-1,.69A6,6,0,0,0,14.7,4.05l-.18.55c-.25-.84-.46-1.6-.68-2.35A20.85,20.85,0,0,0,13.2.05a.74.74,0,0,0-.79.21,4.08,4.08,0,0,0-1.12,1.45c-.22.45-.42.91-.63,1.37-.06.14-.14.27-.25.48-.12-.34-.19-.59-.29-.83A5.54,5.54,0,0,0,8.33.33.79.79,0,0,0,6.94.75c-.11.41-.18.83-.25,1.25a10.11,10.11,0,0,0,0,4,.74.74,0,0,1,0,.25A3.08,3.08,0,0,1,6.46,6,14.85,14.85,0,0,0,1.09,1.65a.92.92,0,0,0-.77-.1A1.63,1.63,0,0,0,.06,3,36.41,36.41,0,0,0,.93,6.57a15.85,15.85,0,0,0,3.32,5.62A8.16,8.16,0,0,0,8.4,14.88l.31.09a1,1,0,0,1,.72.75c.11.39.21.79.34,1.18a4.69,4.69,0,0,0,.43.94.6.6,0,0,0,1,.09,1.54,1.54,0,0,0,.3-.42c.16-.36.28-.74.43-1.1a8.26,8.26,0,0,1,.59-1.28,5.8,5.8,0,0,1,1.92-1.8c.78-.48,1.58-.91,2.4-1.32,1.09-.54,2.21-1,3.3-1.54a7.89,7.89,0,0,0,3-2.38,6.56,6.56,0,0,0,1.37-3.85C24.53,4,24.59,3.72,24.33,3.51ZM14.57,6.08a6.9,6.9,0,0,1,1.77-4.51A2.12,2.12,0,0,1,17.6.88c.1.46.21.87.27,1.28a5.36,5.36,0,0,1,0,2.29,1.33,1.33,0,0,1-.37.68,17.84,17.84,0,0,0-3,3.23l-.16.2a23.3,23.3,0,0,0,2.12-5.14L14.27,8.56c.08-.45.16-.86.21-1.25S14.56,6.49,14.57,6.08ZM7.09,1c.19-.82.64-1,1.27-.39A5.76,5.76,0,0,1,10.17,3.5a1.21,1.21,0,0,1-.07.82,14.48,14.48,0,0,0-1,3.08c-.06.36-.1.71-.13,1.06q-.33-3-.66-5.77a38.36,38.36,0,0,0,.63,6.62c0,.38,0,.76.07,1.15a1.31,1.31,0,0,1,0,.28C8.64,9,8.3,7.28,8,5.52a21.79,21.79,0,0,0,1,5.36h0a4.46,4.46,0,0,1-.22-.5,27.38,27.38,0,0,0-1.39-3.2,6,6,0,0,1-.59-2.42A12.15,12.15,0,0,1,7.09,1Zm2.5,13.67a1.33,1.33,0,0,0,0-.35,7.2,7.2,0,0,0-.88-2.08A44.9,44.9,0,0,0,4,5.54c-.32-.38-.66-.75-1-1.12a.21.21,0,0,0,.05.19,51.85,51.85,0,0,1,5.29,7.54c.39.7.69,1.45,1,2.18a1,1,0,0,1,.07.31,33.31,33.31,0,0,1-5.4-6.13,20.24,20.24,0,0,0,5.41,6.23v0h0c-.36-.2-.64-.32-.89-.49a14.69,14.69,0,0,1-3.91-3.75C4,9.59,3.44,8.59,2.82,7.62c-.06-.09-.13-.17-.2-.26.44.9.95,1.75,1.46,2.6a14.32,14.32,0,0,0,4,4.17,4.88,4.88,0,0,0,1.31.67.81.81,0,0,1-.44,0A9.22,9.22,0,0,1,3.54,11,17.43,17.43,0,0,1,.3,3.2a4.51,4.51,0,0,1,0-1,1.93,1.93,0,0,1,.2-.52c.23.09.4.15.55.22A13.57,13.57,0,0,1,7.59,8.29,37.52,37.52,0,0,1,9.7,13.84a1.19,1.19,0,0,1,.06.37A.65.65,0,0,1,9.59,14.68Zm1.4-.27A30.36,30.36,0,0,0,13.5,5.08c-.08.4-.15.8-.23,1.2a33.12,33.12,0,0,1-1.4,5.28c-.29.76-.55,1.54-.8,2.32a4.75,4.75,0,0,0-.14.54.81.81,0,0,1-.22,0,29.82,29.82,0,0,0,1.21-7.07c-.41,2.35-.83,4.7-1.24,7.06l-.1,0a22.06,22.06,0,0,1,0-5.2,37.37,37.37,0,0,1,1.12-5.34,1.18,1.18,0,0,0-.1.16,24,24,0,0,0-1.21,5.21c-.11,1.19-.09,2.39-.1,3.59A9,9,0,0,0,10.4,14a1.42,1.42,0,0,0,0,.22.58.58,0,0,1-.12-.1,1.61,1.61,0,0,1-.3-.48,12,12,0,0,1-.85-5.45A8.57,8.57,0,0,1,9.8,5.67c.54-1.31,1.11-2.61,1.72-3.89A6.44,6.44,0,0,1,12.43.53,3.23,3.23,0,0,1,13,.09c.11.42.18.72.26,1,.29,1.05.63,2.08.85,3.14a8.25,8.25,0,0,1-.38,5c-.61,1.45-1.26,2.89-1.91,4.32a2.4,2.4,0,0,1-.58.73A.73.73,0,0,1,11,14.41ZM24.34,4.46a6.73,6.73,0,0,1-3,5,16.58,16.58,0,0,1-2,1.11c-1.18.59-2.39,1.13-3.58,1.71A10.41,10.41,0,0,0,13,14.19a1.31,1.31,0,0,1-.78.44A5.74,5.74,0,0,1,13.8,12.8c.95-.71,1.91-1.39,2.89-2.06S19,9.26,20.07,8.49a12.91,12.91,0,0,0,2.06-1.78c-.64.48-1.25,1-1.91,1.46-1.33.9-2.69,1.75-4,2.63a17.51,17.51,0,0,0-3.28,2.55c-.2.21-.39.43-.58.64h0l-.26.64H12a.7.7,0,0,1-.08-.26c.12-.17.27-.31.4-.47a21,21,0,0,1,3.1-2.79,39.14,39.14,0,0,0,4.48-4l.45-.5c-2,1.9-4.17,3.53-6.26,5.27A22.76,22.76,0,0,0,12,14.07s0,0,0,0a.8.8,0,0,1,.07-.2c.62-1.35,1.21-2.71,1.88-4a16,16,0,0,1,3.1-4,6.64,6.64,0,0,1,3.79-1.78c1.14-.18,2.3-.29,3.44-.42A.83.83,0,0,1,24.34,4.46Z"/></svg>