<svg xmlns="http://www.w3.org/2000/svg" xmlns:xlink="http://www.w3.org/1999/xlink" viewBox="0 0 401.67 402.39"><defs><style>.a{fill:url(#a);}.b{fill:url(#b);}.c{fill:url(#c);}.d{fill:url(#d);}</style><linearGradient id="a" x1="8.92" y1="400.77" x2="8.92" y2="-57.45" gradientUnits="userSpaceOnUse"><stop offset="0" stop-color="#f1dd80"/><stop offset="0.2" stop-color="#a57d24"/><stop offset="0.27" stop-color="#a88128"/><stop offset="0.33" stop-color="#b18c33"/><stop offset="0.39" stop-color="#c1a045"/><stop offset="0.45" stop-color="#d6bb5f"/><stop offset="0.51" stop-color="#f1dd80"/><stop offset="0.52" stop-color="#fbf2a8"/><stop offset="0.59" stop-color="#f1dd80"/><stop offset="0.84" stop-color="#a57d24"/><stop offset="0.94" stop-color="#d8be62"/><stop offset="1" stop-color="#f1dd80"/></linearGradient><linearGradient id="b" x1="98.16" y1="400.77" x2="98.16" y2="-57.45" xlink:href="#a"/><linearGradient id="c" x1="310.63" y1="400.77" x2="310.63" y2="-57.45" xlink:href="#a"/><linearGradient id="d" x1="390.87" y1="400.78" x2="390.87" y2="-57.45" xlink:href="#a"/></defs><title>Recurso 1arrow</title><path class="a" d="M17.62,384.87a.86.86,0,0,0-.81-.78c-.48,0-11.62-.47-15.25,3.18A5.36,5.36,0,0,0,6,396.38a5.36,5.36,0,0,0,9.11,4.44C18.71,397.23,17.74,386.12,17.62,384.87Z"/><path class="b" d="M16.74,385.79a.9.9,0,0,1-.61-.25.86.86,0,0,1,0-1.22L179,221.47a.86.86,0,0,1,1.22,1.22L17.34,385.54A.86.86,0,0,1,16.74,385.79Z"/><path class="c" d="M230.38,172.15a.87.87,0,0,1-.61-1.47l160.5-160.5a.86.86,0,1,1,1.21,1.22L231,171.89A.87.87,0,0,1,230.38,172.15Z"/><path class="d" d="M401.41.25a.86.86,0,0,0-.9-.2l-19.88,7.4a.86.86,0,0,0-.56.85.88.88,0,0,0,.64.79l9.45,2.41L392.58,21a.85.85,0,0,0,.79.65h0a.86.86,0,0,0,.81-.56l7.39-19.88A.85.85,0,0,0,401.41.25Z"/></svg>