<svg xmlns="http://www.w3.org/2000/svg" viewBox="0 0 63.29 83.79"><defs><style>.a{fill:#c5986e;}</style></defs><title>Recurso 3flower</title><path class="a" d="M11.72,43.46a8.8,8.8,0,0,0-1.15-5.91,8.59,8.59,0,0,0-.9-1.27,1.5,1.5,0,0,0-.94-.55c-.12.3-.12.3.3,1.27-.27-.19-.46-.34-.66-.47a8,8,0,0,0-1-.56c-.35-.15-.56,0-.75.28-.09.15-.16.31-.26.5-.14-.19-.23-.33-.32-.46a.52.52,0,0,0-.51.33,10.65,10.65,0,0,0-.71,1.54A6.72,6.72,0,0,0,4.72,41a9.65,9.65,0,0,0,1.6,4.49c.42.61.88,1.19,1.34,1.77a9.86,9.86,0,0,1,1.31,2,8.72,8.72,0,0,0,.54,1,2.71,2.71,0,0,0,.59.67.57.57,0,0,0,.91-.19,1.5,1.5,0,0,0,.21-.76c0-.59-.14-1.18-.23-1.77a3.57,3.57,0,0,1,0-1.26C11.3,45.78,11.53,44.62,11.72,43.46Zm-2.85-7.2a3.06,3.06,0,0,1-.11-.35,2.2,2.2,0,0,1,1.06.85,9.19,9.19,0,0,1,1.63,3.68,5.14,5.14,0,0,1,.09,2.21,2.74,2.74,0,0,1-.09-.39A8.78,8.78,0,0,0,9.93,38C9.57,37.42,9.22,36.84,8.87,36.26Zm0,11.48A12.75,12.75,0,0,1,6.17,43c-.41-1.39-.45-2.82-.72-4.22.08,1,.09,2,.25,3a10.74,10.74,0,0,0,2.91,5.82.8.8,0,0,0,.13.13l.07,0a.47.47,0,0,1-.07.12c-.14.11-.29,0-.41-.12l-.22-.24A15.18,15.18,0,0,1,5.7,44a11,11,0,0,1-.82-3.38A6.07,6.07,0,0,1,5,38.37a14.23,14.23,0,0,1,.64-1.51,1.73,1.73,0,0,1,.29-.35,1.1,1.1,0,0,1,.27,1.07,6.62,6.62,0,0,0,0,2.39,17,17,0,0,0,.92,4.23,8.34,8.34,0,0,0,1.2,2.19c.19.25.34.53.51.79a.63.63,0,0,1,.1.31A1.14,1.14,0,0,1,8.84,47.74Zm1.95-1c-.13.48-.32.68-.65.74.5-3.59-.52-6.88-2.09-10.06l-.1,0c.33.83.68,1.65,1,2.49a23,23,0,0,1,.77,2.57,18.21,18.21,0,0,1,.39,2.65c.06.77,0,1.55,0,2.33l-.18,0a.88.88,0,0,1-.54-.19c.24-2.22-.44-6-1.32-7.11a28.3,28.3,0,0,1,1.23,7l-.15-.14a8.34,8.34,0,0,1-1.7-2.53,15.47,15.47,0,0,1-1-4.39c0-.55-.08-1.1-.1-1.65,0,0,0-.07,0-.1a22.55,22.55,0,0,0,2.26,5.9c-.43-1.07-.88-2.13-1.29-3.22-.34-.92-.65-1.86-1-2.79a4.51,4.51,0,0,1,.41-1.81A5.22,5.22,0,0,1,7.05,36a5.19,5.19,0,0,1,2.09,1.41,7.81,7.81,0,0,1,2,4.33A12.34,12.34,0,0,1,10.79,46.72Z"/><path class="a" d="M63.08,52.07h-.34c-.53.06-1.07.11-1.6.18a13.85,13.85,0,0,0-2.78.49l-1.53.55a8.6,8.6,0,0,0-.29-3.9.56.56,0,0,0-.69,0,4.57,4.57,0,0,0-1,.68,6.14,6.14,0,0,0-1.45,2.57l-.18.55c-.25-.84-.46-1.6-.68-2.34A20.36,20.36,0,0,0,52,48.61a.75.75,0,0,0-.8.21A4.19,4.19,0,0,0,50,50.27c-.22.45-.42.91-.63,1.37a4.61,4.61,0,0,1-.25.48c-.11-.34-.19-.59-.28-.83a5.64,5.64,0,0,0-1.8-2.4.79.79,0,0,0-1.38.42,10.67,10.67,0,0,0-.26,1.25,9.93,9.93,0,0,0,0,4,1.46,1.46,0,0,1,0,.25l-.23-.27a14.85,14.85,0,0,0-5.37-4.32.92.92,0,0,0-.77-.1,1.63,1.63,0,0,0-.26,1.45c.25,1.2.51,2.4.87,3.57A15.77,15.77,0,0,0,43,60.75a8.16,8.16,0,0,0,4.15,2.69l.32.1a1,1,0,0,1,.72.74c.1.39.2.79.34,1.18a4.16,4.16,0,0,0,.42.94.6.6,0,0,0,1,.09,1.54,1.54,0,0,0,.3-.42c.16-.36.28-.74.43-1.1a8.26,8.26,0,0,1,.59-1.28,5.9,5.9,0,0,1,1.92-1.8c.78-.48,1.59-.91,2.41-1.32,1.08-.54,2.2-1,3.29-1.54a7.82,7.82,0,0,0,3-2.38,6.43,6.43,0,0,0,1.37-3.85C63.29,52.56,63.35,52.29,63.08,52.07Zm-9.76,2.57a6.9,6.9,0,0,1,1.77-4.51,2.12,2.12,0,0,1,1.26-.69c.1.46.21.87.27,1.28a5.21,5.21,0,0,1,0,2.29,1.35,1.35,0,0,1-.38.68,17.84,17.84,0,0,0-3,3.23l-.16.2A22.83,22.83,0,0,0,55.27,52L53,57.12c.08-.45.16-.85.21-1.25A10.18,10.18,0,0,0,53.32,54.64Zm-7.48-5.07c.2-.82.64-1,1.27-.39a5.69,5.69,0,0,1,1.81,2.88,1.16,1.16,0,0,1-.07.82,14.46,14.46,0,0,0-1,3.08A9.94,9.94,0,0,0,47.69,57q-.33-3-.65-5.77a36.48,36.48,0,0,0,.63,6.62A9,9,0,0,0,47.74,59a2.62,2.62,0,0,1,0,.28c-.34-1.73-.69-3.46-1-5.22a22.26,22.26,0,0,0,1,5.36h0l-.22-.51a27.38,27.38,0,0,0-1.39-3.2,6.15,6.15,0,0,1-.59-2.42A12.15,12.15,0,0,1,45.84,49.57Zm2.5,13.67a1.36,1.36,0,0,0,0-.35,7.32,7.32,0,0,0-.89-2.07,44.48,44.48,0,0,0-4.66-6.72c-.31-.38-.65-.75-1-1.12a.21.21,0,0,0,0,.19,51.85,51.85,0,0,1,5.29,7.54c.39.7.69,1.45,1,2.18a1.54,1.54,0,0,1,.06.31,33.31,33.31,0,0,1-5.4-6.13,20.24,20.24,0,0,0,5.41,6.23v0h0a9.63,9.63,0,0,1-.89-.49,14.69,14.69,0,0,1-3.91-3.75c-.65-.94-1.24-1.94-1.86-2.91l-.19-.26a28.81,28.81,0,0,0,1.46,2.6,14.16,14.16,0,0,0,4,4.17,4.88,4.88,0,0,0,1.31.67.8.8,0,0,1-.44,0,9.25,9.25,0,0,1-5.41-3.79,17.66,17.66,0,0,1-3.24-7.82,4.51,4.51,0,0,1,0-1,1.93,1.93,0,0,1,.2-.52c.23.09.4.15.55.22a13.57,13.57,0,0,1,6.56,6.43,38.71,38.71,0,0,1,2.12,5.55,1.18,1.18,0,0,1,0,.37A.65.65,0,0,1,48.34,63.24Zm1.4-.27a29.81,29.81,0,0,0,2.51-9.33c-.07.4-.15.8-.23,1.2a32.09,32.09,0,0,1-1.4,5.28c-.29.76-.55,1.54-.8,2.32a3.27,3.27,0,0,0-.13.54.89.89,0,0,1-.23,0,29.82,29.82,0,0,0,1.21-7.07q-.62,3.52-1.24,7.06l-.09,0a21.54,21.54,0,0,1-.05-5.2,37.37,37.37,0,0,1,1.12-5.34,1.18,1.18,0,0,0-.1.16,24,24,0,0,0-1.21,5.21c-.11,1.19-.09,2.4-.1,3.59a9,9,0,0,0,.15,1.26,1.89,1.89,0,0,0,.05.23l-.12-.11a1.58,1.58,0,0,1-.29-.48,11.81,11.81,0,0,1-.86-5.45,9,9,0,0,1,.62-2.56c.55-1.31,1.11-2.61,1.72-3.89a6.44,6.44,0,0,1,.91-1.25,3.6,3.6,0,0,1,.61-.44c.11.42.18.72.27,1,.28,1,.63,2.08.84,3.14a8.18,8.18,0,0,1-.38,5q-.92,2.17-1.91,4.32a2.26,2.26,0,0,1-.58.73A.62.62,0,0,1,49.74,63ZM63.09,53a6.67,6.67,0,0,1-3,5,16.45,16.45,0,0,1-2,1.11c-1.19.59-2.4,1.13-3.59,1.71a10.36,10.36,0,0,0-2.71,1.88,1.3,1.3,0,0,1-.79.44,5.74,5.74,0,0,1,1.56-1.83c1-.71,1.91-1.39,2.89-2.06s2.27-1.48,3.38-2.25a12.42,12.42,0,0,0,2.06-1.77c-.64.47-1.24,1-1.9,1.45-1.34.9-2.7,1.75-4,2.63a17.13,17.13,0,0,0-3.27,2.55l-.59.64h0l-.26.64h-.08a.7.7,0,0,1-.08-.26c.12-.17.27-.31.4-.47a21,21,0,0,1,3.1-2.79,38.31,38.31,0,0,0,4.48-4c.16-.16.3-.33.45-.5-2,1.91-4.17,3.53-6.26,5.27a24,24,0,0,0-2.12,2.16l0,0a1.59,1.59,0,0,1,.07-.2c.62-1.34,1.21-2.71,1.88-4a16,16,0,0,1,3.1-4,6.64,6.64,0,0,1,3.79-1.78c1.15-.18,2.3-.29,3.44-.42A.81.81,0,0,1,63.09,53Z"/><path class="a" d="M27.8,29.8c0,.15,0,.3,0,.45,0,1.11,0,2.23,0,3.35a24.36,24.36,0,0,0,.53,4.5c.27,1.43.56,2.86.78,4.31a20.52,20.52,0,0,1,.18,5,83.12,83.12,0,0,0-.25,8.5c0,.42.05.85.07,1.27s0,.62,0,.92c-.32.12-.37-.1-.42-.27a20.42,20.42,0,0,1-.56-2.14c-.3-1.72-.53-3.45-.78-5.18A40.8,40.8,0,0,1,27,44.72c0-1.31-.06-2.62-.08-3.93a21.94,21.94,0,0,1,.34-3.61,12.48,12.48,0,0,0,.12-1.36c.08-1.85.15-3.69.22-5.53a4.37,4.37,0,0,1,.09-.5Zm.35,8.39H28c0,.59.09,1.19.09,1.78,0,3.05,0,6.09,0,9.13,0,.71.05,1.42.11,2.12.07,1,.17,2,.26,2.91.06.59.14,1.18.21,1.77h.1v-.49c0-.74,0-1.48,0-2.22A50,50,0,0,1,29,48.15,25.45,25.45,0,0,0,29,43.06C28.75,41.42,28.42,39.81,28.15,38.19Zm-.47-1.39h-.11a22.75,22.75,0,0,0-.41,4.12c0,1.31.05,2.62.08,3.93,0,1.08.07,2.17.12,3.26,0,.44.07.88.12,1.32.11.88.22,1.77.35,2.66.15,1.06.32,2.11.49,3.16h.09c0-.23-.07-.46-.09-.69-.07-.79-.15-1.59-.2-2.39-.09-1.56-.21-3.12-.24-4.67-.05-2.37,0-4.74,0-7.1C27.83,39.18,27.74,38,27.68,36.8Z"/><path class="a" d="M30.42.38c0,.11,0,.23,0,.34-.08,1.84-.17,3.69-.25,5.53,0,.39,0,.79,0,1.18-.07,2.13-.08,4.26-.22,6.39-.15,2.43-.38,4.87-.7,7.29-.37,2.73-.79,5.45-1.34,8.15C27.32,32.19,26.65,35.1,26,38c-.61,2.72-1.22,5.44-1.87,8.14a26.83,26.83,0,0,1-2.27,6.5,13.57,13.57,0,0,1-1.76,2.63,3.67,3.67,0,0,1-2.43,1.33,3.77,3.77,0,0,1-1.16-.09,7.19,7.19,0,0,1-4.3-2.81A13.44,13.44,0,0,1,10.27,50s0-.09.08-.16l.24.46c.45.89.85,1.8,1.36,2.65a7.13,7.13,0,0,0,4.42,3.33,3.13,3.13,0,0,0,3.28-.9,11.84,11.84,0,0,0,1.49-2A18.79,18.79,0,0,0,23.39,48c.66-2.64,1.27-5.3,1.9-8q.75-3.13,1.47-6.3c.65-2.85,1.23-5.72,1.67-8.62.28-1.88.57-3.76.82-5.65.14-1.12.21-2.26.31-3.39s.18-2.2.25-3.3c.06-.9.12-1.79.11-2.69,0-2.66.14-5.3.27-7.95,0-.44,0-.88,0-1.32a3.13,3.13,0,0,1,0-.44Z"/><path class="a" d="M30.54,0c-.07.22-.09.34-.14.46-1,2.15-1.93,4.31-3,6.43a29.83,29.83,0,0,1-3.9,6.36,27.47,27.47,0,0,1-3.69,3.86,11.57,11.57,0,0,1-5.79,2.47,10.3,10.3,0,0,1-3.23-.16c-1.75-.3-3.49-.65-5.25-.88a27.53,27.53,0,0,0-3.4-.11,12.75,12.75,0,0,0-1.49.22c-.21,0-.42,0-.63.05l0-.11a6.14,6.14,0,0,1,.47-.42,10.72,10.72,0,0,1,3.7-1.61,19.53,19.53,0,0,1,2.51-.39,18.4,18.4,0,0,1,2.46-.09,26.6,26.6,0,0,1,3.33.31,9.28,9.28,0,0,0,6.8-1.45A17.53,17.53,0,0,0,23.43,11a55,55,0,0,0,5.69-8.63c.27-.52.49-1.06.73-1.59A1.51,1.51,0,0,1,30.54,0ZM1,18.21a21.65,21.65,0,0,1,4.44-.6A29.61,29.61,0,0,1,11,17.8,18,18,0,0,0,14,18a9.8,9.8,0,0,0,3.61-.83,12.06,12.06,0,0,0,4.16-3A38.23,38.23,0,0,0,27.49,6c.05-.1.08-.21.12-.31a1.88,1.88,0,0,0-.37.44,54.22,54.22,0,0,1-3.84,5.34,16.3,16.3,0,0,1-4.68,4.07,9.16,9.16,0,0,1-6.11,1.1,23.53,23.53,0,0,0-2.91-.31c-1,0-2.11,0-3.16.08a12.14,12.14,0,0,0-3.85.85A6.49,6.49,0,0,0,1,18.21Zm2-.18v.06c1.08.09,2.17.12,3.24.28,1.52.21,3,.5,4.55.78a10.14,10.14,0,0,0,3.56.15A11.37,11.37,0,0,0,19.62,17a25.17,25.17,0,0,0,3.11-3.17,21,21,0,0,0,2.34-3.14c.08-.13.14-.26.21-.4l-.08,0-.35.48A26.5,26.5,0,0,1,21.2,15a12.52,12.52,0,0,1-3,2.17,11.2,11.2,0,0,1-6.62,1,35,35,0,0,0-4.79-.34c-.62,0-1.23,0-1.84.09S3.58,18,2.91,18Z"/><path class="a" d="M16.32,32.63a83.15,83.15,0,0,0,4.18-8c1.25-2.67,2.48-5.35,3.64-8s2.28-5.47,3.32-8.24S29.41,2.84,30.39.05c.27.08.28.26.25.48a59.93,59.93,0,0,1-2,9.36A153.73,153.73,0,0,1,22.8,27c-1.25,3-2.67,5.92-4.17,8.8-.19.35-.41.68-.61,1a2,2,0,0,1-2.25.84c-.21,0-.43-.07-.65-.08a.89.89,0,0,1-.89-.65,17.81,17.81,0,0,1-.49-1.77,16.18,16.18,0,0,1-.3-3.33c0-2.37,0-4.74,0-7.1,0-1.85.11-3.69.2-5.53.06-1.34.17-2.67.28-4,0-.6.12-1.2.18-1.8l.1,0a4,4,0,0,1,.17.36,16.06,16.06,0,0,1,.76,3.63c.1,1.09.23,2.16.34,3.24,0,.42.08.85.11,1.27,0,.85.07,1.7.11,2.55.06,1.8.11,3.6.2,5.39,0,.82.18,1.63.28,2.44C16.21,32.33,16.26,32.43,16.32,32.63Zm13.9-30.7h-.09C29.84,3,29.55,4,29.25,5.1a121.14,121.14,0,0,1-5.88,16.73A115.37,115.37,0,0,1,17,34.42a.72.72,0,0,0-.06.71c.16.39.31.79.48,1.18a4.18,4.18,0,0,0,.29.45,4.84,4.84,0,0,0,.84-1.31,113.91,113.91,0,0,0,7-16.4A128.13,128.13,0,0,0,29.78,4.33C30,3.53,30.07,2.73,30.22,1.93ZM16.66,34.25l.12,0A123.34,123.34,0,0,0,23.7,20.43c1.82-4.22,5.07-13.7,5-14.63A186.92,186.92,0,0,1,16.38,33.09C16.47,33.46,16.56,33.86,16.66,34.25ZM17.49,37a12.45,12.45,0,0,1-.63-1.27,19.74,19.74,0,0,1-1.13-5.09c-.1-1.2-.13-2.4-.18-3.59-.1-2-.16-3.94-.3-5.9-.12-1.62-.31-3.23-.49-4.84,0-.48-.19-1-.28-1.42l-.12,0c0,.32.09.65.1,1,.07,1.61.18,3.21.19,4.82,0,3.2,0,6.41,0,9.61a15.66,15.66,0,0,0,.11,1.94c.12.95.29,1.89.45,2.84a9.58,9.58,0,0,0,.64,2.24A1.34,1.34,0,0,0,17.49,37ZM14.17,16a.71.71,0,0,0-.06.19c-.1,1.46-.22,2.92-.29,4.39s-.07,3-.1,4.44c0,.52,0,1,0,1.57,0,2.45-.14,4.92.11,7.37a17.11,17.11,0,0,0,.53,2.54c.2.71.48.85,1.29.77-.13-.4-.28-.8-.39-1.2a27.13,27.13,0,0,1-.84-6.83c0-3.62,0-7.25,0-10.88,0-.63-.06-1.26-.1-1.89A3.25,3.25,0,0,0,14.17,16Z"/><path class="a" d="M31.38,7.82c.18.4.37.78.53,1.17a46.82,46.82,0,0,0,7.22,12.1,24.82,24.82,0,0,0,3,3.11,1,1,0,0,0,.86.23,8.86,8.86,0,0,0,4.12-1.9,61.66,61.66,0,0,0,5.32-4.76,34.88,34.88,0,0,1,6.4-5.16c.58-.35,1.19-.66,1.77-1,.36-.2.7-.43,1-.65l.35-.18a1.8,1.8,0,0,1-.1.45,12.12,12.12,0,0,1-1.13,1.51c-.72.75-1.5,1.45-2.27,2.15-1.57,1.42-2.94,3-4.38,4.58a65.69,65.69,0,0,1-6.36,6,7.9,7.9,0,0,1-.9.61,1.8,1.8,0,0,1-1,.26l-3.54-.08a5.29,5.29,0,0,0-.8.05,3.52,3.52,0,0,1-3.46-1.4,19.51,19.51,0,0,1-2.23-3.72A86.27,86.27,0,0,1,32.16,12c-.39-1.22-.66-2.49-1-3.74C31.12,8.06,31.15,8,31.38,7.82Zm.43,1.59-.08,0a.86.86,0,0,0,0,.17c.25.81.47,1.64.76,2.43a39.09,39.09,0,0,0,5.52,10,23.7,23.7,0,0,0,3.51,3.71,1,1,0,0,0,.77.26c.5,0,1,0,1.51,0,.18,0,.35,0,.57,0-.63-.41-1.23-.76-1.78-1.17a20.32,20.32,0,0,1-3.15-3A46,46,0,0,1,32.2,10.32C32.06,10,31.94,9.71,31.81,9.41ZM44.19,25.62l.33-.11.31-.13a18.62,18.62,0,0,0,4.87-3.21,63.77,63.77,0,0,0,4.58-4.72,25.81,25.81,0,0,1,5.11-4.68c.17-.1.33-.23.49-.34a.86.86,0,0,0-.48.16,33.42,33.42,0,0,0-6.08,4.71C51.65,18.88,50,20.44,48.24,22a10.61,10.61,0,0,1-5.38,2.78Zm.29.09a2.41,2.41,0,0,0,2.71-.09l.46-.35A63.72,63.72,0,0,0,54.22,19a61.72,61.72,0,0,1,4.72-4.85c.62-.54,1.2-1.12,1.79-1.69.19-.19.36-.42.53-.62l-.07-.09c-.26.19-.51.4-.78.57a29.93,29.93,0,0,0-6.08,5.38c-1.36,1.53-2.81,3-4.27,4.43a16.7,16.7,0,0,1-4.71,3.2Zm-10.4-9.28a2,2,0,0,0,.09.26c.55,1.31,1.07,2.63,1.65,3.92a18.32,18.32,0,0,0,2.51,4.21,4.17,4.17,0,0,0,.89.84,3.06,3.06,0,0,0,2.29.37C38.27,23.33,36.11,19.94,34.08,16.43Z"/><path class="a" d="M49.51,42.05a14.86,14.86,0,0,0,3.84-2.29c1-.79,1.9-1.6,2.86-2.4a19.25,19.25,0,0,1,4.06-2.49.43.43,0,0,1,.35,0l-.34.42c-1,1.19-2,2.4-3,3.55s-2.18,2.37-3.32,3.5a5.92,5.92,0,0,1-3.09,1.53,12.51,12.51,0,0,1-1.82.28,4.5,4.5,0,0,1-3.85-1.4A25.76,25.76,0,0,1,41.79,38a96.8,96.8,0,0,1-9.46-23.51,69.07,69.07,0,0,1-1.38-7,48,48,0,0,1-.5-5.74A4.11,4.11,0,0,1,30.58.62a.7.7,0,0,1,.08.23,44.92,44.92,0,0,0,1.22,8.39,74.27,74.27,0,0,0,6,17.07,63.31,63.31,0,0,0,6.72,11A24.94,24.94,0,0,0,49,41.71C49.17,41.82,49.32,41.93,49.51,42.05Zm1.81,1.5v-.11a1.22,1.22,0,0,0-.19-.12,13.63,13.63,0,0,1-2.73-1.78,27.56,27.56,0,0,1-5.13-5.6,73.56,73.56,0,0,1-11-23.88c-.25-1-.47-1.91-.71-2.86a.63.63,0,0,0,0,.33c.25,1.21.48,2.43.78,3.64a81.47,81.47,0,0,0,4.3,12.73,65.54,65.54,0,0,0,6.09,11.31,28.13,28.13,0,0,0,4,4.75,10.54,10.54,0,0,0,2.39,1.76,1,1,0,0,0,.49.12C50.15,43.77,50.74,43.65,51.32,43.55ZM37.29,28l-.08,0c0,.14.1.28.16.42a83.16,83.16,0,0,0,4.55,9.23,25.12,25.12,0,0,0,3.52,5A4,4,0,0,0,48,43.9a8.93,8.93,0,0,0,.9,0c-.55-.38-1-.67-1.41-1a22,22,0,0,1-3.88-4.13A56.33,56.33,0,0,1,38,29.44C37.76,29,37.52,28.46,37.29,28Zm22.39,7.51a2.41,2.41,0,0,0-.33.19c-.66.52-1.33,1-1.94,1.58s-1.34,1.38-2,2.07a17.24,17.24,0,0,1-4.31,3.43,1.5,1.5,0,0,0-.2.14,1.41,1.41,0,0,0,1.65.16,7.63,7.63,0,0,0,1.59-1.18,73,73,0,0,0,5.53-6.26S59.67,35.55,59.68,35.48Zm-9.12,7.27a2.44,2.44,0,0,0,.31-.14,11.49,11.49,0,0,0,2.79-1.93c1.3-1.26,2.56-2.57,3.84-3.85,0,0,0,0,0-.11s-.22.13-.32.21c-.82.66-1.66,1.31-2.45,2a16.69,16.69,0,0,1-5,3.24Z"/><path class="a" d="M34.9,56.46a3,3,0,0,1,.26,1.77c-.17,1.08-.39,2.17-.5,3.26a18.49,18.49,0,0,0,0,3.49,20.7,20.7,0,0,0,.75,4.13,31.52,31.52,0,0,0,1.85,4.69,36.15,36.15,0,0,1,3,9.09,3,3,0,0,1,.09.51,1.58,1.58,0,0,1-.09.36l-.12,0a5.12,5.12,0,0,1-.49-.66c-.27-.46-.52-.94-.75-1.42-1.07-2.2-2.1-4.41-3.19-6.6a17.68,17.68,0,0,1-1.57-5.17A19.8,19.8,0,0,1,33.92,66a45.56,45.56,0,0,1,.69-5.57A24,24,0,0,0,35,58.07a11.19,11.19,0,0,0-.07-1.41C34.89,56.6,34.9,56.53,34.9,56.46Zm-.73,10H34.1c0,.16,0,.31,0,.47a17.38,17.38,0,0,0,.26,3.29A15.54,15.54,0,0,0,35.84,75c.93,1.86,1.82,3.74,2.72,5.61l.92,1.92a2.46,2.46,0,0,0,.22.34,13.23,13.23,0,0,0-.44-1.7,36.41,36.41,0,0,0-2.77-6.3,17.67,17.67,0,0,1-2.11-6.56C34.3,67.68,34.24,67.06,34.17,66.44ZM39.7,82h.07a2.91,2.91,0,0,0,0-.31c-.38-1.35-.69-2.72-1.17-4C38,76.06,37.29,74.54,36.62,73a26,26,0,0,1-2.21-7.42,18.78,18.78,0,0,0,.47,4.54A20.81,20.81,0,0,0,37,75.51a30,30,0,0,1,2.45,5.82C39.55,81.55,39.63,81.76,39.7,82Z"/><path class="a" d="M49.4,65.27a1.43,1.43,0,0,1,.09,1,6.32,6.32,0,0,1-5.1,5.4,5.44,5.44,0,0,1-5.07-1.69,10.1,10.1,0,0,1-2.38-4,32.79,32.79,0,0,1-1.2-5,63.22,63.22,0,0,0-2.24-9.07,43.84,43.84,0,0,1-1.6-7.18,51.35,51.35,0,0,1-.47-7.73c0-2.73.12-5.46.14-8.19,0-1.67,0-3.34-.1-5,0-1-.13-2.08-.22-3.11s-.24-2.16-.34-3.25c-.12-1.27-.25-2.54-.31-3.81q-.12-2.92-.16-5.87c0-2.39,0-4.79,0-7.19A.74.74,0,0,1,30.5.09a.9.9,0,0,1,.12.24,5.44,5.44,0,0,1,0,.57c0,2.45,0,4.89,0,7.34,0,1.56,0,3.12.11,4.68s.28,3.27.43,4.9c.1,1.13.19,2.26.31,3.39a68.59,68.59,0,0,1,.27,8.6c0,1.4-.12,2.8-.15,4.21s0,2.71,0,4.07.05,2.46.15,3.68.26,2.35.42,3.52a57.44,57.44,0,0,0,2.36,9.33,46.91,46.91,0,0,1,1.19,5.25,43.64,43.64,0,0,0,1.41,6.06,9.94,9.94,0,0,0,2.19,3.72,5.27,5.27,0,0,0,3.06,1.76,5.65,5.65,0,0,0,4.14-.91,6.09,6.09,0,0,0,2.63-3.91c.06-.34.09-.68.14-1A2.93,2.93,0,0,1,49.4,65.27Z"/></svg>