<svg xmlns="http://www.w3.org/2000/svg" viewBox="0 0 6.4 27.33"><defs><style>.a{fill:#c5986e;}</style></defs><title>Recurso 19watercolor</title><path class="a" d="M5.39,27.33a3,3,0,0,1-.26-1.77c.17-1.08.39-2.17.5-3.26a18.49,18.49,0,0,0,0-3.49,20.7,20.7,0,0,0-.75-4.13A30.51,30.51,0,0,0,3.06,10,37,37,0,0,1,.08.9,3,3,0,0,1,0,.39,1.81,1.81,0,0,1,.09,0L.21,0A6.26,6.26,0,0,1,.7.66c.27.46.52.94.75,1.42,1.06,2.2,2.1,4.41,3.18,6.6A17.1,17.1,0,0,1,6.2,13.85a18.32,18.32,0,0,1,.16,3.91,43.61,43.61,0,0,1-.69,5.58c-.14.79-.27,1.58-.34,2.38a9.38,9.38,0,0,0,.07,1.4C5.4,27.19,5.39,27.26,5.39,27.33Zm.72-10h.08c0-.16,0-.31,0-.47A17.38,17.38,0,0,0,6,13.58a15.81,15.81,0,0,0-1.5-4.79C3.52,6.93,2.63,5.05,1.72,3.18c-.31-.64-.6-1.28-.91-1.92A4,4,0,0,0,.59.92,13.23,13.23,0,0,0,1,2.62,36.41,36.41,0,0,0,3.8,8.92a17.86,17.86,0,0,1,2.11,6.56C6,16.11,6.05,16.73,6.11,17.35ZM.59,1.81H.52a1.55,1.55,0,0,0,0,.31c.38,1.35.68,2.72,1.16,4,.57,1.57,1.27,3.09,2,4.61a25.69,25.69,0,0,1,2.2,7.42,18.25,18.25,0,0,0-.47-4.54A20.79,20.79,0,0,0,3.26,8.28,30,30,0,0,1,.81,2.46C.74,2.24.66,2,.59,1.81Z"/></svg>